<?xml version="1.0" encoding="UTF-8" standalone="no"?>
<!-- Created with Inkscape (http://www.inkscape.org/) -->

<svg
   width="63.499992mm"
   height="67.733337mm"
   viewBox="0 0 63.499992 67.733337"
   version="1.1"
   id="svg10474"
   xml:space="preserve"
   inkscape:version="1.2.2 (b0a8486541, 2022-12-01)"
   sodipodi:docname="magnifier.svg"
   xmlns:inkscape="http://www.inkscape.org/namespaces/inkscape"
   xmlns:sodipodi="http://sodipodi.sourceforge.net/DTD/sodipodi-0.dtd"
   xmlns="http://www.w3.org/2000/svg"
   xmlns:svg="http://www.w3.org/2000/svg"><sodipodi:namedview
     id="namedview10476"
     pagecolor="#ffffff"
     bordercolor="#000000"
     borderopacity="0.25"
     inkscape:showpageshadow="2"
     inkscape:pageopacity="0.0"
     inkscape:pagecheckerboard="false"
     inkscape:deskcolor="#d1d1d1"
     inkscape:document-units="mm"
     showgrid="false"
     inkscape:zoom="0.74742565"
     inkscape:cx="-39.468809"
     inkscape:cy="203.36471"
     inkscape:window-width="1920"
     inkscape:window-height="1011"
     inkscape:window-x="0"
     inkscape:window-y="32"
     inkscape:window-maximized="1"
     inkscape:current-layer="layer1" /><defs
     id="defs10471" /><g
     inkscape:label="Layer 1"
     inkscape:groupmode="layer"
     id="layer1"
     transform="translate(-86.844897,-59.94144)"><path
       style="fill:#000000;fill-opacity:1;stroke-width:0.264583"
       d="m 137.64489,125.55811 v -2.11667 h -2.11666 -2.11667 v -2.11666 -2.11667 h -2.11667 -2.11666 v -2.11667 -2.11666 h -2.11667 -2.11667 v -2.11667 -2.11667 h -10.58333 -10.58333 v -2.11666 -2.11667 h -4.233336 -4.23334 v -2.11667 -2.11667 h -2.116657 -2.11667 v -4.23333 -4.23333 h -2.11667 -2.11666 v -8.46667 -8.46667 h 2.11666 2.11667 v -4.23333 -4.23333 h 2.11667 2.116657 v -2.11667 -2.11667 h 4.23334 4.233336 v -2.11666 -2.11667 h 8.46666 8.46667 v 2.11667 2.11666 h 4.23333 4.23334 v 2.11667 2.11667 h 2.11666 2.11667 v 4.23333 4.23333 h 2.11667 2.11666 v 8.46667 8.46667 h -2.11666 -2.11667 v 4.23333 4.23333 h 2.11667 2.11666 v 2.11667 2.11667 h 2.11667 2.11667 v 2.11667 2.11666 h 2.11666 2.11667 v 2.11667 2.11667 h 2.11667 2.11666 v 4.23333 4.23333 h -2.11666 -2.11667 v 2.11667 2.11667 h -4.23333 -4.23334 z m 4.23334,-4.23333 v -2.11667 h -2.11667 -2.11667 v -2.11667 -2.11666 h -2.11666 -2.11667 v -2.11667 -2.11667 h -2.11667 -2.11666 v -2.11666 -2.11667 h -2.11667 -2.11667 v -2.11667 -2.11667 h 2.11667 2.11667 v -4.23333 -4.23333 h 2.11666 2.11667 v -8.46667 -8.46667 h -2.11667 -2.11666 v -4.23333 -4.23333 h -4.23334 -4.23333 v -2.11667 -2.11667 h -8.46667 -8.46666 v 2.11667 2.11667 h -4.252266 c -4.24767,0 -4.25222,5.3e-4 -4.20405,0.59531 0.0265,0.32742 0.035,2.23242 0.0189,4.23333 l -0.0293,3.63802 h -2.116667 -2.11667 v 8.46667 8.46667 h 2.10995 2.109947 l 0.0729,4.16719 0.0729,4.16718 4.16719,0.0729 4.167186,0.0729 v 2.10995 2.10995 h 10.58333 10.58333 v 2.11667 2.11666 h 2.11667 2.11667 v 2.11667 2.11667 h 2.11666 2.11667 v 2.11666 2.11667 h 2.11667 2.11666 v 2.11667 2.11666 h 2.11667 2.11667 z"
       id="path11347" /></g></svg>
