<?xml version="1.0" encoding="UTF-8" standalone="no"?>
<!-- Created with Inkscape (http://www.inkscape.org/) -->

<svg
   width="156.63333mm"
   height="156.63333mm"
   viewBox="0 0 156.63333 156.63333"
   version="1.1"
   id="svg5"
   xml:space="preserve"
   inkscape:version="1.2.2 (b0a8486541, 2022-12-01)"
   sodipodi:docname="config.svg"
   xmlns:inkscape="http://www.inkscape.org/namespaces/inkscape"
   xmlns:sodipodi="http://sodipodi.sourceforge.net/DTD/sodipodi-0.dtd"
   xmlns="http://www.w3.org/2000/svg"
   xmlns:svg="http://www.w3.org/2000/svg"><sodipodi:namedview
     id="namedview7"
     pagecolor="#ffffff"
     bordercolor="#000000"
     borderopacity="0.25"
     inkscape:showpageshadow="2"
     inkscape:pageopacity="0.0"
     inkscape:pagecheckerboard="0"
     inkscape:deskcolor="#d1d1d1"
     inkscape:document-units="mm"
     showgrid="false"
     inkscape:zoom="0.37371282"
     inkscape:cx="-346.52276"
     inkscape:cy="222.09567"
     inkscape:window-width="1920"
     inkscape:window-height="1011"
     inkscape:window-x="0"
     inkscape:window-y="32"
     inkscape:window-maximized="1"
     inkscape:current-layer="layer1" /><defs
     id="defs2" /><g
     inkscape:label="Layer 1"
     inkscape:groupmode="layer"
     id="layer1"
     transform="translate(-39.208962,-49.242977)"><g
       id="g1657"><g
         id="g193"
         transform="translate(-6.7258641,2.8319428)"><g
           id="g179"
           transform="translate(25.133492,-7.7878427)"><path
             style="fill:#fec006;stroke-width:0.264583"
             d="M 30.590917,132.51554 V 63.98846 h 68.527082 68.527081 v 68.52708 68.52708 H 99.117999 30.590917 Z m 19.579166,53.84271 v -4.89479 H 45.275292 40.3805 v 4.89479 4.89479 h 4.894792 4.894791 z m 107.685417,0 v -4.89479 h -4.89479 -4.8948 v 4.89479 4.89479 h 4.8948 4.89479 z M 50.170083,78.672835 V 73.778043 H 45.275292 40.3805 v 4.894792 4.894791 h 4.894792 4.894791 z m 107.685417,0 v -4.894792 h -4.89479 -4.8948 v 4.894792 4.894791 h 4.8948 4.89479 z"
             id="path185" /><path
             style="fill:#fe5621;stroke-width:0.264583"
             d="M 20.801334,132.51554 V 63.98846 h 4.894792 4.894791 v -4.894792 -4.894791 h 73.421873 73.42187 v 4.894791 4.894792 H 104.01279 30.590917 v 68.52708 68.52708 h -4.894791 -4.894792 z"
             id="path183" /><path
             style="fill:#000000;stroke-width:0.264583"
             d="m 20.801334,205.93742 v -4.8948 H 94.223207 167.64508 V 132.51554 63.98846 h 4.89479 4.89479 v 73.42187 73.42188 H 99.117999 20.801334 Z M 40.3805,186.35825 v -4.89479 h 4.894792 4.894791 v 4.89479 4.89479 H 45.275292 40.3805 Z m 107.68541,0 v -4.89479 h 4.8948 4.89479 v 4.89479 4.89479 h -4.89479 -4.8948 z M 40.3805,78.672835 v -4.894792 h 4.894792 4.894791 v 4.894792 4.894791 H 45.275292 40.3805 Z m 107.68541,0 v -4.894792 h 4.8948 4.89479 v 4.894792 4.894791 h -4.89479 -4.8948 z M 20.801334,59.093668 v -4.894791 h 4.894792 4.894791 v 4.894791 4.894792 h -4.894791 -4.894792 z"
             id="path181" /></g></g><g
         id="g1641"
         transform="translate(2.1166669)"><path
           style="fill:#000000;fill-opacity:1;stroke-width:0.264583"
           d="m 108.26511,165.53749 v -5.67824 l -2.3151,-0.0764 -2.3151,-0.0764 -0.0814,-1.12448 -0.0814,-1.12448 h -2.10146 -2.10145 v 1.19062 1.19063 h -1.05833 -1.05834 v 1.05833 1.05833 h -1.19062 -1.19063 v 1.19063 1.19062 h -1.32283 -1.32292 v -1.19062 -1.19063 H 91.0672 c -0.6503,0 -1.07278,-0.12751 -1.09579,-0.33072 -0.0206,-0.18191 -0.0504,-0.62839 -0.0662,-0.99219 -0.0246,-0.56678 -0.18018,-0.6804 -1.08702,-0.79375 -1.031761,-0.12897 -1.06038,-0.16052 -1.13969,-1.25677 l -0.0814,-1.12448 h -1.17541 -1.17542 v -1.19063 -1.19062 h -1.04236 c -1.013519,0 -1.04463,-0.0275 -1.12448,-0.99219 -0.0797,-0.96309 -0.115089,-0.99457 -1.20659,-1.07355 l -1.12448,-0.0814 v -1.3077 -1.3077 h 1.17541 1.17541 l 0.0814,-1.12448 c 0.0787,-1.0881 0.112971,-1.12711 1.058469,-1.2057 0.91806,-0.0763 0.98203,-0.14027 1.058341,-1.05833 0.0768,-0.92406 0.138679,-0.9843 1.139549,-1.10941 l 1.058331,-0.13229 0.0766,-2.16709 0.0766,-2.16709 -1.13493,-0.0819 -1.13492,-0.0819 -0.0768,-2.18281 -0.0769,-2.18281 h -5.677839 -5.67784 v -9.26042 -9.26041 h 5.678241 5.678238 l 0.0764,-2.31511 0.0764,-2.3151 1.12447,-0.0814 1.12448,-0.0814 V 111.393 c 0,-1.53696 -0.0902,-2.10135 -0.33073,-2.07011 -0.1819,0.0236 -0.71768,0.0288 -1.19062,0.0116 -0.8216,-0.0299 -0.8599,-0.0785 -0.8599,-1.08967 0,-1.03493 -0.0207,-1.05833 -0.93434,-1.05833 -0.975809,0 -1.104629,-0.14863 -1.261229,-1.45521 -0.087,-0.72576 -0.19087,-0.80078 -1.21259,-0.87579 l -1.11745,-0.082 0.08,-1.24089 0.08,-1.24088 1.12448,-0.0813 c 1.11901,-0.081 1.12448,-0.0864 1.12448,-1.12448 0,-0.95396 0.0622,-1.0458 0.727599,-1.07447 0.40018,-0.0172 0.86941,-0.0136 1.04273,0.008 0.19017,0.0238 0.34754,-0.409711 0.39687,-1.093131 0.0798,-1.10553 0.10695,-1.13564 1.14009,-1.26478 1.00793,-0.12599 1.06463,-0.18269 1.19062,-1.19063 0.12866,-1.02923 0.16282,-1.06055 1.24227,-1.13898 1.09955,-0.0799 1.11073,-0.0911 1.19063,-1.19062 0.0793,-1.09195 0.0968,-1.10998 1.07301,-1.10998 0.99112,0 0.99236,-0.001 0.99219,-1.124484 l -1.8e-4,-1.12448 h 1.3077 1.30771 l 0.0814,1.09637 c 0.0736,0.991604 0.15442,1.104034 0.84597,1.176524 1.28111,0.13429 1.48434,0.30893 1.48434,1.27547 0,0.89164 0.0335,0.92156 1.1206,1.00049 l 1.120599,0.0814 -0.0825,1.12448 -0.0825,1.12448 h 2.121671 2.12169 l 0.0814,-1.12448 0.0814,-1.12448 2.3151,-0.0764 2.3151,-0.0764 V 89.581595 83.90335 h 9.26042 9.26042 v 5.677845 5.677854 l 2.18281,0.0768 2.18281,0.0769 0.0814,1.12448 0.0814,1.12448 h 2.21853 2.21853 l 0.0814,-1.12448 c 0.0787,-1.08811 0.11297,-1.12711 1.05848,-1.2057 0.91805,-0.0763 0.98202,-0.14028 1.05833,-1.05833 0.0786,-0.94551 0.11759,-0.97975 1.2057,-1.05848 l 1.12448,-0.0814 v -1.175414 -1.17541 h 1.32291 1.32292 v 1.03003 c 0,1.089464 0.2861,1.351224 1.47685,1.351224 0.57006,0 0.63982,0.11538 0.63982,1.05833 v 1.05834 h 1.19062 1.19063 v 1.19062 1.19063 h 1.19062 1.19063 v 1.18271 1.182701 l 0.99218,-0.0582 c 0.98869,-0.058 0.99248,-0.0543 1.07355,1.06624 l 0.0814,1.12448 h 1.17541 1.17541 v 1.32292 1.32292 h -1.19062 -1.19063 v 1.19062 1.19063 h -1.05833 -1.05833 v 1.05833 1.05833 h -1.19063 -1.19062 v 2.10146 2.10145 l 1.12448,0.0814 1.12447,0.0814 0.0765,2.3151 0.0765,2.31511 h 5.67824 5.67824 v 9.26041 9.26042 h -5.68854 -5.68854 v 2.24896 2.24896 h -1.19063 -1.19062 v 2.24895 2.24896 h 1.19062 1.19063 v 1.05834 1.05833 h 1.05833 1.05833 v 1.19062 1.19063 h 1.19063 1.19062 v 1.32292 1.32291 h -1.19062 -1.19063 v 1.05834 1.05833 h -1.05833 -1.05833 v 1.19062 1.19063 h -1.19063 -1.19062 v 1.19062 1.19063 h -1.19063 -1.19062 v 1.05833 1.05833 h -1.05834 -1.05833 v 1.19063 1.19062 h -1.32292 -1.32291 v -1.19062 -1.19063 h -1.19086 -1.19062 v -1.05833 -1.05833 h -1.05834 -1.05833 v -1.19063 -1.19062 h -2.24896 -2.24896 v 1.19062 1.19063 h -2.24896 -2.24895 v 5.68854 5.68854 h -9.26042 -9.26042 z m 15.92594,-23.22749 0.0813,-1.12448 2.31511,-0.0764 2.3151,-0.0764 v -1.04803 c 0,-1.0446 0.003,-1.04803 1.04804,-1.04803 h 1.04803 l 0.0764,-2.31511 0.0764,-2.3151 1.12448,-0.0814 1.12448,-0.0814 v -6.58416 -6.58415 l -1.12448,-0.0814 -1.12448,-0.0814 -0.0764,-2.31511 -0.0764,-2.3151 h -1.04803 c -1.04632,0 -1.04804,-0.002 -1.04804,-1.05833 v -1.05834 h -1.96273 c -2.60064,0 -2.79977,-0.0961 -2.79977,-1.35122 v -1.03003 h -6.61458 -6.61458 v 1.19063 1.19062 h -2.3812 -2.38125 v 1.05834 1.05833 h -1.05834 -1.05833 v 2.38125 2.38125 h -1.19062 -1.19063 v 6.59937 6.59937 l 1.12448,0.0814 1.12448,0.0814 0.0764,2.3151 0.0764,2.31511 h 1.04803 c 1.0446,0 1.04804,0.003 1.04804,1.04803 v 1.04803 l 2.3151,0.0764 2.31511,0.0764 0.0814,1.12448 0.0814,1.12448 h 6.58416 6.58416 z"
           id="path207-3" /><path
           style="fill:#ff5722;fill-opacity:1;stroke-width:0.264583"
           d="m 104.03175,161.30413 v -5.67824 l -2.3151,-0.0764 -2.315094,-0.0764 -0.0814,-1.12448 -0.0814,-1.12448 h -2.101448 -2.101439 v 1.19062 1.19063 h -1.058333 -1.05834 v 1.05833 1.05833 h -1.19062 -1.19063 v 1.19063 1.19062 h -1.32283 -1.32292 v -1.19062 -1.19063 h -1.05833 c -0.6503,0 -1.07278,-0.12751 -1.09579,-0.33072 -0.0206,-0.18191 -0.0504,-0.62839 -0.0662,-0.99219 -0.0246,-0.56678 -0.18018,-0.6804 -1.08702,-0.79375 -1.03176,-0.12897 -1.06038,-0.16052 -1.13969,-1.25677 l -0.0814,-1.12448 h -1.17541 -1.17542 v -1.19063 -1.19062 h -1.04236 c -1.01352,0 -1.04463,-0.0275 -1.12448,-0.99219 -0.0797,-0.96309 -0.11509,-0.99457 -1.20659,-1.07355 l -1.12448,-0.0814 v -1.3077 -1.3077 h 1.17541 1.17541 l 0.0814,-1.12448 c 0.0787,-1.0881 0.11297,-1.12711 1.05847,-1.2057 0.91806,-0.0763 0.98203,-0.14027 1.05834,-1.05833 0.0768,-0.92406 0.13868,-0.9843 1.13955,-1.10941 l 1.05833,-0.13229 0.0766,-2.16709 0.0766,-2.16709 -1.13493,-0.0819 -1.13492,-0.0819 -0.0768,-2.18281 -0.0769,-2.18281 h -5.67784 -5.67784 v -9.26042 -9.26041 h 5.67824 5.67824 l 0.0764,-2.31511 0.0764,-2.3151 1.12447,-0.0814 1.12448,-0.0814 v -2.11305 c 0,-1.53696 -0.0902,-2.10135 -0.33073,-2.07011 -0.1819,0.0236 -0.71768,0.0288 -1.19062,0.0116 -0.8216,-0.0299 -0.8599,-0.0785 -0.8599,-1.08967 0,-1.03493 -0.0207,-1.05833 -0.93434,-1.05833 -0.97581,0 -1.10463,-0.14863 -1.26123,-1.45521 -0.087,-0.72576 -0.19087,-0.80078 -1.21259,-0.87579 l -1.11745,-0.082 0.08,-1.240884 0.08,-1.240874 1.12448,-0.0813 c 1.11901,-0.081 1.12448,-0.0864 1.12448,-1.124474 0,-0.953954 0.0622,-1.045794 0.7276,-1.074464 0.40018,-0.0172 0.86941,-0.0136 1.04273,0.008 0.19017,0.0238 0.34754,-0.409709 0.39687,-1.093139 0.0798,-1.10553 0.10695,-1.13564 1.14009,-1.26478 1.00793,-0.12599 1.06463,-0.18269 1.19062,-1.19063 0.12866,-1.029231 0.16282,-1.060551 1.24227,-1.138981 1.09955,-0.0799 1.11073,-0.0911 1.19063,-1.19062 0.0793,-1.09195 0.0968,-1.10998 1.07301,-1.10998 0.99112,0 0.99236,-0.001 0.99219,-1.12448 l -1.8e-4,-1.12448 h 1.3077 1.30771 l 0.0814,1.09637 c 0.0736,0.9916 0.15442,1.10403 0.84597,1.17652 1.28111,0.13429 1.48434,0.30893 1.48434,1.27547 0,0.89164 0.0335,0.92156 1.1206,1.00049 l 1.120593,0.0814 -0.0825,1.124481 -0.0825,1.12448 h 2.121669 2.121678 l 0.0814,-1.12448 0.0814,-1.124481 2.315094,-0.0764 2.3151,-0.0764 v -5.67824 -5.67824 h 9.26042 9.26042 v 5.67784 5.67785 l 2.18281,0.0768 2.18281,0.0769 0.0814,1.124481 0.0814,1.12448 h 2.21853 2.21853 l 0.0814,-1.12448 c 0.0787,-1.088111 0.11297,-1.127111 1.05848,-1.205701 0.91805,-0.0763 0.98202,-0.14028 1.05833,-1.05833 0.0786,-0.94551 0.11759,-0.97975 1.2057,-1.05848 l 1.12448,-0.0814 v -1.17541 -1.17541 h 1.32291 1.32292 v 1.03003 c 0,1.08946 0.2861,1.35122 1.47685,1.35122 0.57006,0 0.63982,0.11538 0.63982,1.05833 v 1.05834 h 1.19062 1.19063 v 1.190621 1.19063 h 1.19062 1.19063 v 1.18271 1.182709 l 0.99218,-0.0582 c 0.98869,-0.058 0.99248,-0.0543 1.07355,1.066237 l 0.0814,1.124471 h 1.17541 1.17541 v 1.322914 1.322914 h -1.19062 -1.19063 v 1.19062 1.19063 h -1.05833 -1.05833 v 1.05833 1.05833 h -1.19063 -1.19062 v 2.10146 2.10145 l 1.12448,0.0814 1.12447,0.0814 0.0765,2.3151 0.0765,2.31511 h 5.67824 5.67824 v 9.26041 9.26042 h -5.68854 -5.68854 v 2.24896 2.24896 h -1.19063 -1.19062 v 2.24895 2.24896 h 1.19062 1.19063 v 1.05834 1.05833 h 1.05833 1.05833 v 1.19062 1.19063 h 1.19063 1.19062 v 1.32292 1.32291 h -1.19062 -1.19063 v 1.05834 1.05833 h -1.05833 -1.05833 v 1.19062 1.19063 h -1.19063 -1.19062 v 1.19062 1.19063 h -1.19063 -1.19062 v 1.05833 1.05833 h -1.05834 -1.05833 v 1.19063 1.19062 h -1.32292 -1.32291 v -1.19062 -1.19063 h -1.19086 -1.19062 v -1.05833 -1.05833 h -1.05834 -1.05833 v -1.19063 -1.19062 h -2.24896 -2.24896 v 1.19062 1.19063 h -2.24896 -2.24895 v 5.68854 5.68854 h -9.26042 -9.26042 z m 15.92594,-23.22749 0.0813,-1.12448 2.31511,-0.0764 2.3151,-0.0764 v -1.04803 c 0,-1.0446 0.003,-1.04803 1.04804,-1.04803 h 1.04803 l 0.0764,-2.31511 0.0764,-2.3151 1.12448,-0.0814 1.12448,-0.0814 v -6.58416 -6.58415 l -1.12448,-0.0814 -1.12448,-0.0814 -0.0764,-2.31511 -0.0764,-2.3151 h -1.04803 c -1.04632,0 -1.04804,-0.002 -1.04804,-1.05833 v -1.05834 h -1.96273 c -2.60064,0 -2.79977,-0.0961 -2.79977,-1.35122 v -1.03003 h -6.61458 -6.61458 v 1.19063 1.19062 h -2.3812 -2.38125 v 1.05834 1.05833 h -1.05834 -1.058327 v 2.38125 2.38125 h -1.190614 -1.190624 v 6.59937 6.59937 l 1.124474,0.0814 1.124474,0.0814 0.0764,2.3151 0.0764,2.31511 h 1.048027 c 1.0446,0 1.04804,0.003 1.04804,1.04803 v 1.04803 l 2.3151,0.0764 2.31511,0.0764 0.0814,1.12448 0.0814,1.12448 h 6.58416 6.58416 z"
           id="path207" /></g></g></g></svg>
