<?xml version="1.0" encoding="utf-8" standalone="no"?>
<!DOCTYPE svg PUBLIC "-//W3C//DTD SVG 1.1//EN"
  "http://www.w3.org/Graphics/SVG/1.1/DTD/svg11.dtd">
<svg xmlns:xlink="http://www.w3.org/1999/xlink" width="568.315625pt" height="207.835469pt" viewBox="0 0 568.315625 207.835469" xmlns="http://www.w3.org/2000/svg" version="1.1">
 <metadata>
  <rdf:RDF xmlns:dc="http://purl.org/dc/elements/1.1/" xmlns:cc="http://creativecommons.org/ns#" xmlns:rdf="http://www.w3.org/1999/02/22-rdf-syntax-ns#">
   <cc:Work>
    <dc:type rdf:resource="http://purl.org/dc/dcmitype/StillImage"/>
    <dc:date>2025-08-06T18:10:41.338832</dc:date>
    <dc:format>image/svg+xml</dc:format>
    <dc:creator>
     <cc:Agent>
      <dc:title>Matplotlib v3.6.3, https://matplotlib.org/</dc:title>
     </cc:Agent>
    </dc:creator>
   </cc:Work>
  </rdf:RDF>
 </metadata>
 <defs>
  <style type="text/css">*{stroke-linejoin: round; stroke-linecap: butt}</style>
 </defs>
 <g id="figure_1">
  <g id="patch_1">
   <path d="M 0 207.835469 
L 568.315625 207.835469 
L 568.315625 0 
L 0 0 
z
" style="fill: #ffffff"/>
  </g>
  <g id="axes_1">
   <g id="patch_2">
    <path d="M 43.465625 173.779219 
L 561.115625 173.779219 
L 561.115625 10.999219 
L 43.465625 10.999219 
z
" style="fill: #ffffff"/>
   </g>
   <g id="matplotlib.axis_1">
    <g id="xtick_1">
     <g id="line2d_1">
      <defs>
       <path id="me15e48794d" d="M 0 0 
L 0 -3.5 
" style="stroke: #000000; stroke-width: 0.8"/>
      </defs>
      <g>
       <use xlink:href="#me15e48794d" x="66.99517" y="173.779219" style="stroke: #000000; stroke-width: 0.8"/>
      </g>
     </g>
     <g id="text_1">
      <!-- 0.0 -->
      <g transform="translate(59.043608 184.877656) scale(0.1 -0.1)">
       <defs>
        <path id="DejaVuSans-30" d="M 2034 4250 
Q 1547 4250 1301 3770 
Q 1056 3291 1056 2328 
Q 1056 1369 1301 889 
Q 1547 409 2034 409 
Q 2525 409 2770 889 
Q 3016 1369 3016 2328 
Q 3016 3291 2770 3770 
Q 2525 4250 2034 4250 
z
M 2034 4750 
Q 2819 4750 3233 4129 
Q 3647 3509 3647 2328 
Q 3647 1150 3233 529 
Q 2819 -91 2034 -91 
Q 1250 -91 836 529 
Q 422 1150 422 2328 
Q 422 3509 836 4129 
Q 1250 4750 2034 4750 
z
" transform="scale(0.015625)"/>
        <path id="DejaVuSans-2e" d="M 684 794 
L 1344 794 
L 1344 0 
L 684 0 
L 684 794 
z
" transform="scale(0.015625)"/>
       </defs>
       <use xlink:href="#DejaVuSans-30"/>
       <use xlink:href="#DejaVuSans-2e" x="63.623047"/>
       <use xlink:href="#DejaVuSans-30" x="95.410156"/>
      </g>
     </g>
    </g>
    <g id="xtick_2">
     <g id="line2d_2">
      <g>
       <use xlink:href="#me15e48794d" x="145.689302" y="173.779219" style="stroke: #000000; stroke-width: 0.8"/>
      </g>
     </g>
     <g id="text_2">
      <!-- 0.1 -->
      <g transform="translate(137.73774 184.877656) scale(0.1 -0.1)">
       <defs>
        <path id="DejaVuSans-31" d="M 794 531 
L 1825 531 
L 1825 4091 
L 703 3866 
L 703 4441 
L 1819 4666 
L 2450 4666 
L 2450 531 
L 3481 531 
L 3481 0 
L 794 0 
L 794 531 
z
" transform="scale(0.015625)"/>
       </defs>
       <use xlink:href="#DejaVuSans-30"/>
       <use xlink:href="#DejaVuSans-2e" x="63.623047"/>
       <use xlink:href="#DejaVuSans-31" x="95.410156"/>
      </g>
     </g>
    </g>
    <g id="xtick_3">
     <g id="line2d_3">
      <g>
       <use xlink:href="#me15e48794d" x="224.383434" y="173.779219" style="stroke: #000000; stroke-width: 0.8"/>
      </g>
     </g>
     <g id="text_3">
      <!-- 0.2 -->
      <g transform="translate(216.431872 184.877656) scale(0.1 -0.1)">
       <defs>
        <path id="DejaVuSans-32" d="M 1228 531 
L 3431 531 
L 3431 0 
L 469 0 
L 469 531 
Q 828 903 1448 1529 
Q 2069 2156 2228 2338 
Q 2531 2678 2651 2914 
Q 2772 3150 2772 3378 
Q 2772 3750 2511 3984 
Q 2250 4219 1831 4219 
Q 1534 4219 1204 4116 
Q 875 4013 500 3803 
L 500 4441 
Q 881 4594 1212 4672 
Q 1544 4750 1819 4750 
Q 2544 4750 2975 4387 
Q 3406 4025 3406 3419 
Q 3406 3131 3298 2873 
Q 3191 2616 2906 2266 
Q 2828 2175 2409 1742 
Q 1991 1309 1228 531 
z
" transform="scale(0.015625)"/>
       </defs>
       <use xlink:href="#DejaVuSans-30"/>
       <use xlink:href="#DejaVuSans-2e" x="63.623047"/>
       <use xlink:href="#DejaVuSans-32" x="95.410156"/>
      </g>
     </g>
    </g>
    <g id="xtick_4">
     <g id="line2d_4">
      <g>
       <use xlink:href="#me15e48794d" x="303.077566" y="173.779219" style="stroke: #000000; stroke-width: 0.8"/>
      </g>
     </g>
     <g id="text_4">
      <!-- 0.3 -->
      <g transform="translate(295.126004 184.877656) scale(0.1 -0.1)">
       <defs>
        <path id="DejaVuSans-33" d="M 2597 2516 
Q 3050 2419 3304 2112 
Q 3559 1806 3559 1356 
Q 3559 666 3084 287 
Q 2609 -91 1734 -91 
Q 1441 -91 1130 -33 
Q 819 25 488 141 
L 488 750 
Q 750 597 1062 519 
Q 1375 441 1716 441 
Q 2309 441 2620 675 
Q 2931 909 2931 1356 
Q 2931 1769 2642 2001 
Q 2353 2234 1838 2234 
L 1294 2234 
L 1294 2753 
L 1863 2753 
Q 2328 2753 2575 2939 
Q 2822 3125 2822 3475 
Q 2822 3834 2567 4026 
Q 2313 4219 1838 4219 
Q 1578 4219 1281 4162 
Q 984 4106 628 3988 
L 628 4550 
Q 988 4650 1302 4700 
Q 1616 4750 1894 4750 
Q 2613 4750 3031 4423 
Q 3450 4097 3450 3541 
Q 3450 3153 3228 2886 
Q 3006 2619 2597 2516 
z
" transform="scale(0.015625)"/>
       </defs>
       <use xlink:href="#DejaVuSans-30"/>
       <use xlink:href="#DejaVuSans-2e" x="63.623047"/>
       <use xlink:href="#DejaVuSans-33" x="95.410156"/>
      </g>
     </g>
    </g>
    <g id="xtick_5">
     <g id="line2d_5">
      <g>
       <use xlink:href="#me15e48794d" x="381.771698" y="173.779219" style="stroke: #000000; stroke-width: 0.8"/>
      </g>
     </g>
     <g id="text_5">
      <!-- 0.4 -->
      <g transform="translate(373.820136 184.877656) scale(0.1 -0.1)">
       <defs>
        <path id="DejaVuSans-34" d="M 2419 4116 
L 825 1625 
L 2419 1625 
L 2419 4116 
z
M 2253 4666 
L 3047 4666 
L 3047 1625 
L 3713 1625 
L 3713 1100 
L 3047 1100 
L 3047 0 
L 2419 0 
L 2419 1100 
L 313 1100 
L 313 1709 
L 2253 4666 
z
" transform="scale(0.015625)"/>
       </defs>
       <use xlink:href="#DejaVuSans-30"/>
       <use xlink:href="#DejaVuSans-2e" x="63.623047"/>
       <use xlink:href="#DejaVuSans-34" x="95.410156"/>
      </g>
     </g>
    </g>
    <g id="xtick_6">
     <g id="line2d_6">
      <g>
       <use xlink:href="#me15e48794d" x="460.46583" y="173.779219" style="stroke: #000000; stroke-width: 0.8"/>
      </g>
     </g>
     <g id="text_6">
      <!-- 0.5 -->
      <g transform="translate(452.514268 184.877656) scale(0.1 -0.1)">
       <defs>
        <path id="DejaVuSans-35" d="M 691 4666 
L 3169 4666 
L 3169 4134 
L 1269 4134 
L 1269 2991 
Q 1406 3038 1543 3061 
Q 1681 3084 1819 3084 
Q 2600 3084 3056 2656 
Q 3513 2228 3513 1497 
Q 3513 744 3044 326 
Q 2575 -91 1722 -91 
Q 1428 -91 1123 -41 
Q 819 9 494 109 
L 494 744 
Q 775 591 1075 516 
Q 1375 441 1709 441 
Q 2250 441 2565 725 
Q 2881 1009 2881 1497 
Q 2881 1984 2565 2268 
Q 2250 2553 1709 2553 
Q 1456 2553 1204 2497 
Q 953 2441 691 2322 
L 691 4666 
z
" transform="scale(0.015625)"/>
       </defs>
       <use xlink:href="#DejaVuSans-30"/>
       <use xlink:href="#DejaVuSans-2e" x="63.623047"/>
       <use xlink:href="#DejaVuSans-35" x="95.410156"/>
      </g>
     </g>
    </g>
    <g id="xtick_7">
     <g id="line2d_7">
      <g>
       <use xlink:href="#me15e48794d" x="539.159962" y="173.779219" style="stroke: #000000; stroke-width: 0.8"/>
      </g>
     </g>
     <g id="text_7">
      <!-- 0.6 -->
      <g transform="translate(531.2084 184.877656) scale(0.1 -0.1)">
       <defs>
        <path id="DejaVuSans-36" d="M 2113 2584 
Q 1688 2584 1439 2293 
Q 1191 2003 1191 1497 
Q 1191 994 1439 701 
Q 1688 409 2113 409 
Q 2538 409 2786 701 
Q 3034 994 3034 1497 
Q 3034 2003 2786 2293 
Q 2538 2584 2113 2584 
z
M 3366 4563 
L 3366 3988 
Q 3128 4100 2886 4159 
Q 2644 4219 2406 4219 
Q 1781 4219 1451 3797 
Q 1122 3375 1075 2522 
Q 1259 2794 1537 2939 
Q 1816 3084 2150 3084 
Q 2853 3084 3261 2657 
Q 3669 2231 3669 1497 
Q 3669 778 3244 343 
Q 2819 -91 2113 -91 
Q 1303 -91 875 529 
Q 447 1150 447 2328 
Q 447 3434 972 4092 
Q 1497 4750 2381 4750 
Q 2619 4750 2861 4703 
Q 3103 4656 3366 4563 
z
" transform="scale(0.015625)"/>
       </defs>
       <use xlink:href="#DejaVuSans-30"/>
       <use xlink:href="#DejaVuSans-2e" x="63.623047"/>
       <use xlink:href="#DejaVuSans-36" x="95.410156"/>
      </g>
     </g>
    </g>
    <g id="text_8">
     <!-- Time (s) -->
     <g transform="translate(281.961719 198.555781) scale(0.1 -0.1)">
      <defs>
       <path id="DejaVuSans-54" d="M -19 4666 
L 3928 4666 
L 3928 4134 
L 2272 4134 
L 2272 0 
L 1638 0 
L 1638 4134 
L -19 4134 
L -19 4666 
z
" transform="scale(0.015625)"/>
       <path id="DejaVuSans-69" d="M 603 3500 
L 1178 3500 
L 1178 0 
L 603 0 
L 603 3500 
z
M 603 4863 
L 1178 4863 
L 1178 4134 
L 603 4134 
L 603 4863 
z
" transform="scale(0.015625)"/>
       <path id="DejaVuSans-6d" d="M 3328 2828 
Q 3544 3216 3844 3400 
Q 4144 3584 4550 3584 
Q 5097 3584 5394 3201 
Q 5691 2819 5691 2113 
L 5691 0 
L 5113 0 
L 5113 2094 
Q 5113 2597 4934 2840 
Q 4756 3084 4391 3084 
Q 3944 3084 3684 2787 
Q 3425 2491 3425 1978 
L 3425 0 
L 2847 0 
L 2847 2094 
Q 2847 2600 2669 2842 
Q 2491 3084 2119 3084 
Q 1678 3084 1418 2786 
Q 1159 2488 1159 1978 
L 1159 0 
L 581 0 
L 581 3500 
L 1159 3500 
L 1159 2956 
Q 1356 3278 1631 3431 
Q 1906 3584 2284 3584 
Q 2666 3584 2933 3390 
Q 3200 3197 3328 2828 
z
" transform="scale(0.015625)"/>
       <path id="DejaVuSans-65" d="M 3597 1894 
L 3597 1613 
L 953 1613 
Q 991 1019 1311 708 
Q 1631 397 2203 397 
Q 2534 397 2845 478 
Q 3156 559 3463 722 
L 3463 178 
Q 3153 47 2828 -22 
Q 2503 -91 2169 -91 
Q 1331 -91 842 396 
Q 353 884 353 1716 
Q 353 2575 817 3079 
Q 1281 3584 2069 3584 
Q 2775 3584 3186 3129 
Q 3597 2675 3597 1894 
z
M 3022 2063 
Q 3016 2534 2758 2815 
Q 2500 3097 2075 3097 
Q 1594 3097 1305 2825 
Q 1016 2553 972 2059 
L 3022 2063 
z
" transform="scale(0.015625)"/>
       <path id="DejaVuSans-20" transform="scale(0.015625)"/>
       <path id="DejaVuSans-28" d="M 1984 4856 
Q 1566 4138 1362 3434 
Q 1159 2731 1159 2009 
Q 1159 1288 1364 580 
Q 1569 -128 1984 -844 
L 1484 -844 
Q 1016 -109 783 600 
Q 550 1309 550 2009 
Q 550 2706 781 3412 
Q 1013 4119 1484 4856 
L 1984 4856 
z
" transform="scale(0.015625)"/>
       <path id="DejaVuSans-73" d="M 2834 3397 
L 2834 2853 
Q 2591 2978 2328 3040 
Q 2066 3103 1784 3103 
Q 1356 3103 1142 2972 
Q 928 2841 928 2578 
Q 928 2378 1081 2264 
Q 1234 2150 1697 2047 
L 1894 2003 
Q 2506 1872 2764 1633 
Q 3022 1394 3022 966 
Q 3022 478 2636 193 
Q 2250 -91 1575 -91 
Q 1294 -91 989 -36 
Q 684 19 347 128 
L 347 722 
Q 666 556 975 473 
Q 1284 391 1588 391 
Q 1994 391 2212 530 
Q 2431 669 2431 922 
Q 2431 1156 2273 1281 
Q 2116 1406 1581 1522 
L 1381 1569 
Q 847 1681 609 1914 
Q 372 2147 372 2553 
Q 372 3047 722 3315 
Q 1072 3584 1716 3584 
Q 2034 3584 2315 3537 
Q 2597 3491 2834 3397 
z
" transform="scale(0.015625)"/>
       <path id="DejaVuSans-29" d="M 513 4856 
L 1013 4856 
Q 1481 4119 1714 3412 
Q 1947 2706 1947 2009 
Q 1947 1309 1714 600 
Q 1481 -109 1013 -844 
L 513 -844 
Q 928 -128 1133 580 
Q 1338 1288 1338 2009 
Q 1338 2731 1133 3434 
Q 928 4138 513 4856 
z
" transform="scale(0.015625)"/>
      </defs>
      <use xlink:href="#DejaVuSans-54"/>
      <use xlink:href="#DejaVuSans-69" x="57.958984"/>
      <use xlink:href="#DejaVuSans-6d" x="85.742188"/>
      <use xlink:href="#DejaVuSans-65" x="183.154297"/>
      <use xlink:href="#DejaVuSans-20" x="244.677734"/>
      <use xlink:href="#DejaVuSans-28" x="276.464844"/>
      <use xlink:href="#DejaVuSans-73" x="315.478516"/>
      <use xlink:href="#DejaVuSans-29" x="367.578125"/>
     </g>
    </g>
   </g>
   <g id="matplotlib.axis_2">
    <g id="ytick_1">
     <g id="line2d_8">
      <defs>
       <path id="m39d9c0d494" d="M 0 0 
L 3.5 0 
" style="stroke: #000000; stroke-width: 0.8"/>
      </defs>
      <g>
       <use xlink:href="#m39d9c0d494" x="43.465625" y="173.779219" style="stroke: #000000; stroke-width: 0.8"/>
      </g>
     </g>
     <g id="text_9">
      <!-- 150 -->
      <g transform="translate(20.878125 177.578437) scale(0.1 -0.1)">
       <use xlink:href="#DejaVuSans-31"/>
       <use xlink:href="#DejaVuSans-35" x="63.623047"/>
       <use xlink:href="#DejaVuSans-30" x="127.246094"/>
      </g>
     </g>
    </g>
    <g id="ytick_2">
     <g id="line2d_9">
      <g>
       <use xlink:href="#m39d9c0d494" x="43.465625" y="153.431719" style="stroke: #000000; stroke-width: 0.8"/>
      </g>
     </g>
     <g id="text_10">
      <!-- 200 -->
      <g transform="translate(20.878125 157.230937) scale(0.1 -0.1)">
       <use xlink:href="#DejaVuSans-32"/>
       <use xlink:href="#DejaVuSans-30" x="63.623047"/>
       <use xlink:href="#DejaVuSans-30" x="127.246094"/>
      </g>
     </g>
    </g>
    <g id="ytick_3">
     <g id="line2d_10">
      <g>
       <use xlink:href="#m39d9c0d494" x="43.465625" y="133.084219" style="stroke: #000000; stroke-width: 0.8"/>
      </g>
     </g>
     <g id="text_11">
      <!-- 250 -->
      <g transform="translate(20.878125 136.883437) scale(0.1 -0.1)">
       <use xlink:href="#DejaVuSans-32"/>
       <use xlink:href="#DejaVuSans-35" x="63.623047"/>
       <use xlink:href="#DejaVuSans-30" x="127.246094"/>
      </g>
     </g>
    </g>
    <g id="ytick_4">
     <g id="line2d_11">
      <g>
       <use xlink:href="#m39d9c0d494" x="43.465625" y="112.736719" style="stroke: #000000; stroke-width: 0.8"/>
      </g>
     </g>
     <g id="text_12">
      <!-- 300 -->
      <g transform="translate(20.878125 116.535937) scale(0.1 -0.1)">
       <use xlink:href="#DejaVuSans-33"/>
       <use xlink:href="#DejaVuSans-30" x="63.623047"/>
       <use xlink:href="#DejaVuSans-30" x="127.246094"/>
      </g>
     </g>
    </g>
    <g id="ytick_5">
     <g id="line2d_12">
      <g>
       <use xlink:href="#m39d9c0d494" x="43.465625" y="92.389219" style="stroke: #000000; stroke-width: 0.8"/>
      </g>
     </g>
     <g id="text_13">
      <!-- 350 -->
      <g transform="translate(20.878125 96.188437) scale(0.1 -0.1)">
       <use xlink:href="#DejaVuSans-33"/>
       <use xlink:href="#DejaVuSans-35" x="63.623047"/>
       <use xlink:href="#DejaVuSans-30" x="127.246094"/>
      </g>
     </g>
    </g>
    <g id="ytick_6">
     <g id="line2d_13">
      <g>
       <use xlink:href="#m39d9c0d494" x="43.465625" y="72.041719" style="stroke: #000000; stroke-width: 0.8"/>
      </g>
     </g>
     <g id="text_14">
      <!-- 400 -->
      <g transform="translate(20.878125 75.840937) scale(0.1 -0.1)">
       <use xlink:href="#DejaVuSans-34"/>
       <use xlink:href="#DejaVuSans-30" x="63.623047"/>
       <use xlink:href="#DejaVuSans-30" x="127.246094"/>
      </g>
     </g>
    </g>
    <g id="ytick_7">
     <g id="line2d_14">
      <g>
       <use xlink:href="#m39d9c0d494" x="43.465625" y="51.694219" style="stroke: #000000; stroke-width: 0.8"/>
      </g>
     </g>
     <g id="text_15">
      <!-- 450 -->
      <g transform="translate(20.878125 55.493437) scale(0.1 -0.1)">
       <use xlink:href="#DejaVuSans-34"/>
       <use xlink:href="#DejaVuSans-35" x="63.623047"/>
       <use xlink:href="#DejaVuSans-30" x="127.246094"/>
      </g>
     </g>
    </g>
    <g id="ytick_8">
     <g id="line2d_15">
      <g>
       <use xlink:href="#m39d9c0d494" x="43.465625" y="31.346719" style="stroke: #000000; stroke-width: 0.8"/>
      </g>
     </g>
     <g id="text_16">
      <!-- 500 -->
      <g transform="translate(20.878125 35.145937) scale(0.1 -0.1)">
       <use xlink:href="#DejaVuSans-35"/>
       <use xlink:href="#DejaVuSans-30" x="63.623047"/>
       <use xlink:href="#DejaVuSans-30" x="127.246094"/>
      </g>
     </g>
    </g>
    <g id="ytick_9">
     <g id="line2d_16">
      <g>
       <use xlink:href="#m39d9c0d494" x="43.465625" y="10.999219" style="stroke: #000000; stroke-width: 0.8"/>
      </g>
     </g>
     <g id="text_17">
      <!-- 550 -->
      <g transform="translate(20.878125 14.798437) scale(0.1 -0.1)">
       <use xlink:href="#DejaVuSans-35"/>
       <use xlink:href="#DejaVuSans-35" x="63.623047"/>
       <use xlink:href="#DejaVuSans-30" x="127.246094"/>
      </g>
     </g>
    </g>
    <g id="text_18">
     <!-- ADC value -->
     <g transform="translate(14.798438 118.397812) rotate(-90) scale(0.1 -0.1)">
      <defs>
       <path id="DejaVuSans-41" d="M 2188 4044 
L 1331 1722 
L 3047 1722 
L 2188 4044 
z
M 1831 4666 
L 2547 4666 
L 4325 0 
L 3669 0 
L 3244 1197 
L 1141 1197 
L 716 0 
L 50 0 
L 1831 4666 
z
" transform="scale(0.015625)"/>
       <path id="DejaVuSans-44" d="M 1259 4147 
L 1259 519 
L 2022 519 
Q 2988 519 3436 956 
Q 3884 1394 3884 2338 
Q 3884 3275 3436 3711 
Q 2988 4147 2022 4147 
L 1259 4147 
z
M 628 4666 
L 1925 4666 
Q 3281 4666 3915 4102 
Q 4550 3538 4550 2338 
Q 4550 1131 3912 565 
Q 3275 0 1925 0 
L 628 0 
L 628 4666 
z
" transform="scale(0.015625)"/>
       <path id="DejaVuSans-43" d="M 4122 4306 
L 4122 3641 
Q 3803 3938 3442 4084 
Q 3081 4231 2675 4231 
Q 1875 4231 1450 3742 
Q 1025 3253 1025 2328 
Q 1025 1406 1450 917 
Q 1875 428 2675 428 
Q 3081 428 3442 575 
Q 3803 722 4122 1019 
L 4122 359 
Q 3791 134 3420 21 
Q 3050 -91 2638 -91 
Q 1578 -91 968 557 
Q 359 1206 359 2328 
Q 359 3453 968 4101 
Q 1578 4750 2638 4750 
Q 3056 4750 3426 4639 
Q 3797 4528 4122 4306 
z
" transform="scale(0.015625)"/>
       <path id="DejaVuSans-76" d="M 191 3500 
L 800 3500 
L 1894 563 
L 2988 3500 
L 3597 3500 
L 2284 0 
L 1503 0 
L 191 3500 
z
" transform="scale(0.015625)"/>
       <path id="DejaVuSans-61" d="M 2194 1759 
Q 1497 1759 1228 1600 
Q 959 1441 959 1056 
Q 959 750 1161 570 
Q 1363 391 1709 391 
Q 2188 391 2477 730 
Q 2766 1069 2766 1631 
L 2766 1759 
L 2194 1759 
z
M 3341 1997 
L 3341 0 
L 2766 0 
L 2766 531 
Q 2569 213 2275 61 
Q 1981 -91 1556 -91 
Q 1019 -91 701 211 
Q 384 513 384 1019 
Q 384 1609 779 1909 
Q 1175 2209 1959 2209 
L 2766 2209 
L 2766 2266 
Q 2766 2663 2505 2880 
Q 2244 3097 1772 3097 
Q 1472 3097 1187 3025 
Q 903 2953 641 2809 
L 641 3341 
Q 956 3463 1253 3523 
Q 1550 3584 1831 3584 
Q 2591 3584 2966 3190 
Q 3341 2797 3341 1997 
z
" transform="scale(0.015625)"/>
       <path id="DejaVuSans-6c" d="M 603 4863 
L 1178 4863 
L 1178 0 
L 603 0 
L 603 4863 
z
" transform="scale(0.015625)"/>
       <path id="DejaVuSans-75" d="M 544 1381 
L 544 3500 
L 1119 3500 
L 1119 1403 
Q 1119 906 1312 657 
Q 1506 409 1894 409 
Q 2359 409 2629 706 
Q 2900 1003 2900 1516 
L 2900 3500 
L 3475 3500 
L 3475 0 
L 2900 0 
L 2900 538 
Q 2691 219 2414 64 
Q 2138 -91 1772 -91 
Q 1169 -91 856 284 
Q 544 659 544 1381 
z
M 1991 3584 
L 1991 3584 
z
" transform="scale(0.015625)"/>
      </defs>
      <use xlink:href="#DejaVuSans-41"/>
      <use xlink:href="#DejaVuSans-44" x="68.408203"/>
      <use xlink:href="#DejaVuSans-43" x="145.410156"/>
      <use xlink:href="#DejaVuSans-20" x="215.234375"/>
      <use xlink:href="#DejaVuSans-76" x="247.021484"/>
      <use xlink:href="#DejaVuSans-61" x="306.201172"/>
      <use xlink:href="#DejaVuSans-6c" x="367.480469"/>
      <use xlink:href="#DejaVuSans-75" x="395.263672"/>
      <use xlink:href="#DejaVuSans-65" x="458.642578"/>
     </g>
    </g>
   </g>
   <g id="line2d_17">
    <path d="M 66.99517 30.984316 
L 68.569053 30.384666 
L 70.142936 33.550368 
L 71.716818 27.983131 
L 73.290701 33.19333 
L 74.864584 26.361639 
L 76.438466 34.247661 
L 78.012349 24.506253 
L 79.586232 36.066493 
L 81.160114 37.832488 
L 82.733997 23.893991 
L 84.307879 36.877988 
L 85.881762 31.76394 
L 87.455645 27.419791 
L 89.029527 33.00848 
L 90.60341 33.597995 
L 92.177293 35.856471 
L 93.751175 33.830133 
L 95.325058 35.069588 
L 96.898941 29.359816 
L 98.472823 35.108132 
L 100.046706 32.764404 
L 101.620589 37.383076 
L 103.194471 24.153134 
L 104.768354 30.14812 
L 106.342236 23.959329 
L 107.916119 29.571472 
L 109.490002 32.543287 
L 111.063884 34.584688 
L 112.637767 29.589684 
L 114.21165 30.271856 
L 115.785532 38.450941 
L 117.359415 29.662214 
L 118.933298 27.53011 
L 120.50718 29.656758 
L 122.081063 33.474952 
L 123.654945 29.370011 
L 125.228828 35.622982 
L 126.802711 39.011312 
L 128.376593 34.968122 
L 129.950476 40.343535 
L 131.524359 32.635956 
L 133.098241 25.524496 
L 134.672124 27.319652 
L 136.246007 35.881821 
L 137.819889 31.103401 
L 139.393772 29.080152 
L 140.967654 25.169559 
L 142.541537 27.246528 
L 144.11542 24.717048 
L 145.689302 24.55869 
L 147.263185 38.315113 
L 148.837068 30.755588 
L 150.41095 31.309834 
L 151.984833 29.767158 
L 153.558716 30.428435 
L 155.132598 29.100491 
L 156.706481 35.402301 
L 158.280364 34.274195 
L 159.854246 29.884288 
L 161.428129 29.032373 
L 163.002011 32.062089 
L 164.575894 28.290351 
L 166.149777 27.357277 
L 167.723659 34.647353 
L 169.297542 36.482649 
L 170.871425 28.332532 
L 172.445307 38.685419 
L 174.01919 27.984381 
L 175.593073 30.726655 
L 177.166955 34.129469 
L 178.740838 30.556238 
L 180.31472 31.603901 
L 181.888603 33.058647 
L 183.462486 33.813679 
L 185.036368 33.738948 
L 186.610251 27.273362 
L 188.184134 30.745097 
L 189.758016 29.361401 
L 191.331899 29.373288 
L 194.479664 30.137781 
L 196.053547 35.292301 
L 197.627429 35.362637 
L 199.201312 29.706686 
L 200.775195 34.15484 
L 202.349077 35.698267 
L 203.92296 29.704164 
L 205.496843 34.702995 
L 207.070725 30.346903 
L 208.644608 37.325553 
L 210.218491 28.075239 
L 211.792373 29.484298 
L 213.366256 28.483198 
L 216.514021 32.986381 
L 218.087904 32.290751 
L 219.661786 31.466544 
L 221.235669 27.777132 
L 222.809552 32.708973 
L 224.383434 35.143252 
L 225.957317 27.426687 
L 227.5312 36.300711 
L 229.105082 33.449353 
L 230.678965 32.311184 
L 232.252848 26.115421 
L 233.82673 29.988984 
L 235.400613 38.607762 
L 236.974495 30.31563 
L 238.548378 28.166114 
L 240.122261 26.419513 
L 241.696143 32.899405 
L 243.270026 34.043826 
L 244.843909 34.078864 
L 246.417791 34.950226 
L 247.991674 28.868839 
L 249.565557 35.340168 
L 251.139439 28.268791 
L 252.713322 34.813627 
L 254.287205 27.857473 
L 255.861087 30.828092 
L 257.43497 30.366514 
L 259.008852 29.704528 
L 260.582735 34.594732 
L 262.156618 26.885044 
L 263.7305 30.439163 
L 265.304383 26.199869 
L 266.878266 29.739802 
L 268.452148 40.807081 
L 270.026031 24.593616 
L 271.599914 31.692361 
L 273.173796 30.419997 
L 274.747679 40.594854 
L 276.321561 29.824415 
L 277.895444 37.150926 
L 279.469327 28.566341 
L 281.043209 35.036397 
L 282.617092 30.505037 
L 284.190975 34.520321 
L 285.764857 23.067009 
L 287.33874 24.58241 
L 290.486505 151.080208 
L 292.060388 145.913706 
L 293.63427 148.328204 
L 295.208153 146.899096 
L 296.782036 154.202783 
L 298.355918 144.144048 
L 299.929801 147.636386 
L 301.503684 145.201146 
L 303.077566 145.151583 
L 304.651449 153.063919 
L 306.225332 139.255668 
L 307.799214 147.518538 
L 309.373097 146.09371 
L 310.94698 150.628552 
L 312.520862 146.164204 
L 314.094745 144.580554 
L 315.668627 140.062569 
L 317.24251 138.179879 
L 318.816393 153.671394 
L 320.390275 155.374042 
L 321.964158 148.529848 
L 323.538041 145.452975 
L 325.111923 146.88404 
L 326.685806 150.530199 
L 328.259689 151.762469 
L 329.833571 147.63159 
L 331.407454 151.482323 
L 332.981336 147.567365 
L 334.555219 147.241386 
L 336.129102 144.650067 
L 337.702984 146.817588 
L 339.276867 93.410163 
L 340.85075 27.027189 
L 342.424632 30.798803 
L 343.998515 28.609551 
L 345.572398 37.033384 
L 347.14628 24.456694 
L 348.720163 34.092849 
L 350.294045 20.900847 
L 351.867928 30.60073 
L 353.441811 29.28232 
L 355.015693 35.385415 
L 356.589576 34.874813 
L 358.163459 35.174686 
L 359.737341 30.54311 
L 361.311224 31.109915 
L 362.885107 36.462718 
L 364.458989 32.304571 
L 366.032872 29.68893 
L 367.606755 27.980781 
L 369.180637 31.273751 
L 370.75452 29.614013 
L 372.328402 34.079184 
L 373.902285 30.671342 
L 375.476168 30.39495 
L 377.05005 32.864652 
L 378.623933 37.470146 
L 380.197816 34.090819 
L 381.771698 31.9176 
L 383.345581 30.446256 
L 384.919464 31.100276 
L 386.493346 29.76817 
L 388.067229 28.123987 
L 389.641111 29.646225 
L 391.214994 30.881373 
L 392.788877 33.352246 
L 394.362759 34.931379 
L 395.936642 30.121673 
L 397.510525 32.093345 
L 399.084407 37.877729 
L 400.65829 24.470007 
L 402.232173 33.235328 
L 403.806055 29.805484 
L 405.379938 22.968381 
L 408.527703 36.458793 
L 410.101586 35.198358 
L 411.675468 32.757643 
L 413.249351 35.829819 
L 414.823234 37.233531 
L 416.397116 32.558257 
L 417.970999 30.587508 
L 419.544882 25.048532 
L 421.118764 30.290508 
L 422.692647 32.741794 
L 424.26653 31.814215 
L 425.840412 27.680927 
L 427.414295 32.808486 
L 428.988177 35.846442 
L 430.56206 32.819428 
L 432.135943 30.253266 
L 433.709825 27.452109 
L 435.283708 37.244184 
L 436.857591 31.728868 
L 438.431473 23.250343 
L 440.005356 36.452625 
L 441.579239 31.61668 
L 443.153121 33.649458 
L 444.727004 27.360733 
L 446.300886 32.295853 
L 447.874769 30.584286 
L 449.448652 44.26324 
L 451.022534 29.059779 
L 452.596417 37.560289 
L 454.1703 27.101793 
L 455.744182 30.102118 
L 457.318065 30.410254 
L 458.891948 29.894944 
L 460.46583 33.744026 
L 462.039713 32.60818 
L 463.613596 28.463328 
L 465.187478 32.962951 
L 466.761361 38.504564 
L 468.335243 32.560614 
L 469.909126 43.437201 
L 471.483009 35.939597 
L 473.056891 39.351661 
L 474.630774 24.369578 
L 476.204657 31.927731 
L 477.778539 28.246239 
L 479.352422 32.588828 
L 480.926305 30.34874 
L 482.500187 22.146271 
L 484.07407 31.979715 
L 485.647952 29.485282 
L 487.221835 29.23773 
L 488.795718 32.864727 
L 490.3696 29.928457 
L 491.943483 29.295205 
L 493.517366 30.455048 
L 495.091248 39.743118 
L 496.665131 33.318385 
L 498.239014 28.29212 
L 499.812896 37.662509 
L 501.386779 23.663371 
L 502.960661 26.030377 
L 504.534544 33.403199 
L 506.108427 33.216883 
L 507.682309 29.993103 
L 509.256192 30.440465 
L 510.830075 29.784464 
L 512.403957 27.102858 
L 513.97784 25.604746 
L 515.551723 25.714948 
L 517.125605 30.282484 
L 518.699488 28.206687 
L 520.273371 38.208392 
L 521.847253 28.650684 
L 523.421136 27.319969 
L 524.995018 30.828469 
L 526.568901 25.993562 
L 528.142784 31.8515 
L 529.716666 32.315208 
L 531.290549 34.867758 
L 532.864432 30.303028 
L 534.438314 34.24916 
L 536.012197 37.271756 
L 537.58608 33.157283 
L 537.58608 33.157283 
" clip-path="url(#pd85ad54c46)" style="fill: none; stroke: #1f77b4; stroke-linecap: square"/>
   </g>
   <g id="line2d_18">
    <path d="M 66.99517 32.724032 
L 68.569053 31.819238 
L 70.142936 31.585901 
L 71.716818 30.646935 
L 73.290701 30.029703 
L 74.864584 31.511035 
L 76.438466 30.802002 
L 78.012349 31.451334 
L 79.586232 31.272691 
L 82.733997 31.197872 
L 84.307879 31.921508 
L 85.881762 32.082389 
L 87.455645 33.014777 
L 89.029527 32.915086 
L 90.60341 32.067819 
L 92.177293 33.189233 
L 93.751175 32.777875 
L 95.325058 33.339788 
L 98.472823 32.727087 
L 100.046706 31.76322 
L 101.620589 31.13472 
L 104.768354 30.957546 
L 106.342236 30.980533 
L 107.916119 30.496905 
L 109.490002 31.065559 
L 111.063884 30.293472 
L 112.637767 30.63117 
L 114.21165 30.582034 
L 115.785532 31.533596 
L 117.359415 31.51345 
L 118.933298 31.821419 
L 122.081063 32.801926 
L 123.654945 33.809094 
L 125.228828 33.227595 
L 126.802711 32.813823 
L 128.376593 32.792778 
L 129.950476 33.415284 
L 131.524359 33.178129 
L 133.098241 33.149143 
L 137.819889 29.902215 
L 139.393772 28.32373 
L 142.541537 29.414755 
L 144.11542 29.813773 
L 145.689302 29.202307 
L 148.837068 29.136844 
L 150.41095 30.160119 
L 151.984833 30.862885 
L 155.132598 31.826978 
L 156.706481 31.201675 
L 158.280364 30.955152 
L 159.854246 30.559896 
L 161.428129 31.047915 
L 163.002011 31.653337 
L 164.575894 31.576541 
L 166.149777 31.904853 
L 167.723659 31.275871 
L 169.297542 31.360108 
L 170.871425 31.869817 
L 172.445307 31.719232 
L 174.01919 32.050587 
L 175.593073 32.620724 
L 177.166955 32.537357 
L 178.740838 32.262987 
L 180.31472 32.15707 
L 181.888603 31.363038 
L 183.462486 31.50074 
L 185.036368 31.365403 
L 186.610251 30.932653 
L 188.184134 30.890808 
L 189.758016 31.259648 
L 191.331899 31.490047 
L 192.905782 31.079347 
L 194.479664 31.120937 
L 196.053547 31.963427 
L 197.627429 31.859334 
L 199.201312 32.393493 
L 200.775195 32.490855 
L 202.349077 33.243213 
L 203.92296 33.036958 
L 207.070725 31.768214 
L 208.644608 31.871208 
L 210.218491 31.754362 
L 211.792373 31.413611 
L 213.366256 31.589849 
L 214.940139 30.897262 
L 216.514021 31.133469 
L 218.087904 30.915239 
L 219.661786 30.850384 
L 221.235669 31.532025 
L 222.809552 32.028641 
L 224.383434 32.186097 
L 225.957317 31.499001 
L 227.5312 31.268824 
L 229.105082 31.982946 
L 230.678965 32.236796 
L 232.252848 31.78251 
L 233.82673 30.910136 
L 235.400613 31.457408 
L 236.974495 31.231719 
L 238.548378 31.29467 
L 241.696143 31.833916 
L 243.270026 32.369035 
L 244.843909 31.335138 
L 246.417791 31.784937 
L 247.991674 31.754073 
L 249.565557 32.194931 
L 251.139439 31.941642 
L 252.713322 31.507712 
L 254.287205 31.559299 
L 255.861087 30.752781 
L 257.43497 30.909813 
L 259.008852 29.995783 
L 260.582735 30.142884 
L 262.156618 30.74223 
L 263.7305 30.415844 
L 266.878266 30.507619 
L 268.452148 31.596652 
L 270.026031 31.11962 
L 271.599914 32.146208 
L 273.173796 31.958926 
L 274.747679 32.842579 
L 276.321561 32.919102 
L 277.895444 32.290426 
L 279.469327 32.137766 
L 281.043209 31.426771 
L 282.617092 37.304862 
L 287.33874 71.080055 
L 292.060388 106.19387 
L 293.63427 117.505476 
L 296.782036 141.775807 
L 298.355918 148.162108 
L 299.929801 146.979654 
L 301.503684 147.140137 
L 303.077566 146.916688 
L 304.651449 147.289633 
L 306.225332 146.485775 
L 307.799214 146.529426 
L 310.94698 145.069918 
L 312.520862 145.921899 
L 314.094745 146.152911 
L 315.668627 147.080329 
L 317.24251 146.873773 
L 320.390275 146.94297 
L 321.964158 147.502797 
L 323.538041 147.8079 
L 325.111923 148.949876 
L 326.685806 149.888625 
L 328.259689 149.245624 
L 329.833571 148.173226 
L 331.407454 148.002 
L 332.981336 142.797719 
L 347.14628 35.621253 
L 348.720163 29.818778 
L 350.294045 30.603541 
L 351.867928 31.041129 
L 353.441811 31.234485 
L 355.015693 30.642138 
L 356.589576 31.84274 
L 358.163459 31.663912 
L 359.737341 32.542721 
L 361.311224 32.280726 
L 362.885107 32.479869 
L 364.458989 31.902729 
L 366.032872 31.823166 
L 367.606755 31.372832 
L 369.180637 31.358016 
L 377.05005 32.282271 
L 380.197816 32.28034 
L 381.771698 31.68482 
L 383.345581 31.582308 
L 386.493346 31.67971 
L 388.067229 31.425833 
L 389.641111 31.028918 
L 391.214994 31.046493 
L 392.788877 31.78964 
L 394.362759 31.126613 
L 395.936642 31.473329 
L 397.510525 31.641479 
L 399.084407 30.973695 
L 400.65829 30.865537 
L 402.232173 31.176192 
L 403.806055 31.202889 
L 406.953821 31.840134 
L 408.527703 31.775714 
L 410.101586 32.584539 
L 411.675468 32.319757 
L 413.249351 31.844062 
L 414.823234 32.576274 
L 416.397116 32.870474 
L 417.970999 32.406017 
L 419.544882 31.654274 
L 422.692647 31.66102 
L 424.26653 31.21961 
L 427.414295 30.675571 
L 428.988177 31.895136 
L 430.56206 32.038972 
L 432.135943 31.089827 
L 435.283708 31.947243 
L 436.857591 32.03134 
L 438.431473 31.182769 
L 441.579239 31.163514 
L 443.153121 32.844627 
L 444.727004 32.026186 
L 446.300886 32.609329 
L 447.874769 32.994474 
L 449.448652 32.359423 
L 451.022534 32.23878 
L 452.596417 31.863329 
L 454.1703 32.501658 
L 455.744182 32.532891 
L 457.318065 32.320795 
L 458.891948 31.190766 
L 460.46583 32.135245 
L 462.039713 31.635277 
L 463.613596 33.268818 
L 465.187478 33.852566 
L 466.761361 34.746707 
L 468.335243 34.19417 
L 469.909126 34.012541 
L 471.483009 33.576346 
L 473.056891 33.988897 
L 474.630774 33.727475 
L 476.204657 32.091646 
L 477.778539 32.033556 
L 479.352422 30.638364 
L 482.500187 29.319484 
L 484.07407 29.875372 
L 485.647952 29.612119 
L 487.221835 29.833 
L 488.795718 30.548429 
L 490.3696 30.845394 
L 493.517366 32.028258 
L 495.091248 31.446067 
L 496.665131 31.125332 
L 498.239014 31.179179 
L 499.812896 31.508022 
L 502.960661 31.576353 
L 504.534544 30.580488 
L 506.108427 29.958935 
L 507.682309 29.690197 
L 509.256192 28.495441 
L 510.830075 29.157353 
L 512.403957 29.374984 
L 513.97784 29.855503 
L 515.551723 29.398883 
L 517.125605 29.13157 
L 518.699488 29.17037 
L 520.273371 28.79128 
L 521.847253 29.266144 
L 523.421136 29.93719 
L 524.995018 30.852471 
L 526.568901 30.854526 
L 528.142784 31.458773 
L 529.716666 31.36511 
L 531.290549 31.815769 
L 532.864432 33.000799 
L 534.438314 32.690035 
L 536.012197 32.925245 
L 537.58608 32.35575 
L 537.58608 32.35575 
" clip-path="url(#pd85ad54c46)" style="fill: none; stroke: #ff7f0e; stroke-width: 2; stroke-linecap: square"/>
   </g>
   <g id="patch_3">
    <path d="M 43.465625 173.779219 
L 43.465625 10.999219 
" style="fill: none; stroke: #000000; stroke-width: 0.8; stroke-linejoin: miter; stroke-linecap: square"/>
   </g>
   <g id="patch_4">
    <path d="M 561.115625 173.779219 
L 561.115625 10.999219 
" style="fill: none; stroke: #000000; stroke-width: 0.8; stroke-linejoin: miter; stroke-linecap: square"/>
   </g>
   <g id="patch_5">
    <path d="M 43.465625 173.779219 
L 561.115625 173.779219 
" style="fill: none; stroke: #000000; stroke-width: 0.8; stroke-linejoin: miter; stroke-linecap: square"/>
   </g>
   <g id="patch_6">
    <path d="M 43.465625 10.999219 
L 561.115625 10.999219 
" style="fill: none; stroke: #000000; stroke-width: 0.8; stroke-linejoin: miter; stroke-linecap: square"/>
   </g>
  </g>
 </g>
 <defs>
  <clipPath id="pd85ad54c46">
   <rect x="43.465625" y="10.999219" width="517.65" height="162.78"/>
  </clipPath>
 </defs>
</svg>
