<?xml version="1.0" encoding="utf-8" standalone="no"?>
<!DOCTYPE svg PUBLIC "-//W3C//DTD SVG 1.1//EN"
  "http://www.w3.org/Graphics/SVG/1.1/DTD/svg11.dtd">
<svg xmlns:xlink="http://www.w3.org/1999/xlink" width="424.325312pt" height="172.398125pt" viewBox="0 0 424.325312 172.398125" xmlns="http://www.w3.org/2000/svg" version="1.1">
 <metadata>
  <rdf:RDF xmlns:dc="http://purl.org/dc/elements/1.1/" xmlns:cc="http://creativecommons.org/ns#" xmlns:rdf="http://www.w3.org/1999/02/22-rdf-syntax-ns#">
   <cc:Work>
    <dc:type rdf:resource="http://purl.org/dc/dcmitype/StillImage"/>
    <dc:date>2025-08-06T18:18:53.067485</dc:date>
    <dc:format>image/svg+xml</dc:format>
    <dc:creator>
     <cc:Agent>
      <dc:title>Matplotlib v3.6.3, https://matplotlib.org/</dc:title>
     </cc:Agent>
    </dc:creator>
   </cc:Work>
  </rdf:RDF>
 </metadata>
 <defs>
  <style type="text/css">*{stroke-linejoin: round; stroke-linecap: butt}</style>
 </defs>
 <g id="figure_1">
  <g id="patch_1">
   <path d="M 0 172.398125 
L 424.325312 172.398125 
L 424.325312 0 
L 0 0 
z
" style="fill: #ffffff"/>
  </g>
  <g id="axes_1">
   <g id="patch_2">
    <path d="M 51.845313 159.319219 
L 417.125312 159.319219 
L 417.125312 10.999219 
L 51.845313 10.999219 
z
" style="fill: #ffffff"/>
   </g>
   <g id="matplotlib.axis_1">
    <g id="xtick_1">
     <g id="line2d_1">
      <defs>
       <path id="m4e80db3d34" d="M 0 0 
L 0 -3.5 
" style="stroke: #000000; stroke-width: 0.8"/>
      </defs>
      <g>
       <use xlink:href="#m4e80db3d34" x="68.448949" y="85.159219" style="stroke: #000000; stroke-width: 0.8"/>
      </g>
     </g>
     <g id="text_1">
      <!-- 0.0 -->
      <g transform="translate(60.497386 96.257656) scale(0.1 -0.1)">
       <defs>
        <path id="DejaVuSans-30" d="M 2034 4250 
Q 1547 4250 1301 3770 
Q 1056 3291 1056 2328 
Q 1056 1369 1301 889 
Q 1547 409 2034 409 
Q 2525 409 2770 889 
Q 3016 1369 3016 2328 
Q 3016 3291 2770 3770 
Q 2525 4250 2034 4250 
z
M 2034 4750 
Q 2819 4750 3233 4129 
Q 3647 3509 3647 2328 
Q 3647 1150 3233 529 
Q 2819 -91 2034 -91 
Q 1250 -91 836 529 
Q 422 1150 422 2328 
Q 422 3509 836 4129 
Q 1250 4750 2034 4750 
z
" transform="scale(0.015625)"/>
        <path id="DejaVuSans-2e" d="M 684 794 
L 1344 794 
L 1344 0 
L 684 0 
L 684 794 
z
" transform="scale(0.015625)"/>
       </defs>
       <use xlink:href="#DejaVuSans-30"/>
       <use xlink:href="#DejaVuSans-2e" x="63.623047"/>
       <use xlink:href="#DejaVuSans-30" x="95.410156"/>
      </g>
     </g>
    </g>
    <g id="xtick_2">
     <g id="line2d_2">
      <g>
       <use xlink:href="#m4e80db3d34" x="123.831325" y="85.159219" style="stroke: #000000; stroke-width: 0.8"/>
      </g>
     </g>
     <g id="text_2">
      <!-- 0.5 -->
      <g transform="translate(115.879762 96.257656) scale(0.1 -0.1)">
       <defs>
        <path id="DejaVuSans-35" d="M 691 4666 
L 3169 4666 
L 3169 4134 
L 1269 4134 
L 1269 2991 
Q 1406 3038 1543 3061 
Q 1681 3084 1819 3084 
Q 2600 3084 3056 2656 
Q 3513 2228 3513 1497 
Q 3513 744 3044 326 
Q 2575 -91 1722 -91 
Q 1428 -91 1123 -41 
Q 819 9 494 109 
L 494 744 
Q 775 591 1075 516 
Q 1375 441 1709 441 
Q 2250 441 2565 725 
Q 2881 1009 2881 1497 
Q 2881 1984 2565 2268 
Q 2250 2553 1709 2553 
Q 1456 2553 1204 2497 
Q 953 2441 691 2322 
L 691 4666 
z
" transform="scale(0.015625)"/>
       </defs>
       <use xlink:href="#DejaVuSans-30"/>
       <use xlink:href="#DejaVuSans-2e" x="63.623047"/>
       <use xlink:href="#DejaVuSans-35" x="95.410156"/>
      </g>
     </g>
    </g>
    <g id="xtick_3">
     <g id="line2d_3">
      <g>
       <use xlink:href="#m4e80db3d34" x="179.213701" y="85.159219" style="stroke: #000000; stroke-width: 0.8"/>
      </g>
     </g>
     <g id="text_3">
      <!-- 1.0 -->
      <g transform="translate(171.262139 96.257656) scale(0.1 -0.1)">
       <defs>
        <path id="DejaVuSans-31" d="M 794 531 
L 1825 531 
L 1825 4091 
L 703 3866 
L 703 4441 
L 1819 4666 
L 2450 4666 
L 2450 531 
L 3481 531 
L 3481 0 
L 794 0 
L 794 531 
z
" transform="scale(0.015625)"/>
       </defs>
       <use xlink:href="#DejaVuSans-31"/>
       <use xlink:href="#DejaVuSans-2e" x="63.623047"/>
       <use xlink:href="#DejaVuSans-30" x="95.410156"/>
      </g>
     </g>
    </g>
    <g id="xtick_4">
     <g id="line2d_4">
      <g>
       <use xlink:href="#m4e80db3d34" x="234.596077" y="85.159219" style="stroke: #000000; stroke-width: 0.8"/>
      </g>
     </g>
     <g id="text_4">
      <!-- 1.5 -->
      <g transform="translate(226.644515 96.257656) scale(0.1 -0.1)">
       <use xlink:href="#DejaVuSans-31"/>
       <use xlink:href="#DejaVuSans-2e" x="63.623047"/>
       <use xlink:href="#DejaVuSans-35" x="95.410156"/>
      </g>
     </g>
    </g>
    <g id="xtick_5">
     <g id="line2d_5">
      <g>
       <use xlink:href="#m4e80db3d34" x="289.978453" y="85.159219" style="stroke: #000000; stroke-width: 0.8"/>
      </g>
     </g>
     <g id="text_5">
      <!-- 2.0 -->
      <g transform="translate(282.026891 96.257656) scale(0.1 -0.1)">
       <defs>
        <path id="DejaVuSans-32" d="M 1228 531 
L 3431 531 
L 3431 0 
L 469 0 
L 469 531 
Q 828 903 1448 1529 
Q 2069 2156 2228 2338 
Q 2531 2678 2651 2914 
Q 2772 3150 2772 3378 
Q 2772 3750 2511 3984 
Q 2250 4219 1831 4219 
Q 1534 4219 1204 4116 
Q 875 4013 500 3803 
L 500 4441 
Q 881 4594 1212 4672 
Q 1544 4750 1819 4750 
Q 2544 4750 2975 4387 
Q 3406 4025 3406 3419 
Q 3406 3131 3298 2873 
Q 3191 2616 2906 2266 
Q 2828 2175 2409 1742 
Q 1991 1309 1228 531 
z
" transform="scale(0.015625)"/>
       </defs>
       <use xlink:href="#DejaVuSans-32"/>
       <use xlink:href="#DejaVuSans-2e" x="63.623047"/>
       <use xlink:href="#DejaVuSans-30" x="95.410156"/>
      </g>
     </g>
    </g>
    <g id="xtick_6">
     <g id="line2d_6">
      <g>
       <use xlink:href="#m4e80db3d34" x="345.36083" y="85.159219" style="stroke: #000000; stroke-width: 0.8"/>
      </g>
     </g>
     <g id="text_6">
      <!-- 2.5 -->
      <g transform="translate(337.409267 96.257656) scale(0.1 -0.1)">
       <use xlink:href="#DejaVuSans-32"/>
       <use xlink:href="#DejaVuSans-2e" x="63.623047"/>
       <use xlink:href="#DejaVuSans-35" x="95.410156"/>
      </g>
     </g>
    </g>
    <g id="xtick_7">
     <g id="line2d_7">
      <g>
       <use xlink:href="#m4e80db3d34" x="400.743206" y="85.159219" style="stroke: #000000; stroke-width: 0.8"/>
      </g>
     </g>
     <g id="text_7">
      <!-- 3.0 -->
      <g transform="translate(392.791643 96.257656) scale(0.1 -0.1)">
       <defs>
        <path id="DejaVuSans-33" d="M 2597 2516 
Q 3050 2419 3304 2112 
Q 3559 1806 3559 1356 
Q 3559 666 3084 287 
Q 2609 -91 1734 -91 
Q 1441 -91 1130 -33 
Q 819 25 488 141 
L 488 750 
Q 750 597 1062 519 
Q 1375 441 1716 441 
Q 2309 441 2620 675 
Q 2931 909 2931 1356 
Q 2931 1769 2642 2001 
Q 2353 2234 1838 2234 
L 1294 2234 
L 1294 2753 
L 1863 2753 
Q 2328 2753 2575 2939 
Q 2822 3125 2822 3475 
Q 2822 3834 2567 4026 
Q 2313 4219 1838 4219 
Q 1578 4219 1281 4162 
Q 984 4106 628 3988 
L 628 4550 
Q 988 4650 1302 4700 
Q 1616 4750 1894 4750 
Q 2613 4750 3031 4423 
Q 3450 4097 3450 3541 
Q 3450 3153 3228 2886 
Q 3006 2619 2597 2516 
z
" transform="scale(0.015625)"/>
       </defs>
       <use xlink:href="#DejaVuSans-33"/>
       <use xlink:href="#DejaVuSans-2e" x="63.623047"/>
       <use xlink:href="#DejaVuSans-30" x="95.410156"/>
      </g>
     </g>
    </g>
    <g id="text_8">
     <!-- Time (s) -->
     <g transform="translate(214.156406 109.935781) scale(0.1 -0.1)">
      <defs>
       <path id="DejaVuSans-54" d="M -19 4666 
L 3928 4666 
L 3928 4134 
L 2272 4134 
L 2272 0 
L 1638 0 
L 1638 4134 
L -19 4134 
L -19 4666 
z
" transform="scale(0.015625)"/>
       <path id="DejaVuSans-69" d="M 603 3500 
L 1178 3500 
L 1178 0 
L 603 0 
L 603 3500 
z
M 603 4863 
L 1178 4863 
L 1178 4134 
L 603 4134 
L 603 4863 
z
" transform="scale(0.015625)"/>
       <path id="DejaVuSans-6d" d="M 3328 2828 
Q 3544 3216 3844 3400 
Q 4144 3584 4550 3584 
Q 5097 3584 5394 3201 
Q 5691 2819 5691 2113 
L 5691 0 
L 5113 0 
L 5113 2094 
Q 5113 2597 4934 2840 
Q 4756 3084 4391 3084 
Q 3944 3084 3684 2787 
Q 3425 2491 3425 1978 
L 3425 0 
L 2847 0 
L 2847 2094 
Q 2847 2600 2669 2842 
Q 2491 3084 2119 3084 
Q 1678 3084 1418 2786 
Q 1159 2488 1159 1978 
L 1159 0 
L 581 0 
L 581 3500 
L 1159 3500 
L 1159 2956 
Q 1356 3278 1631 3431 
Q 1906 3584 2284 3584 
Q 2666 3584 2933 3390 
Q 3200 3197 3328 2828 
z
" transform="scale(0.015625)"/>
       <path id="DejaVuSans-65" d="M 3597 1894 
L 3597 1613 
L 953 1613 
Q 991 1019 1311 708 
Q 1631 397 2203 397 
Q 2534 397 2845 478 
Q 3156 559 3463 722 
L 3463 178 
Q 3153 47 2828 -22 
Q 2503 -91 2169 -91 
Q 1331 -91 842 396 
Q 353 884 353 1716 
Q 353 2575 817 3079 
Q 1281 3584 2069 3584 
Q 2775 3584 3186 3129 
Q 3597 2675 3597 1894 
z
M 3022 2063 
Q 3016 2534 2758 2815 
Q 2500 3097 2075 3097 
Q 1594 3097 1305 2825 
Q 1016 2553 972 2059 
L 3022 2063 
z
" transform="scale(0.015625)"/>
       <path id="DejaVuSans-20" transform="scale(0.015625)"/>
       <path id="DejaVuSans-28" d="M 1984 4856 
Q 1566 4138 1362 3434 
Q 1159 2731 1159 2009 
Q 1159 1288 1364 580 
Q 1569 -128 1984 -844 
L 1484 -844 
Q 1016 -109 783 600 
Q 550 1309 550 2009 
Q 550 2706 781 3412 
Q 1013 4119 1484 4856 
L 1984 4856 
z
" transform="scale(0.015625)"/>
       <path id="DejaVuSans-73" d="M 2834 3397 
L 2834 2853 
Q 2591 2978 2328 3040 
Q 2066 3103 1784 3103 
Q 1356 3103 1142 2972 
Q 928 2841 928 2578 
Q 928 2378 1081 2264 
Q 1234 2150 1697 2047 
L 1894 2003 
Q 2506 1872 2764 1633 
Q 3022 1394 3022 966 
Q 3022 478 2636 193 
Q 2250 -91 1575 -91 
Q 1294 -91 989 -36 
Q 684 19 347 128 
L 347 722 
Q 666 556 975 473 
Q 1284 391 1588 391 
Q 1994 391 2212 530 
Q 2431 669 2431 922 
Q 2431 1156 2273 1281 
Q 2116 1406 1581 1522 
L 1381 1569 
Q 847 1681 609 1914 
Q 372 2147 372 2553 
Q 372 3047 722 3315 
Q 1072 3584 1716 3584 
Q 2034 3584 2315 3537 
Q 2597 3491 2834 3397 
z
" transform="scale(0.015625)"/>
       <path id="DejaVuSans-29" d="M 513 4856 
L 1013 4856 
Q 1481 4119 1714 3412 
Q 1947 2706 1947 2009 
Q 1947 1309 1714 600 
Q 1481 -109 1013 -844 
L 513 -844 
Q 928 -128 1133 580 
Q 1338 1288 1338 2009 
Q 1338 2731 1133 3434 
Q 928 4138 513 4856 
z
" transform="scale(0.015625)"/>
      </defs>
      <use xlink:href="#DejaVuSans-54"/>
      <use xlink:href="#DejaVuSans-69" x="57.958984"/>
      <use xlink:href="#DejaVuSans-6d" x="85.742188"/>
      <use xlink:href="#DejaVuSans-65" x="183.154297"/>
      <use xlink:href="#DejaVuSans-20" x="244.677734"/>
      <use xlink:href="#DejaVuSans-28" x="276.464844"/>
      <use xlink:href="#DejaVuSans-73" x="315.478516"/>
      <use xlink:href="#DejaVuSans-29" x="367.578125"/>
     </g>
    </g>
   </g>
   <g id="matplotlib.axis_2">
    <g id="ytick_1">
     <g id="line2d_8">
      <defs>
       <path id="mb24fca0a6a" d="M 0 0 
L 3.5 0 
" style="stroke: #000000; stroke-width: 0.8"/>
      </defs>
      <g>
       <use xlink:href="#mb24fca0a6a" x="51.845313" y="159.319219" style="stroke: #000000; stroke-width: 0.8"/>
      </g>
     </g>
     <g id="text_9">
      <!-- −150 -->
      <g transform="translate(20.878125 163.118437) scale(0.1 -0.1)">
       <defs>
        <path id="DejaVuSans-2212" d="M 678 2272 
L 4684 2272 
L 4684 1741 
L 678 1741 
L 678 2272 
z
" transform="scale(0.015625)"/>
       </defs>
       <use xlink:href="#DejaVuSans-2212"/>
       <use xlink:href="#DejaVuSans-31" x="83.789062"/>
       <use xlink:href="#DejaVuSans-35" x="147.412109"/>
       <use xlink:href="#DejaVuSans-30" x="211.035156"/>
      </g>
     </g>
    </g>
    <g id="ytick_2">
     <g id="line2d_9">
      <g>
       <use xlink:href="#mb24fca0a6a" x="51.845313" y="134.599219" style="stroke: #000000; stroke-width: 0.8"/>
      </g>
     </g>
     <g id="text_10">
      <!-- −100 -->
      <g transform="translate(20.878125 138.398437) scale(0.1 -0.1)">
       <use xlink:href="#DejaVuSans-2212"/>
       <use xlink:href="#DejaVuSans-31" x="83.789062"/>
       <use xlink:href="#DejaVuSans-30" x="147.412109"/>
       <use xlink:href="#DejaVuSans-30" x="211.035156"/>
      </g>
     </g>
    </g>
    <g id="ytick_3">
     <g id="line2d_10">
      <g>
       <use xlink:href="#mb24fca0a6a" x="51.845313" y="109.879219" style="stroke: #000000; stroke-width: 0.8"/>
      </g>
     </g>
     <g id="text_11">
      <!-- −50 -->
      <g transform="translate(27.240625 113.678437) scale(0.1 -0.1)">
       <use xlink:href="#DejaVuSans-2212"/>
       <use xlink:href="#DejaVuSans-35" x="83.789062"/>
       <use xlink:href="#DejaVuSans-30" x="147.412109"/>
      </g>
     </g>
    </g>
    <g id="ytick_4">
     <g id="line2d_11">
      <g>
       <use xlink:href="#mb24fca0a6a" x="51.845313" y="85.159219" style="stroke: #000000; stroke-width: 0.8"/>
      </g>
     </g>
     <g id="text_12">
      <!-- 0 -->
      <g transform="translate(41.982813 88.958437) scale(0.1 -0.1)">
       <use xlink:href="#DejaVuSans-30"/>
      </g>
     </g>
    </g>
    <g id="ytick_5">
     <g id="line2d_12">
      <g>
       <use xlink:href="#mb24fca0a6a" x="51.845313" y="60.439219" style="stroke: #000000; stroke-width: 0.8"/>
      </g>
     </g>
     <g id="text_13">
      <!-- 50 -->
      <g transform="translate(35.620313 64.238437) scale(0.1 -0.1)">
       <use xlink:href="#DejaVuSans-35"/>
       <use xlink:href="#DejaVuSans-30" x="63.623047"/>
      </g>
     </g>
    </g>
    <g id="ytick_6">
     <g id="line2d_13">
      <g>
       <use xlink:href="#mb24fca0a6a" x="51.845313" y="35.719219" style="stroke: #000000; stroke-width: 0.8"/>
      </g>
     </g>
     <g id="text_14">
      <!-- 100 -->
      <g transform="translate(29.257813 39.518437) scale(0.1 -0.1)">
       <use xlink:href="#DejaVuSans-31"/>
       <use xlink:href="#DejaVuSans-30" x="63.623047"/>
       <use xlink:href="#DejaVuSans-30" x="127.246094"/>
      </g>
     </g>
    </g>
    <g id="ytick_7">
     <g id="line2d_14">
      <g>
       <use xlink:href="#mb24fca0a6a" x="51.845313" y="10.999219" style="stroke: #000000; stroke-width: 0.8"/>
      </g>
     </g>
     <g id="text_15">
      <!-- 150 -->
      <g transform="translate(29.257813 14.798437) scale(0.1 -0.1)">
       <use xlink:href="#DejaVuSans-31"/>
       <use xlink:href="#DejaVuSans-35" x="63.623047"/>
       <use xlink:href="#DejaVuSans-30" x="127.246094"/>
      </g>
     </g>
    </g>
    <g id="text_16">
     <!-- ADC value (relative to baseline) -->
     <g transform="translate(14.798437 164.656875) rotate(-90) scale(0.1 -0.1)">
      <defs>
       <path id="DejaVuSans-41" d="M 2188 4044 
L 1331 1722 
L 3047 1722 
L 2188 4044 
z
M 1831 4666 
L 2547 4666 
L 4325 0 
L 3669 0 
L 3244 1197 
L 1141 1197 
L 716 0 
L 50 0 
L 1831 4666 
z
" transform="scale(0.015625)"/>
       <path id="DejaVuSans-44" d="M 1259 4147 
L 1259 519 
L 2022 519 
Q 2988 519 3436 956 
Q 3884 1394 3884 2338 
Q 3884 3275 3436 3711 
Q 2988 4147 2022 4147 
L 1259 4147 
z
M 628 4666 
L 1925 4666 
Q 3281 4666 3915 4102 
Q 4550 3538 4550 2338 
Q 4550 1131 3912 565 
Q 3275 0 1925 0 
L 628 0 
L 628 4666 
z
" transform="scale(0.015625)"/>
       <path id="DejaVuSans-43" d="M 4122 4306 
L 4122 3641 
Q 3803 3938 3442 4084 
Q 3081 4231 2675 4231 
Q 1875 4231 1450 3742 
Q 1025 3253 1025 2328 
Q 1025 1406 1450 917 
Q 1875 428 2675 428 
Q 3081 428 3442 575 
Q 3803 722 4122 1019 
L 4122 359 
Q 3791 134 3420 21 
Q 3050 -91 2638 -91 
Q 1578 -91 968 557 
Q 359 1206 359 2328 
Q 359 3453 968 4101 
Q 1578 4750 2638 4750 
Q 3056 4750 3426 4639 
Q 3797 4528 4122 4306 
z
" transform="scale(0.015625)"/>
       <path id="DejaVuSans-76" d="M 191 3500 
L 800 3500 
L 1894 563 
L 2988 3500 
L 3597 3500 
L 2284 0 
L 1503 0 
L 191 3500 
z
" transform="scale(0.015625)"/>
       <path id="DejaVuSans-61" d="M 2194 1759 
Q 1497 1759 1228 1600 
Q 959 1441 959 1056 
Q 959 750 1161 570 
Q 1363 391 1709 391 
Q 2188 391 2477 730 
Q 2766 1069 2766 1631 
L 2766 1759 
L 2194 1759 
z
M 3341 1997 
L 3341 0 
L 2766 0 
L 2766 531 
Q 2569 213 2275 61 
Q 1981 -91 1556 -91 
Q 1019 -91 701 211 
Q 384 513 384 1019 
Q 384 1609 779 1909 
Q 1175 2209 1959 2209 
L 2766 2209 
L 2766 2266 
Q 2766 2663 2505 2880 
Q 2244 3097 1772 3097 
Q 1472 3097 1187 3025 
Q 903 2953 641 2809 
L 641 3341 
Q 956 3463 1253 3523 
Q 1550 3584 1831 3584 
Q 2591 3584 2966 3190 
Q 3341 2797 3341 1997 
z
" transform="scale(0.015625)"/>
       <path id="DejaVuSans-6c" d="M 603 4863 
L 1178 4863 
L 1178 0 
L 603 0 
L 603 4863 
z
" transform="scale(0.015625)"/>
       <path id="DejaVuSans-75" d="M 544 1381 
L 544 3500 
L 1119 3500 
L 1119 1403 
Q 1119 906 1312 657 
Q 1506 409 1894 409 
Q 2359 409 2629 706 
Q 2900 1003 2900 1516 
L 2900 3500 
L 3475 3500 
L 3475 0 
L 2900 0 
L 2900 538 
Q 2691 219 2414 64 
Q 2138 -91 1772 -91 
Q 1169 -91 856 284 
Q 544 659 544 1381 
z
M 1991 3584 
L 1991 3584 
z
" transform="scale(0.015625)"/>
       <path id="DejaVuSans-72" d="M 2631 2963 
Q 2534 3019 2420 3045 
Q 2306 3072 2169 3072 
Q 1681 3072 1420 2755 
Q 1159 2438 1159 1844 
L 1159 0 
L 581 0 
L 581 3500 
L 1159 3500 
L 1159 2956 
Q 1341 3275 1631 3429 
Q 1922 3584 2338 3584 
Q 2397 3584 2469 3576 
Q 2541 3569 2628 3553 
L 2631 2963 
z
" transform="scale(0.015625)"/>
       <path id="DejaVuSans-74" d="M 1172 4494 
L 1172 3500 
L 2356 3500 
L 2356 3053 
L 1172 3053 
L 1172 1153 
Q 1172 725 1289 603 
Q 1406 481 1766 481 
L 2356 481 
L 2356 0 
L 1766 0 
Q 1100 0 847 248 
Q 594 497 594 1153 
L 594 3053 
L 172 3053 
L 172 3500 
L 594 3500 
L 594 4494 
L 1172 4494 
z
" transform="scale(0.015625)"/>
       <path id="DejaVuSans-6f" d="M 1959 3097 
Q 1497 3097 1228 2736 
Q 959 2375 959 1747 
Q 959 1119 1226 758 
Q 1494 397 1959 397 
Q 2419 397 2687 759 
Q 2956 1122 2956 1747 
Q 2956 2369 2687 2733 
Q 2419 3097 1959 3097 
z
M 1959 3584 
Q 2709 3584 3137 3096 
Q 3566 2609 3566 1747 
Q 3566 888 3137 398 
Q 2709 -91 1959 -91 
Q 1206 -91 779 398 
Q 353 888 353 1747 
Q 353 2609 779 3096 
Q 1206 3584 1959 3584 
z
" transform="scale(0.015625)"/>
       <path id="DejaVuSans-62" d="M 3116 1747 
Q 3116 2381 2855 2742 
Q 2594 3103 2138 3103 
Q 1681 3103 1420 2742 
Q 1159 2381 1159 1747 
Q 1159 1113 1420 752 
Q 1681 391 2138 391 
Q 2594 391 2855 752 
Q 3116 1113 3116 1747 
z
M 1159 2969 
Q 1341 3281 1617 3432 
Q 1894 3584 2278 3584 
Q 2916 3584 3314 3078 
Q 3713 2572 3713 1747 
Q 3713 922 3314 415 
Q 2916 -91 2278 -91 
Q 1894 -91 1617 61 
Q 1341 213 1159 525 
L 1159 0 
L 581 0 
L 581 4863 
L 1159 4863 
L 1159 2969 
z
" transform="scale(0.015625)"/>
       <path id="DejaVuSans-6e" d="M 3513 2113 
L 3513 0 
L 2938 0 
L 2938 2094 
Q 2938 2591 2744 2837 
Q 2550 3084 2163 3084 
Q 1697 3084 1428 2787 
Q 1159 2491 1159 1978 
L 1159 0 
L 581 0 
L 581 3500 
L 1159 3500 
L 1159 2956 
Q 1366 3272 1645 3428 
Q 1925 3584 2291 3584 
Q 2894 3584 3203 3211 
Q 3513 2838 3513 2113 
z
" transform="scale(0.015625)"/>
      </defs>
      <use xlink:href="#DejaVuSans-41"/>
      <use xlink:href="#DejaVuSans-44" x="68.408203"/>
      <use xlink:href="#DejaVuSans-43" x="145.410156"/>
      <use xlink:href="#DejaVuSans-20" x="215.234375"/>
      <use xlink:href="#DejaVuSans-76" x="247.021484"/>
      <use xlink:href="#DejaVuSans-61" x="306.201172"/>
      <use xlink:href="#DejaVuSans-6c" x="367.480469"/>
      <use xlink:href="#DejaVuSans-75" x="395.263672"/>
      <use xlink:href="#DejaVuSans-65" x="458.642578"/>
      <use xlink:href="#DejaVuSans-20" x="520.166016"/>
      <use xlink:href="#DejaVuSans-28" x="551.953125"/>
      <use xlink:href="#DejaVuSans-72" x="590.966797"/>
      <use xlink:href="#DejaVuSans-65" x="629.830078"/>
      <use xlink:href="#DejaVuSans-6c" x="691.353516"/>
      <use xlink:href="#DejaVuSans-61" x="719.136719"/>
      <use xlink:href="#DejaVuSans-74" x="780.416016"/>
      <use xlink:href="#DejaVuSans-69" x="819.625"/>
      <use xlink:href="#DejaVuSans-76" x="847.408203"/>
      <use xlink:href="#DejaVuSans-65" x="906.587891"/>
      <use xlink:href="#DejaVuSans-20" x="968.111328"/>
      <use xlink:href="#DejaVuSans-74" x="999.898438"/>
      <use xlink:href="#DejaVuSans-6f" x="1039.107422"/>
      <use xlink:href="#DejaVuSans-20" x="1100.289062"/>
      <use xlink:href="#DejaVuSans-62" x="1132.076172"/>
      <use xlink:href="#DejaVuSans-61" x="1195.552734"/>
      <use xlink:href="#DejaVuSans-73" x="1256.832031"/>
      <use xlink:href="#DejaVuSans-65" x="1308.931641"/>
      <use xlink:href="#DejaVuSans-6c" x="1370.455078"/>
      <use xlink:href="#DejaVuSans-69" x="1398.238281"/>
      <use xlink:href="#DejaVuSans-6e" x="1426.021484"/>
      <use xlink:href="#DejaVuSans-65" x="1489.400391"/>
      <use xlink:href="#DejaVuSans-29" x="1550.923828"/>
     </g>
    </g>
   </g>
   <g id="line2d_15">
    <path d="M 68.448949 84.959237 
L 68.670478 83.181811 
L 68.892008 89.098238 
L 69.113537 82.415898 
L 69.556596 91.426539 
L 69.999655 82.791734 
L 70.221185 83.845103 
L 70.442714 89.697718 
L 70.664244 82.712256 
L 70.885773 85.507225 
L 71.107303 83.477972 
L 71.328832 83.845091 
L 71.550362 89.734658 
L 71.771891 83.770955 
L 71.993421 87.559579 
L 72.21495 79.040606 
L 72.879539 89.047147 
L 73.101068 84.943926 
L 73.322598 84.52681 
L 73.544127 89.940851 
L 73.765657 76.365384 
L 73.987186 83.599702 
L 74.208716 78.465606 
L 74.430245 89.560613 
L 74.651775 78.68951 
L 74.873304 90.54211 
L 75.094834 87.734947 
L 75.316364 83.013715 
L 75.537893 84.969344 
L 75.759423 94.485872 
L 75.980952 89.532025 
L 76.424011 76.901272 
L 76.86707 86.251658 
L 77.0886 82.008855 
L 77.310129 89.683171 
L 77.531659 83.142384 
L 77.753188 90.488694 
L 77.974718 85.19624 
L 78.196247 85.676182 
L 78.417777 81.986806 
L 78.639306 86.357502 
L 78.860836 80.405058 
L 79.082365 85.937386 
L 79.303895 81.85058 
L 79.525424 82.048049 
L 79.746954 92.440251 
L 79.968483 85.010711 
L 80.190013 85.017116 
L 80.411542 88.239291 
L 80.633072 84.449613 
L 80.854601 90.916148 
L 81.076131 82.959395 
L 81.29766 83.142941 
L 81.51919 83.970897 
L 81.740719 75.363833 
L 81.962249 83.76563 
L 82.183778 84.892357 
L 82.405308 88.055472 
L 82.626837 83.983966 
L 82.848367 88.963238 
L 83.069896 80.128922 
L 83.291426 87.720782 
L 83.512955 84.53244 
L 83.734485 77.288042 
L 84.177544 84.199449 
L 84.399073 79.701359 
L 84.620603 85.375009 
L 84.842132 82.013909 
L 85.285191 88.740408 
L 85.506721 83.45741 
L 85.72825 81.462491 
L 86.171309 89.498555 
L 86.392839 87.24834 
L 86.614368 94.571706 
L 86.835898 87.562729 
L 87.057427 89.412206 
L 87.278957 77.160202 
L 87.500486 87.393414 
L 87.722016 91.261812 
L 87.943545 81.714865 
L 88.165075 85.852211 
L 88.608134 84.413085 
L 88.829663 84.331342 
L 89.051193 86.640223 
L 89.272722 81.383195 
L 89.494252 83.08967 
L 89.715781 87.12028 
L 89.937311 85.837396 
L 90.15884 88.894385 
L 90.38037 84.048343 
L 90.601899 82.239304 
L 91.044958 82.727797 
L 91.266488 85.659823 
L 91.488017 78.914455 
L 91.709547 85.978664 
L 91.931076 85.040297 
L 92.152606 86.488877 
L 92.374135 84.837804 
L 92.595665 86.11054 
L 92.817194 77.121543 
L 93.260253 91.815681 
L 93.481783 86.875326 
L 93.703312 90.760682 
L 93.924842 81.679042 
L 94.146371 79.722428 
L 94.367901 86.943184 
L 94.58943 82.732574 
L 94.81096 85.99043 
L 95.032489 83.545267 
L 95.254019 78.307236 
L 95.475548 86.541355 
L 95.697078 90.036522 
L 95.918607 82.3183 
L 96.140137 83.116122 
L 96.361666 82.494199 
L 96.583196 81.099384 
L 97.026255 92.9352 
L 97.247784 81.042226 
L 97.690843 89.934729 
L 97.912373 89.78004 
L 98.133902 80.696277 
L 98.355432 84.443987 
L 98.576961 83.961181 
L 98.798491 81.795769 
L 99.02002 87.836497 
L 99.24155 89.609272 
L 99.463079 88.532812 
L 99.684609 89.528032 
L 99.906139 86.310561 
L 100.127668 88.683206 
L 100.349198 85.006409 
L 100.570727 87.061073 
L 100.792257 85.475554 
L 101.235316 79.616888 
L 101.456845 79.005173 
L 101.678375 84.704679 
L 101.899904 84.319252 
L 102.121434 87.169964 
L 102.342963 81.180359 
L 102.564493 79.10068 
L 102.786022 87.507033 
L 103.007552 82.137028 
L 103.229081 86.46272 
L 103.450611 85.836013 
L 103.67214 84.430336 
L 103.89367 86.745953 
L 104.115199 81.618902 
L 104.336729 91.075614 
L 104.779788 85.631515 
L 105.001317 89.291705 
L 105.222847 83.732823 
L 105.444376 91.150968 
L 105.665906 84.94098 
L 105.887435 90.855754 
L 106.552024 76.443682 
L 106.773553 80.896959 
L 106.995083 78.762706 
L 107.216612 84.890375 
L 107.438142 76.79106 
L 107.659671 86.113445 
L 107.881201 86.15671 
L 108.10273 90.230113 
L 108.545789 80.992018 
L 108.767319 87.666254 
L 108.988848 86.625025 
L 109.210378 86.992632 
L 109.431907 86.47018 
L 109.653437 87.494303 
L 109.874966 90.498896 
L 110.096496 79.697214 
L 110.318025 92.957897 
L 110.982614 81.15829 
L 111.204143 85.984277 
L 111.425673 86.279514 
L 111.647202 84.963529 
L 111.868732 86.19276 
L 112.090261 81.691527 
L 112.311791 87.069101 
L 112.53332 89.056746 
L 112.976379 84.77846 
L 113.197909 80.297434 
L 113.419438 78.831383 
L 113.862497 90.950358 
L 114.084027 90.632687 
L 114.305556 76.753145 
L 114.527086 86.752649 
L 114.748615 83.348108 
L 114.970145 77.575974 
L 115.191674 87.849215 
L 115.413204 85.928798 
L 115.856263 89.493786 
L 116.077792 81.996026 
L 116.299322 80.944163 
L 116.520851 92.570229 
L 116.742381 81.276357 
L 116.96391 86.092516 
L 117.18544 84.43294 
L 117.406969 84.376607 
L 117.628499 90.326841 
L 117.850028 86.388775 
L 118.071558 89.078479 
L 118.293087 77.584016 
L 118.514617 76.513752 
L 118.957676 89.822226 
L 119.179205 80.586786 
L 119.400735 85.910714 
L 119.622264 78.255637 
L 119.843794 77.37254 
L 120.065323 78.542539 
L 120.286853 86.722549 
L 120.508382 89.106804 
L 120.729912 87.781714 
L 120.951441 85.540283 
L 121.172971 88.813062 
L 121.3945 80.439208 
L 122.059089 86.742853 
L 122.502148 79.707294 
L 122.723677 92.791945 
L 122.945207 84.234202 
L 123.388266 88.102796 
L 123.831325 84.627177 
L 124.052854 77.764713 
L 124.274384 84.933546 
L 124.495914 86.859032 
L 124.717443 90.013001 
L 124.938973 82.097897 
L 125.160502 88.133018 
L 125.603561 82.338818 
L 126.04662 86.68683 
L 126.26815 85.84236 
L 126.489679 81.606069 
L 126.711209 85.236884 
L 127.154268 83.486768 
L 127.375797 86.482389 
L 127.597327 83.862154 
L 127.818856 86.254054 
L 128.040386 80.674642 
L 128.261915 83.174459 
L 128.483445 92.003051 
L 128.926504 80.772211 
L 129.148033 86.001146 
L 129.369563 86.83036 
L 129.591092 81.229001 
L 129.812622 89.441222 
L 130.034151 84.901993 
L 130.47721 81.789675 
L 130.69874 89.246325 
L 130.920269 90.088237 
L 131.141799 79.247947 
L 131.363328 88.238033 
L 131.584858 85.51473 
L 131.806387 75.543242 
L 132.249446 93.868825 
L 132.470976 74.136853 
L 132.692505 81.154265 
L 132.914035 83.740129 
L 133.135564 74.175096 
L 133.357094 85.45691 
L 133.578623 79.440265 
L 133.800153 85.109937 
L 134.021682 86.249448 
L 134.243212 82.657498 
L 134.464741 81.661288 
L 134.686271 80.087199 
L 134.9078 80.434668 
L 135.12933 87.131759 
L 135.350859 85.47856 
L 135.572389 77.49455 
L 135.793918 82.751146 
L 136.015448 84.773433 
L 136.236977 79.829867 
L 136.458507 79.621303 
L 136.680036 80.057095 
L 136.901566 87.31949 
L 137.123095 86.681127 
L 137.344625 82.184377 
L 137.566154 80.443177 
L 137.787684 89.885928 
L 138.009213 86.958928 
L 138.230743 86.067687 
L 138.452272 81.175355 
L 138.673802 89.442711 
L 138.895331 74.460547 
L 139.116861 84.803037 
L 139.33839 82.706665 
L 139.55992 76.339657 
L 139.781449 82.670717 
L 140.002979 82.172483 
L 140.224508 85.839187 
L 140.446038 83.279323 
L 140.667567 89.310149 
L 140.889097 85.434288 
L 141.110626 84.984713 
L 141.332156 89.047066 
L 141.553685 81.150426 
L 141.775215 83.341481 
L 141.996744 92.487946 
L 142.218274 82.006833 
L 142.439803 88.789068 
L 142.661333 82.825299 
L 142.882862 88.297322 
L 143.104392 86.543446 
L 143.325921 83.46848 
L 143.547451 77.454673 
L 143.76898 91.100987 
L 143.99051 86.492497 
L 144.212039 86.472784 
L 144.433569 80.798757 
L 144.655098 86.091558 
L 145.098157 79.852289 
L 145.319687 82.092088 
L 145.541216 86.767723 
L 145.762746 86.832491 
L 145.984275 86.173877 
L 146.205805 84.505185 
L 146.427334 88.508516 
L 146.870393 82.838178 
L 147.091923 86.968003 
L 147.313452 87.007219 
L 147.756511 81.959052 
L 147.978041 90.418142 
L 148.19957 89.018508 
L 148.4211 80.047055 
L 148.864159 89.478976 
L 149.307218 78.873276 
L 149.528748 87.574149 
L 149.750277 88.931125 
L 149.971807 86.123753 
L 150.193336 78.842393 
L 150.414866 87.737377 
L 150.636395 83.048515 
L 150.857925 81.172422 
L 151.079454 82.698207 
L 151.300984 86.50173 
L 151.522513 82.579932 
L 151.744043 84.491372 
L 151.965572 81.946734 
L 152.408631 84.59029 
L 152.630161 92.002596 
L 152.85169 82.60647 
L 153.07322 85.608142 
L 153.294749 93.352086 
L 153.516279 85.327404 
L 153.737808 83.987273 
L 153.959338 85.626125 
L 154.180867 94.796891 
L 154.402397 88.019151 
L 154.623926 88.962594 
L 154.845456 86.410248 
L 155.066985 94.228148 
L 155.288515 84.043035 
L 155.510044 83.048853 
L 155.731574 82.886511 
L 155.953103 85.368774 
L 156.174633 85.545996 
L 156.396162 81.179694 
L 156.617692 83.362281 
L 156.839221 86.798545 
L 157.28228 82.409988 
L 157.50381 80.410966 
L 157.725339 83.293706 
L 157.946869 88.230088 
L 158.168398 87.067378 
L 158.389928 84.267763 
L 158.611457 83.926392 
L 158.832987 81.12081 
L 159.054516 92.531042 
L 159.276046 87.942502 
L 159.497575 89.648529 
L 159.719105 80.874292 
L 160.162164 83.811433 
L 160.383693 81.939287 
L 160.605223 87.347919 
L 160.826752 83.04819 
L 161.048282 84.867237 
L 161.269811 84.739378 
L 161.491341 85.594027 
L 161.71287 81.354896 
L 161.9344 80.924678 
L 162.155929 90.7174 
L 162.598988 84.784382 
L 162.820518 82.857896 
L 163.042047 91.429401 
L 163.485106 86.328276 
L 163.706636 78.251759 
L 163.928165 88.527707 
L 164.371224 85.245864 
L 164.592754 85.5313 
L 164.814283 84.519053 
L 165.257342 85.867935 
L 165.478872 84.017169 
L 165.700401 84.048806 
L 165.921931 83.647221 
L 166.14346 83.558575 
L 166.36499 89.70631 
L 166.586519 84.441915 
L 166.808049 84.530854 
L 167.029578 82.062394 
L 167.251108 82.416352 
L 167.472637 79.037815 
L 167.694167 88.246863 
L 168.137226 84.272474 
L 168.358755 87.587493 
L 168.580285 86.171071 
L 169.023344 86.982357 
L 169.244873 76.182608 
L 169.466403 85.405256 
L 169.687932 79.328125 
L 169.909462 88.452807 
L 170.130991 83.995607 
L 170.352521 87.577439 
L 171.017109 77.465156 
L 171.238639 81.888018 
L 171.681698 85.043252 
L 171.903227 83.53318 
L 172.124757 79.672539 
L 172.346286 91.407738 
L 172.567816 86.242833 
L 172.789345 88.849591 
L 173.010875 81.100851 
L 173.232405 89.893124 
L 173.453934 81.762726 
L 173.675464 89.549928 
L 173.896993 89.248163 
L 174.118523 79.165561 
L 174.340052 81.047773 
L 174.561582 88.544591 
L 174.783111 91.832745 
L 175.004641 88.720464 
L 175.22617 82.732821 
L 175.669229 88.721988 
L 176.112288 79.673254 
L 176.333818 89.458269 
L 176.555347 85.363899 
L 176.776877 88.19149 
L 176.998406 80.771394 
L 177.662995 91.50539 
L 177.884524 82.335304 
L 178.106054 86.170185 
L 178.327583 84.528572 
L 178.549113 85.77652 
L 178.770642 83.478746 
L 178.992172 91.852102 
L 179.435231 83.749119 
L 179.65676 77.977158 
L 179.87829 83.821361 
L 180.542878 87.690256 
L 180.764408 85.927835 
L 180.985937 88.165332 
L 181.207467 84.582036 
L 181.428996 85.023767 
L 181.650526 77.265985 
L 181.872055 85.42472 
L 182.093585 80.725543 
L 182.315114 86.708867 
L 182.758173 75.489454 
L 182.979703 87.270719 
L 183.201232 89.551176 
L 183.422762 80.843948 
L 183.644291 84.781399 
L 183.865821 86.015659 
L 184.08735 83.248227 
L 184.30888 83.852001 
L 184.530409 80.131544 
L 185.416527 91.735372 
L 185.638057 89.203575 
L 185.859586 80.646418 
L 186.081116 90.6162 
L 186.524175 80.178981 
L 186.745704 82.68728 
L 186.967234 78.998555 
L 187.188763 82.102399 
L 187.410293 78.857633 
L 187.631822 87.245012 
L 187.853352 88.240012 
L 188.074881 77.3353 
L 188.296411 83.641109 
L 188.51794 84.643143 
L 188.73947 87.218619 
L 188.960999 78.721363 
L 189.182529 83.095268 
L 189.404058 83.041733 
L 189.625588 87.530274 
L 189.847117 84.668632 
L 190.068647 86.67497 
L 190.511706 83.744917 
L 190.733235 87.008023 
L 190.954765 88.310495 
L 191.176294 81.924266 
L 191.397824 88.995192 
L 191.619353 79.542829 
L 191.840883 79.010966 
L 192.062412 90.477727 
L 192.283942 78.702997 
L 192.505471 88.246589 
L 192.727001 79.874291 
L 192.94853 87.288754 
L 193.17006 82.024427 
L 193.391589 89.130135 
L 193.613119 82.525097 
L 193.834648 84.70701 
L 194.056178 78.807718 
L 194.277707 82.058768 
L 194.499237 88.523735 
L 194.720766 83.769395 
L 194.942296 87.660902 
L 195.163825 84.288649 
L 195.385355 78.97081 
L 195.606884 78.839114 
L 196.049943 88.183287 
L 196.271473 84.688634 
L 196.493002 76.823601 
L 196.936061 90.700838 
L 197.157591 90.424154 
L 197.37912 89.671205 
L 197.60065 80.748043 
L 197.82218 86.330732 
L 198.043709 87.916794 
L 198.486768 81.206621 
L 198.929827 88.150878 
L 199.372886 81.79876 
L 199.594416 91.501038 
L 199.815945 90.512001 
L 200.037475 77.184165 
L 200.259004 83.315303 
L 200.480534 83.594511 
L 200.702063 90.486814 
L 200.923593 88.881463 
L 201.145122 86.04842 
L 201.366652 80.106359 
L 201.809711 91.391165 
L 202.03124 78.982523 
L 202.25277 78.80269 
L 202.474299 81.598998 
L 202.695829 89.35109 
L 203.360417 84.542859 
L 203.581947 77.991261 
L 203.803476 90.351893 
L 204.246535 85.116369 
L 204.468065 87.303309 
L 204.689594 87.077612 
L 204.911124 90.909001 
L 205.132653 84.932377 
L 205.354183 86.383203 
L 205.797242 81.491886 
L 206.018771 86.167039 
L 206.240301 85.610245 
L 206.46183 84.077166 
L 206.68336 86.893864 
L 206.904889 84.350846 
L 207.126419 91.97966 
L 207.347948 88.505825 
L 207.569478 83.128607 
L 207.791007 84.352766 
L 208.012537 81.919644 
L 208.234066 90.359305 
L 208.677125 85.456422 
L 208.898655 85.524063 
L 209.120184 86.017057 
L 209.341714 79.592668 
L 209.563243 86.959674 
L 209.784773 86.413769 
L 210.006302 83.163559 
L 210.227832 83.309536 
L 210.449361 84.639551 
L 210.670891 78.656915 
L 211.11395 86.077786 
L 211.335479 88.933373 
L 211.557009 80.368161 
L 211.778538 87.600634 
L 212.000068 83.641017 
L 212.221597 87.22356 
L 212.443127 76.917853 
L 212.664656 82.319152 
L 212.886186 92.048446 
L 213.107715 84.04509 
L 213.329245 90.573742 
L 213.550774 87.376496 
L 213.772304 82.024841 
L 213.993833 90.240099 
L 214.215363 83.898096 
L 214.436892 85.479519 
L 214.658422 82.245535 
L 214.879951 88.995389 
L 215.101481 82.777381 
L 215.32301 86.609321 
L 215.54454 81.178692 
L 215.766069 85.039933 
L 216.209128 79.967577 
L 216.430658 80.936836 
L 216.652187 85.340968 
L 216.873717 82.464982 
L 217.095246 85.231307 
L 217.316776 83.568603 
L 217.538305 78.886095 
L 217.759835 88.598895 
L 217.981364 89.877714 
L 218.202894 83.371677 
L 218.424423 87.458222 
L 218.645953 80.435668 
L 219.310541 85.328054 
L 219.7536 88.706798 
L 219.97513 87.416895 
L 220.196659 85.380765 
L 220.418189 89.002532 
L 220.639718 81.267837 
L 220.861248 82.776606 
L 221.304307 95.819065 
L 221.525836 80.955783 
L 221.968895 96.562923 
L 222.190425 91.747362 
L 222.633484 79.940775 
L 222.855014 81.602723 
L 223.298073 78.237056 
L 223.519602 77.884021 
L 223.741132 88.934619 
L 223.962661 85.932375 
L 224.184191 87.616139 
L 224.40572 84.946204 
L 224.62725 86.536277 
L 224.848779 84.123165 
L 225.070309 77.979658 
L 225.291838 87.935612 
L 225.513368 82.249488 
L 225.734897 88.966253 
L 225.956427 90.227496 
L 226.177956 81.182038 
L 226.399486 85.696083 
L 226.621015 84.879506 
L 226.842545 79.474346 
L 227.064074 90.374691 
L 227.507133 79.401821 
L 227.728663 89.197157 
L 228.171722 81.507972 
L 228.393251 81.501251 
L 228.614781 82.500802 
L 228.83631 81.313716 
L 229.05784 83.243429 
L 229.279369 82.052747 
L 229.500899 83.628915 
L 229.722428 88.675559 
L 229.943958 84.693939 
L 230.165487 85.571711 
L 230.387017 80.678649 
L 230.608546 83.134301 
L 230.830076 83.098648 
L 231.051605 84.383368 
L 231.273135 82.532603 
L 231.494664 87.249646 
L 231.716194 84.022401 
L 231.937723 87.787381 
L 232.159253 86.477962 
L 232.380782 89.478403 
L 232.602312 76.398454 
L 233.045371 88.834714 
L 233.48843 83.76927 
L 233.709959 86.846029 
L 233.931489 82.200527 
L 234.153018 83.374525 
L 234.374548 80.617867 
L 234.596077 96.185957 
L 234.817607 82.150515 
L 235.039136 84.186484 
L 235.260666 81.175867 
L 235.482195 87.311899 
L 235.703725 87.986297 
L 235.925254 89.550649 
L 236.146784 83.266544 
L 236.368313 84.47544 
L 236.589843 91.773103 
L 236.811372 87.326538 
L 237.032902 85.21709 
L 237.254431 89.793888 
L 237.475961 86.564901 
L 237.69749 85.532564 
L 237.91902 87.357855 
L 238.140549 91.494174 
L 238.362079 80.63552 
L 238.583608 84.157215 
L 238.805138 83.775514 
L 239.026667 87.384314 
L 239.248197 84.44217 
L 239.469726 87.78474 
L 239.691256 85.604585 
L 239.912785 84.591169 
L 240.134315 82.839994 
L 240.355844 87.41962 
L 240.577374 88.141768 
L 240.798903 80.237917 
L 241.020433 90.550298 
L 241.241962 84.363978 
L 241.463492 85.54646 
L 241.685021 82.448148 
L 242.12808 89.162131 
L 242.34961 84.669624 
L 242.571139 90.424405 
L 242.792669 89.258954 
L 243.014198 85.237687 
L 243.235728 84.684215 
L 243.457257 90.851275 
L 243.678787 80.202214 
L 243.900316 85.304865 
L 244.121846 80.306568 
L 244.343375 80.819833 
L 244.564905 84.92415 
L 244.786434 86.719538 
L 245.007964 90.669012 
L 245.229493 81.231619 
L 245.451023 79.107669 
L 245.672552 84.488595 
L 245.894082 84.904765 
L 246.115611 88.657244 
L 246.337141 89.093181 
L 246.7802 80.374997 
L 247.00173 86.194903 
L 247.223259 81.695592 
L 247.666318 85.545 
L 247.887848 88.369709 
L 248.109377 86.562133 
L 248.330907 89.787317 
L 248.552436 81.775035 
L 248.773966 83.135442 
L 248.995495 88.890546 
L 249.217025 87.732416 
L 249.438554 90.216174 
L 249.660084 84.48689 
L 249.881613 82.735275 
L 250.103143 88.561304 
L 250.324672 86.781336 
L 250.546202 83.596304 
L 250.767731 91.519583 
L 251.21079 78.935583 
L 251.43232 78.705686 
L 251.653849 85.563785 
L 251.875379 85.229603 
L 252.096908 82.115236 
L 252.318438 82.414515 
L 252.539967 79.280851 
L 252.761497 84.007843 
L 252.983026 83.647714 
L 253.204556 83.663271 
L 253.426085 78.351358 
L 253.647615 88.557243 
L 253.869144 79.869944 
L 254.090674 83.843876 
L 254.312203 83.614506 
L 254.533733 87.945486 
L 254.755262 84.860504 
L 254.976792 88.16261 
L 255.198321 94.75237 
L 255.419851 83.765485 
L 255.64138 89.896315 
L 255.86291 84.485343 
L 256.084439 89.75345 
L 256.305969 86.112176 
L 256.527498 86.251332 
L 256.749028 91.39047 
L 256.970557 84.649201 
L 257.192087 87.013019 
L 257.413616 93.953683 
L 257.635146 77.649981 
L 257.856675 82.793199 
L 258.078205 83.296722 
L 258.299734 84.557758 
L 258.521264 81.423488 
L 258.742793 86.580016 
L 258.964323 81.880455 
L 259.185852 81.006805 
L 259.407382 86.619609 
L 259.628911 84.501503 
L 259.850441 84.089128 
L 260.07197 90.398646 
L 260.2935 83.293626 
L 260.515029 84.940546 
L 260.736559 79.942241 
L 261.179618 88.092745 
L 261.401147 84.218939 
L 261.622677 86.733566 
L 261.844206 93.859988 
L 262.065736 85.606141 
L 262.287265 89.780519 
L 262.508795 79.912483 
L 262.730324 83.612609 
L 262.951854 81.469174 
L 263.394913 85.657066 
L 263.616442 82.20585 
L 263.837972 90.825926 
L 264.059501 81.821173 
L 264.281031 85.410979 
L 264.50256 92.573436 
L 264.72409 85.543043 
L 264.945619 82.596407 
L 265.167149 86.761504 
L 265.388678 79.589618 
L 265.610208 79.934158 
L 265.831737 87.24671 
L 266.053267 87.857907 
L 266.274796 85.766659 
L 266.496326 86.73821 
L 266.717855 82.119303 
L 266.939385 80.669593 
L 267.160914 82.354059 
L 267.382444 82.238225 
L 267.603973 85.096934 
L 267.825503 85.384869 
L 268.047032 87.553197 
L 268.268562 75.823523 
L 268.490091 81.324641 
L 268.711621 82.574066 
L 269.15468 90.767236 
L 269.376209 87.821473 
L 269.597739 86.56972 
L 269.819268 86.304173 
L 270.040798 82.422044 
L 270.262327 86.397458 
L 270.483857 82.424671 
L 270.705386 82.985806 
L 270.926916 82.237998 
L 271.148445 85.333333 
L 271.369975 81.876159 
L 271.591505 84.311538 
L 271.813034 84.151005 
L 272.034564 85.532971 
L 272.256093 85.386286 
L 272.699152 82.269991 
L 272.920682 87.655298 
L 273.363741 84.692526 
L 273.58527 80.568983 
L 273.8068 84.852175 
L 274.028329 82.407432 
L 274.249859 81.316771 
L 274.471388 84.775117 
L 274.692918 78.803666 
L 274.914447 88.652078 
L 275.135977 90.152425 
L 275.579036 88.129016 
L 276.022095 86.005075 
L 276.243624 83.533552 
L 276.465154 86.779647 
L 276.686683 87.052046 
L 276.908213 82.694336 
L 277.129742 85.644942 
L 277.351272 84.097728 
L 277.794331 89.999359 
L 278.01586 85.206946 
L 278.23739 85.464947 
L 278.458919 83.562473 
L 278.680449 85.004339 
L 278.901978 88.220209 
L 279.123508 79.272976 
L 279.345037 89.836253 
L 279.566567 92.36553 
L 279.788096 87.632453 
L 280.009626 87.184234 
L 280.231155 83.171708 
L 280.452685 87.373013 
L 280.674214 85.136893 
L 280.895744 84.217886 
L 281.117273 82.464705 
L 281.338803 91.49292 
L 281.560332 84.226323 
L 281.781862 89.963749 
L 282.003391 80.842543 
L 282.224921 88.156557 
L 282.44645 87.868199 
L 282.66798 83.167005 
L 282.889509 85.293654 
L 283.111039 85.566061 
L 283.332568 82.444993 
L 283.554098 87.114303 
L 283.775627 87.570492 
L 283.997157 81.217964 
L 284.218686 87.326773 
L 284.440216 84.456169 
L 284.661745 89.960224 
L 284.883275 85.266317 
L 285.104804 86.416745 
L 285.326334 83.676142 
L 285.547863 76.483495 
L 285.769393 92.678209 
L 286.212452 86.45597 
L 286.433981 84.626545 
L 286.655511 90.865091 
L 286.87704 85.354718 
L 287.09857 88.417447 
L 287.320099 84.902796 
L 287.541629 88.847612 
L 287.763158 74.263423 
L 287.984688 84.33946 
L 288.206217 82.397723 
L 288.427747 94.275599 
L 288.649276 88.341135 
L 288.870806 85.821528 
L 289.092335 78.51061 
L 289.313865 88.436217 
L 289.535394 83.698227 
L 289.756924 88.695644 
L 289.978453 85.674623 
L 290.199983 92.630089 
L 290.421512 92.65154 
L 290.864571 81.896891 
L 291.086101 81.858194 
L 291.52916 90.186386 
L 291.750689 80.772056 
L 291.972219 86.558111 
L 292.193748 88.759122 
L 292.415278 86.705213 
L 292.636807 86.185332 
L 292.858337 78.452765 
L 293.079866 85.257049 
L 293.301396 87.25244 
L 293.522925 86.943696 
L 293.744455 91.299762 
L 293.965984 80.295672 
L 294.187514 88.956228 
L 294.409043 84.70912 
L 294.630573 89.045469 
L 294.852102 88.282194 
L 295.073632 93.73408 
L 295.516691 76.476671 
L 295.73822 78.088536 
L 295.95975 83.54049 
L 296.18128 79.595151 
L 296.402809 88.215468 
L 296.624339 89.646731 
L 296.845868 80.599675 
L 297.067398 87.781376 
L 297.288927 76.767828 
L 297.510457 79.647968 
L 297.731986 89.64333 
L 297.953516 86.582054 
L 298.175045 86.559569 
L 298.396575 82.140619 
L 298.618104 86.660524 
L 298.839634 85.279828 
L 299.061163 91.126314 
L 299.282693 78.783385 
L 299.725752 84.863031 
L 299.947281 91.461593 
L 300.168811 84.520333 
L 300.39034 73.359793 
L 300.61187 83.535347 
L 300.833399 80.265632 
L 301.054929 93.653815 
L 301.276458 86.359675 
L 301.497988 86.081088 
L 301.719517 80.881696 
L 301.941047 89.044979 
L 302.162576 81.811731 
L 302.384106 80.866104 
L 302.605635 84.801342 
L 302.827165 85.854607 
L 303.048694 83.390378 
L 303.270224 89.246065 
L 303.491753 91.550733 
L 303.713283 91.969188 
L 303.934812 84.609004 
L 304.156342 86.403479 
L 304.377871 85.826427 
L 304.599401 87.516281 
L 304.82093 85.722743 
L 305.04246 77.959094 
L 305.263989 86.56798 
L 305.707048 90.202754 
L 305.928578 89.167067 
L 306.150107 83.182093 
L 306.371637 86.272845 
L 306.593166 86.954951 
L 306.814696 86.251494 
L 307.036225 91.109211 
L 307.479284 87.046944 
L 307.700814 87.096878 
L 308.143873 81.961802 
L 308.365402 88.120469 
L 308.586932 84.242801 
L 308.808461 83.967585 
L 309.029991 87.872185 
L 309.25152 83.342281 
L 309.47305 81.644919 
L 309.694579 91.889953 
L 309.916109 83.833673 
L 310.137638 83.863597 
L 310.359168 84.230009 
L 310.580697 91.502554 
L 310.802227 81.51719 
L 311.245286 88.668653 
L 311.466815 91.670807 
L 311.688345 83.814635 
L 311.909874 86.160692 
L 312.131404 90.880345 
L 312.352933 79.002642 
L 312.574463 90.331645 
L 312.795992 82.813252 
L 313.017522 89.252858 
L 313.460581 82.785984 
L 313.68211 86.412085 
L 313.90364 83.235468 
L 314.125169 85.256241 
L 314.346699 79.363781 
L 314.568228 82.397725 
L 314.789758 83.290128 
L 315.011287 88.049666 
L 315.232817 86.817829 
L 315.454346 84.354686 
L 315.675876 78.430963 
L 315.897405 79.193574 
L 316.118935 84.393527 
L 316.340464 80.483944 
L 316.561994 84.44968 
L 316.783523 84.146783 
L 317.005053 84.761702 
L 317.226582 86.207987 
L 317.448112 82.992023 
L 317.669641 72.763471 
L 317.891171 86.09195 
L 318.1127 80.419977 
L 318.33423 81.433368 
L 318.555759 84.761152 
L 318.777289 81.894095 
L 318.998818 86.670913 
L 319.220348 84.376839 
L 319.441877 79.188179 
L 319.663407 78.683446 
L 319.884936 84.988766 
L 320.106466 85.605605 
L 320.327996 90.176667 
L 320.549525 81.973849 
L 320.771055 87.12152 
L 320.992584 88.348273 
L 321.214114 84.105466 
L 321.435643 85.132082 
L 321.657173 90.6953 
L 321.878702 80.365273 
L 322.100232 91.704708 
L 322.321761 91.589756 
L 322.543291 81.404914 
L 322.98635 91.982408 
L 323.207879 81.13315 
L 323.429409 81.716827 
L 323.650938 86.004168 
L 323.872468 85.582469 
L 324.093997 84.525865 
L 324.315527 82.025736 
L 324.758586 89.677536 
L 324.980115 85.673792 
L 325.201645 87.319585 
L 325.423174 91.744204 
L 325.644704 87.284346 
L 325.866233 89.484655 
L 326.309292 80.587614 
L 326.530822 83.36661 
L 326.752351 74.138839 
L 326.973881 83.533245 
L 327.19541 84.693084 
L 327.41694 88.873384 
L 327.638469 81.874639 
L 327.859999 83.848552 
L 328.081528 91.768555 
L 328.524587 82.70377 
L 328.746117 87.078388 
L 328.967646 83.604089 
L 329.189176 84.380304 
L 329.410705 77.071748 
L 329.632235 91.129587 
L 329.853764 85.898058 
L 330.075294 90.53552 
L 330.296823 88.769357 
L 330.518353 77.467764 
L 330.739882 81.520144 
L 330.961412 82.814578 
L 331.182941 85.406359 
L 331.404471 85.04079 
L 331.626 77.083035 
L 331.84753 89.282728 
L 332.069059 80.032629 
L 332.290589 80.741935 
L 332.512118 88.760094 
L 332.733648 84.207744 
L 332.955177 87.923903 
L 333.398236 81.604191 
L 333.619766 83.905741 
L 333.841295 80.189091 
L 334.062825 82.070316 
L 334.284354 93.984849 
L 334.505884 81.831939 
L 334.948943 96.755536 
L 335.170472 86.442738 
L 335.392002 87.204083 
L 335.613531 76.834944 
L 335.835061 80.96447 
L 336.05659 81.654546 
L 336.27812 84.820565 
L 336.499649 81.442904 
L 336.721179 87.6597 
L 336.942708 80.597528 
L 337.164238 86.863567 
L 337.607297 83.903303 
L 337.828826 87.86916 
L 338.050356 73.209569 
L 338.271885 84.18601 
L 338.714944 88.760674 
L 338.936474 87.629856 
L 339.379533 82.851892 
L 339.601062 90.955586 
L 339.822592 86.892662 
L 340.044121 77.786759 
L 340.265651 83.787848 
L 340.70871 86.562795 
L 340.930239 85.941475 
L 341.151769 84.460793 
L 341.373298 79.469959 
L 341.594828 79.656096 
L 341.816357 87.185501 
L 342.037887 88.510001 
L 342.259416 83.070677 
L 342.480946 87.287654 
L 342.702475 81.148056 
L 342.924005 80.602759 
L 343.367064 93.444853 
L 343.588593 90.578098 
L 343.810123 85.531944 
L 344.031652 89.84926 
L 344.253182 83.912028 
L 344.474711 84.333131 
L 344.917771 85.769433 
L 345.1393 87.950145 
L 345.36083 82.81143 
L 345.582359 92.818597 
L 346.025418 76.043689 
L 346.690007 86.288521 
L 346.911536 83.621009 
L 347.133066 85.707638 
L 347.354595 78.593503 
L 347.576125 87.401224 
L 347.797654 85.89974 
L 348.019184 89.878263 
L 348.240713 82.851392 
L 348.462243 91.452096 
L 348.683772 81.914691 
L 348.905302 83.007297 
L 349.126831 90.234323 
L 349.348361 83.557958 
L 349.56989 86.203688 
L 349.79142 87.343273 
L 350.012949 90.475626 
L 350.234479 91.629386 
L 350.456008 90.9442 
L 350.677538 91.855388 
L 350.899067 85.048869 
L 351.120597 89.222045 
L 351.342126 76.808783 
L 351.563656 83.745359 
L 351.785185 80.646994 
L 352.006715 87.919464 
L 352.228244 79.009217 
L 352.449774 86.940573 
L 352.671303 81.263217 
L 352.892833 83.808015 
L 353.114362 82.386442 
L 353.335892 89.784282 
L 353.557421 88.923867 
L 353.778951 81.459115 
L 354.00048 83.381652 
L 354.22201 87.512007 
L 354.443539 82.833596 
L 354.886598 87.481451 
L 355.108128 77.079704 
L 355.329657 94.268039 
L 355.772716 81.743996 
L 355.994246 83.524108 
L 356.215775 77.369079 
L 356.437305 82.837907 
L 356.658834 83.138415 
L 356.880364 87.67431 
L 357.101893 78.721225 
L 357.323423 87.538008 
L 357.544952 86.535309 
L 357.766482 86.538973 
L 357.988011 82.616224 
L 358.209541 87.487864 
L 358.43107 85.415061 
L 358.6526 87.194989 
L 358.874129 92.086634 
L 359.095659 87.847842 
L 359.317188 77.027907 
L 359.538718 86.721826 
L 359.760247 84.492348 
L 359.981777 74.920967 
L 360.203306 88.246447 
L 360.424836 82.348624 
L 360.646365 80.343929 
L 360.867895 88.933479 
L 361.089424 79.005037 
L 361.310954 81.586007 
L 361.532483 89.881558 
L 361.754013 84.860862 
L 361.975542 89.982819 
L 362.197072 74.033734 
L 362.418601 76.73903 
L 362.640131 85.075975 
L 362.86166 87.839753 
L 363.08319 83.369657 
L 363.304719 89.678888 
L 363.526249 86.104723 
L 363.747778 89.570777 
L 364.190837 83.503997 
L 364.412367 83.859612 
L 364.633896 82.278232 
L 364.855426 87.166869 
L 365.076955 81.670947 
L 365.298485 84.786521 
L 365.520014 83.751127 
L 365.741544 79.212277 
L 366.184603 88.969963 
L 366.406132 82.435087 
L 366.627662 89.244929 
L 366.849191 84.814348 
L 367.070721 85.35731 
L 367.29225 93.472876 
L 367.735309 88.820447 
L 367.956839 83.804585 
L 368.178368 81.571738 
L 368.399898 84.873718 
L 368.621427 75.953519 
L 368.842957 81.916647 
L 369.064486 91.261737 
L 369.286016 82.641491 
L 369.507546 89.11667 
L 369.729075 88.270386 
L 369.950605 86.291036 
L 370.172134 86.105495 
L 370.615193 82.140073 
L 370.836723 80.763365 
L 371.058252 87.373774 
L 371.279782 84.78463 
L 371.501311 80.493448 
L 371.722841 89.509742 
L 371.94437 81.168421 
L 372.1659 82.245404 
L 372.387429 86.558774 
L 372.608959 80.331151 
L 372.830488 83.502155 
L 373.052018 82.318035 
L 373.273547 78.811608 
L 373.716606 89.615191 
L 373.938136 86.937288 
L 374.159665 89.450417 
L 374.381195 81.15057 
L 374.602724 86.617887 
L 374.824254 86.89777 
L 375.045783 87.672772 
L 375.267313 80.777379 
L 375.488842 83.970385 
L 375.710372 82.117044 
L 375.931901 84.252274 
L 376.153431 88.089211 
L 376.37496 88.800219 
L 376.59649 80.427702 
L 376.818019 86.30587 
L 377.039549 82.516541 
L 377.261078 89.698787 
L 377.482608 86.38034 
L 377.925667 88.594477 
L 378.147196 82.970037 
L 378.368726 81.785349 
L 378.590255 86.229953 
L 378.811785 76.92605 
L 379.254844 91.587157 
L 379.476373 83.163667 
L 379.697903 90.321236 
L 380.362491 80.663099 
L 380.584021 83.007882 
L 380.80555 88.065626 
L 381.02708 80.152983 
L 381.248609 84.208959 
L 381.470139 80.142835 
L 381.691668 80.028055 
L 382.134727 88.050624 
L 382.356257 82.434241 
L 382.577786 84.915561 
L 382.799316 85.486677 
L 383.020845 84.640182 
L 383.242375 88.558202 
L 383.463904 89.224032 
L 383.906963 84.597235 
L 384.128493 86.445232 
L 384.350022 82.73185 
L 384.571552 82.286324 
L 384.793081 83.521077 
L 385.014611 89.193029 
L 385.23614 90.99605 
L 385.45767 89.070283 
L 385.679199 89.884255 
L 385.900729 82.008283 
L 386.122258 82.121614 
L 386.343788 91.741689 
L 386.565317 86.89074 
L 386.786847 85.845608 
L 387.008376 88.727554 
L 387.229906 86.479343 
L 387.451435 88.662983 
L 388.116024 83.929122 
L 388.337553 88.467443 
L 388.559083 82.464311 
L 388.780612 88.646728 
L 389.002142 86.716668 
L 389.223671 86.117903 
L 389.445201 88.958896 
L 389.66673 83.501389 
L 389.88826 87.907258 
L 390.109789 88.995896 
L 390.331319 78.733393 
L 390.552848 86.372702 
L 390.774378 86.960321 
L 390.995907 94.383136 
L 391.438966 79.305624 
L 391.660496 86.735629 
L 391.882025 86.547636 
L 392.103555 82.273295 
L 392.325084 81.932859 
L 392.546614 80.684779 
L 392.768143 82.577916 
L 392.989673 86.244023 
L 393.211202 88.054193 
L 393.432732 83.009807 
L 393.875791 83.265358 
L 394.097321 87.869459 
L 394.31885 87.148148 
L 394.54038 79.178807 
L 394.761909 86.731433 
L 394.983439 82.804507 
L 395.204968 85.175 
L 395.426498 91.861761 
L 395.648027 83.018552 
L 395.869557 89.339403 
L 396.091086 78.871782 
L 396.312616 86.749738 
L 396.534145 87.777647 
L 396.755675 86.024898 
L 396.977204 85.470774 
L 397.198734 86.895871 
L 397.420263 86.644909 
L 397.641793 81.091898 
L 397.863322 84.681728 
L 398.084852 82.334425 
L 398.306381 84.91826 
L 398.527911 82.862092 
L 398.74944 87.797624 
L 398.97097 79.193874 
L 399.192499 88.814414 
L 399.414029 92.073714 
L 399.857088 89.193806 
L 400.078617 86.412812 
L 400.300147 78.625836 
L 400.521676 90.146845 
L 400.521676 90.146845 
" clip-path="url(#p7421057a3a)" style="fill: none; stroke: #1f77b4; stroke-linecap: square"/>
   </g>
   <g id="patch_3">
    <path d="M 51.845313 159.319219 
L 51.845313 10.999219 
" style="fill: none; stroke: #000000; stroke-width: 0.8; stroke-linejoin: miter; stroke-linecap: square"/>
   </g>
   <g id="patch_4">
    <path d="M 417.125312 159.319219 
L 417.125312 10.999219 
" style="fill: none; stroke: #000000; stroke-width: 0.8; stroke-linejoin: miter; stroke-linecap: square"/>
   </g>
   <g id="patch_5">
    <path d="M 51.845312 85.159219 
L 417.125312 85.159219 
" style="fill: none; stroke: #000000; stroke-width: 0.8; stroke-linejoin: miter; stroke-linecap: square"/>
   </g>
   <g id="patch_6">
    <path d="M 51.845312 10.999219 
L 417.125312 10.999219 
" style="fill: none; stroke: #000000; stroke-width: 0.8; stroke-linejoin: miter; stroke-linecap: square"/>
   </g>
   <g id="legend_1">
    <g id="patch_7">
     <path d="M 406.125312 23.999219 
L 410.125312 23.999219 
Q 412.125312 23.999219 412.125312 21.999219 
L 412.125312 17.999219 
Q 412.125312 15.999219 410.125312 15.999219 
L 406.125312 15.999219 
Q 404.125312 15.999219 404.125312 17.999219 
L 404.125312 21.999219 
Q 404.125312 23.999219 406.125312 23.999219 
z
" style="fill: #ffffff; opacity: 0.8; stroke: #cccccc; stroke-linejoin: miter"/>
    </g>
   </g>
  </g>
 </g>
 <defs>
  <clipPath id="p7421057a3a">
   <rect x="51.845313" y="10.999219" width="365.28" height="148.32"/>
  </clipPath>
 </defs>
</svg>
