<?xml version="1.0" encoding="utf-8" standalone="no"?>
<!DOCTYPE svg PUBLIC "-//W3C//DTD SVG 1.1//EN"
  "http://www.w3.org/Graphics/SVG/1.1/DTD/svg11.dtd">
<svg xmlns:xlink="http://www.w3.org/1999/xlink" width="424.315625pt" height="171.835469pt" viewBox="0 0 424.315625 171.835469" xmlns="http://www.w3.org/2000/svg" version="1.1">
 <metadata>
  <rdf:RDF xmlns:dc="http://purl.org/dc/elements/1.1/" xmlns:cc="http://creativecommons.org/ns#" xmlns:rdf="http://www.w3.org/1999/02/22-rdf-syntax-ns#">
   <cc:Work>
    <dc:type rdf:resource="http://purl.org/dc/dcmitype/StillImage"/>
    <dc:date>2025-08-06T18:18:51.675888</dc:date>
    <dc:format>image/svg+xml</dc:format>
    <dc:creator>
     <cc:Agent>
      <dc:title>Matplotlib v3.6.3, https://matplotlib.org/</dc:title>
     </cc:Agent>
    </dc:creator>
   </cc:Work>
  </rdf:RDF>
 </metadata>
 <defs>
  <style type="text/css">*{stroke-linejoin: round; stroke-linecap: butt}</style>
 </defs>
 <g id="figure_1">
  <g id="patch_1">
   <path d="M 0 171.835469 
L 424.315625 171.835469 
L 424.315625 0 
L 0 0 
z
" style="fill: #ffffff"/>
  </g>
  <g id="axes_1">
   <g id="patch_2">
    <path d="M 43.465625 137.779219 
L 417.115625 137.779219 
L 417.115625 10.999219 
L 43.465625 10.999219 
z
" style="fill: #ffffff"/>
   </g>
   <g id="matplotlib.axis_1">
    <g id="xtick_1">
     <g id="line2d_1">
      <defs>
       <path id="m5f5891fed9" d="M 0 0 
L 0 -3.5 
" style="stroke: #000000; stroke-width: 0.8"/>
      </defs>
      <g>
       <use xlink:href="#m5f5891fed9" x="60.449716" y="137.779219" style="stroke: #000000; stroke-width: 0.8"/>
      </g>
     </g>
     <g id="text_1">
      <!-- 0.0 -->
      <g transform="translate(52.498153 148.877656) scale(0.1 -0.1)">
       <defs>
        <path id="DejaVuSans-30" d="M 2034 4250 
Q 1547 4250 1301 3770 
Q 1056 3291 1056 2328 
Q 1056 1369 1301 889 
Q 1547 409 2034 409 
Q 2525 409 2770 889 
Q 3016 1369 3016 2328 
Q 3016 3291 2770 3770 
Q 2525 4250 2034 4250 
z
M 2034 4750 
Q 2819 4750 3233 4129 
Q 3647 3509 3647 2328 
Q 3647 1150 3233 529 
Q 2819 -91 2034 -91 
Q 1250 -91 836 529 
Q 422 1150 422 2328 
Q 422 3509 836 4129 
Q 1250 4750 2034 4750 
z
" transform="scale(0.015625)"/>
        <path id="DejaVuSans-2e" d="M 684 794 
L 1344 794 
L 1344 0 
L 684 0 
L 684 794 
z
" transform="scale(0.015625)"/>
       </defs>
       <use xlink:href="#DejaVuSans-30"/>
       <use xlink:href="#DejaVuSans-2e" x="63.623047"/>
       <use xlink:href="#DejaVuSans-30" x="95.410156"/>
      </g>
     </g>
    </g>
    <g id="xtick_2">
     <g id="line2d_2">
      <g>
       <use xlink:href="#m5f5891fed9" x="117.10112" y="137.779219" style="stroke: #000000; stroke-width: 0.8"/>
      </g>
     </g>
     <g id="text_2">
      <!-- 0.5 -->
      <g transform="translate(109.149557 148.877656) scale(0.1 -0.1)">
       <defs>
        <path id="DejaVuSans-35" d="M 691 4666 
L 3169 4666 
L 3169 4134 
L 1269 4134 
L 1269 2991 
Q 1406 3038 1543 3061 
Q 1681 3084 1819 3084 
Q 2600 3084 3056 2656 
Q 3513 2228 3513 1497 
Q 3513 744 3044 326 
Q 2575 -91 1722 -91 
Q 1428 -91 1123 -41 
Q 819 9 494 109 
L 494 744 
Q 775 591 1075 516 
Q 1375 441 1709 441 
Q 2250 441 2565 725 
Q 2881 1009 2881 1497 
Q 2881 1984 2565 2268 
Q 2250 2553 1709 2553 
Q 1456 2553 1204 2497 
Q 953 2441 691 2322 
L 691 4666 
z
" transform="scale(0.015625)"/>
       </defs>
       <use xlink:href="#DejaVuSans-30"/>
       <use xlink:href="#DejaVuSans-2e" x="63.623047"/>
       <use xlink:href="#DejaVuSans-35" x="95.410156"/>
      </g>
     </g>
    </g>
    <g id="xtick_3">
     <g id="line2d_3">
      <g>
       <use xlink:href="#m5f5891fed9" x="173.752524" y="137.779219" style="stroke: #000000; stroke-width: 0.8"/>
      </g>
     </g>
     <g id="text_3">
      <!-- 1.0 -->
      <g transform="translate(165.800961 148.877656) scale(0.1 -0.1)">
       <defs>
        <path id="DejaVuSans-31" d="M 794 531 
L 1825 531 
L 1825 4091 
L 703 3866 
L 703 4441 
L 1819 4666 
L 2450 4666 
L 2450 531 
L 3481 531 
L 3481 0 
L 794 0 
L 794 531 
z
" transform="scale(0.015625)"/>
       </defs>
       <use xlink:href="#DejaVuSans-31"/>
       <use xlink:href="#DejaVuSans-2e" x="63.623047"/>
       <use xlink:href="#DejaVuSans-30" x="95.410156"/>
      </g>
     </g>
    </g>
    <g id="xtick_4">
     <g id="line2d_4">
      <g>
       <use xlink:href="#m5f5891fed9" x="230.403928" y="137.779219" style="stroke: #000000; stroke-width: 0.8"/>
      </g>
     </g>
     <g id="text_4">
      <!-- 1.5 -->
      <g transform="translate(222.452365 148.877656) scale(0.1 -0.1)">
       <use xlink:href="#DejaVuSans-31"/>
       <use xlink:href="#DejaVuSans-2e" x="63.623047"/>
       <use xlink:href="#DejaVuSans-35" x="95.410156"/>
      </g>
     </g>
    </g>
    <g id="xtick_5">
     <g id="line2d_5">
      <g>
       <use xlink:href="#m5f5891fed9" x="287.055332" y="137.779219" style="stroke: #000000; stroke-width: 0.8"/>
      </g>
     </g>
     <g id="text_5">
      <!-- 2.0 -->
      <g transform="translate(279.103769 148.877656) scale(0.1 -0.1)">
       <defs>
        <path id="DejaVuSans-32" d="M 1228 531 
L 3431 531 
L 3431 0 
L 469 0 
L 469 531 
Q 828 903 1448 1529 
Q 2069 2156 2228 2338 
Q 2531 2678 2651 2914 
Q 2772 3150 2772 3378 
Q 2772 3750 2511 3984 
Q 2250 4219 1831 4219 
Q 1534 4219 1204 4116 
Q 875 4013 500 3803 
L 500 4441 
Q 881 4594 1212 4672 
Q 1544 4750 1819 4750 
Q 2544 4750 2975 4387 
Q 3406 4025 3406 3419 
Q 3406 3131 3298 2873 
Q 3191 2616 2906 2266 
Q 2828 2175 2409 1742 
Q 1991 1309 1228 531 
z
" transform="scale(0.015625)"/>
       </defs>
       <use xlink:href="#DejaVuSans-32"/>
       <use xlink:href="#DejaVuSans-2e" x="63.623047"/>
       <use xlink:href="#DejaVuSans-30" x="95.410156"/>
      </g>
     </g>
    </g>
    <g id="xtick_6">
     <g id="line2d_6">
      <g>
       <use xlink:href="#m5f5891fed9" x="343.706736" y="137.779219" style="stroke: #000000; stroke-width: 0.8"/>
      </g>
     </g>
     <g id="text_6">
      <!-- 2.5 -->
      <g transform="translate(335.755173 148.877656) scale(0.1 -0.1)">
       <use xlink:href="#DejaVuSans-32"/>
       <use xlink:href="#DejaVuSans-2e" x="63.623047"/>
       <use xlink:href="#DejaVuSans-35" x="95.410156"/>
      </g>
     </g>
    </g>
    <g id="xtick_7">
     <g id="line2d_7">
      <g>
       <use xlink:href="#m5f5891fed9" x="400.35814" y="137.779219" style="stroke: #000000; stroke-width: 0.8"/>
      </g>
     </g>
     <g id="text_7">
      <!-- 3.0 -->
      <g transform="translate(392.406577 148.877656) scale(0.1 -0.1)">
       <defs>
        <path id="DejaVuSans-33" d="M 2597 2516 
Q 3050 2419 3304 2112 
Q 3559 1806 3559 1356 
Q 3559 666 3084 287 
Q 2609 -91 1734 -91 
Q 1441 -91 1130 -33 
Q 819 25 488 141 
L 488 750 
Q 750 597 1062 519 
Q 1375 441 1716 441 
Q 2309 441 2620 675 
Q 2931 909 2931 1356 
Q 2931 1769 2642 2001 
Q 2353 2234 1838 2234 
L 1294 2234 
L 1294 2753 
L 1863 2753 
Q 2328 2753 2575 2939 
Q 2822 3125 2822 3475 
Q 2822 3834 2567 4026 
Q 2313 4219 1838 4219 
Q 1578 4219 1281 4162 
Q 984 4106 628 3988 
L 628 4550 
Q 988 4650 1302 4700 
Q 1616 4750 1894 4750 
Q 2613 4750 3031 4423 
Q 3450 4097 3450 3541 
Q 3450 3153 3228 2886 
Q 3006 2619 2597 2516 
z
" transform="scale(0.015625)"/>
       </defs>
       <use xlink:href="#DejaVuSans-33"/>
       <use xlink:href="#DejaVuSans-2e" x="63.623047"/>
       <use xlink:href="#DejaVuSans-30" x="95.410156"/>
      </g>
     </g>
    </g>
    <g id="text_8">
     <!-- Time (s) -->
     <g transform="translate(209.961719 162.555781) scale(0.1 -0.1)">
      <defs>
       <path id="DejaVuSans-54" d="M -19 4666 
L 3928 4666 
L 3928 4134 
L 2272 4134 
L 2272 0 
L 1638 0 
L 1638 4134 
L -19 4134 
L -19 4666 
z
" transform="scale(0.015625)"/>
       <path id="DejaVuSans-69" d="M 603 3500 
L 1178 3500 
L 1178 0 
L 603 0 
L 603 3500 
z
M 603 4863 
L 1178 4863 
L 1178 4134 
L 603 4134 
L 603 4863 
z
" transform="scale(0.015625)"/>
       <path id="DejaVuSans-6d" d="M 3328 2828 
Q 3544 3216 3844 3400 
Q 4144 3584 4550 3584 
Q 5097 3584 5394 3201 
Q 5691 2819 5691 2113 
L 5691 0 
L 5113 0 
L 5113 2094 
Q 5113 2597 4934 2840 
Q 4756 3084 4391 3084 
Q 3944 3084 3684 2787 
Q 3425 2491 3425 1978 
L 3425 0 
L 2847 0 
L 2847 2094 
Q 2847 2600 2669 2842 
Q 2491 3084 2119 3084 
Q 1678 3084 1418 2786 
Q 1159 2488 1159 1978 
L 1159 0 
L 581 0 
L 581 3500 
L 1159 3500 
L 1159 2956 
Q 1356 3278 1631 3431 
Q 1906 3584 2284 3584 
Q 2666 3584 2933 3390 
Q 3200 3197 3328 2828 
z
" transform="scale(0.015625)"/>
       <path id="DejaVuSans-65" d="M 3597 1894 
L 3597 1613 
L 953 1613 
Q 991 1019 1311 708 
Q 1631 397 2203 397 
Q 2534 397 2845 478 
Q 3156 559 3463 722 
L 3463 178 
Q 3153 47 2828 -22 
Q 2503 -91 2169 -91 
Q 1331 -91 842 396 
Q 353 884 353 1716 
Q 353 2575 817 3079 
Q 1281 3584 2069 3584 
Q 2775 3584 3186 3129 
Q 3597 2675 3597 1894 
z
M 3022 2063 
Q 3016 2534 2758 2815 
Q 2500 3097 2075 3097 
Q 1594 3097 1305 2825 
Q 1016 2553 972 2059 
L 3022 2063 
z
" transform="scale(0.015625)"/>
       <path id="DejaVuSans-20" transform="scale(0.015625)"/>
       <path id="DejaVuSans-28" d="M 1984 4856 
Q 1566 4138 1362 3434 
Q 1159 2731 1159 2009 
Q 1159 1288 1364 580 
Q 1569 -128 1984 -844 
L 1484 -844 
Q 1016 -109 783 600 
Q 550 1309 550 2009 
Q 550 2706 781 3412 
Q 1013 4119 1484 4856 
L 1984 4856 
z
" transform="scale(0.015625)"/>
       <path id="DejaVuSans-73" d="M 2834 3397 
L 2834 2853 
Q 2591 2978 2328 3040 
Q 2066 3103 1784 3103 
Q 1356 3103 1142 2972 
Q 928 2841 928 2578 
Q 928 2378 1081 2264 
Q 1234 2150 1697 2047 
L 1894 2003 
Q 2506 1872 2764 1633 
Q 3022 1394 3022 966 
Q 3022 478 2636 193 
Q 2250 -91 1575 -91 
Q 1294 -91 989 -36 
Q 684 19 347 128 
L 347 722 
Q 666 556 975 473 
Q 1284 391 1588 391 
Q 1994 391 2212 530 
Q 2431 669 2431 922 
Q 2431 1156 2273 1281 
Q 2116 1406 1581 1522 
L 1381 1569 
Q 847 1681 609 1914 
Q 372 2147 372 2553 
Q 372 3047 722 3315 
Q 1072 3584 1716 3584 
Q 2034 3584 2315 3537 
Q 2597 3491 2834 3397 
z
" transform="scale(0.015625)"/>
       <path id="DejaVuSans-29" d="M 513 4856 
L 1013 4856 
Q 1481 4119 1714 3412 
Q 1947 2706 1947 2009 
Q 1947 1309 1714 600 
Q 1481 -109 1013 -844 
L 513 -844 
Q 928 -128 1133 580 
Q 1338 1288 1338 2009 
Q 1338 2731 1133 3434 
Q 928 4138 513 4856 
z
" transform="scale(0.015625)"/>
      </defs>
      <use xlink:href="#DejaVuSans-54"/>
      <use xlink:href="#DejaVuSans-69" x="57.958984"/>
      <use xlink:href="#DejaVuSans-6d" x="85.742188"/>
      <use xlink:href="#DejaVuSans-65" x="183.154297"/>
      <use xlink:href="#DejaVuSans-20" x="244.677734"/>
      <use xlink:href="#DejaVuSans-28" x="276.464844"/>
      <use xlink:href="#DejaVuSans-73" x="315.478516"/>
      <use xlink:href="#DejaVuSans-29" x="367.578125"/>
     </g>
    </g>
   </g>
   <g id="matplotlib.axis_2">
    <g id="ytick_1">
     <g id="line2d_8">
      <defs>
       <path id="me09ab92341" d="M 0 0 
L 3.5 0 
" style="stroke: #000000; stroke-width: 0.8"/>
      </defs>
      <g>
       <use xlink:href="#me09ab92341" x="43.465625" y="137.779219" style="stroke: #000000; stroke-width: 0.8"/>
      </g>
     </g>
     <g id="text_9">
      <!-- 350 -->
      <g transform="translate(20.878125 141.578437) scale(0.1 -0.1)">
       <use xlink:href="#DejaVuSans-33"/>
       <use xlink:href="#DejaVuSans-35" x="63.623047"/>
       <use xlink:href="#DejaVuSans-30" x="127.246094"/>
      </g>
     </g>
    </g>
    <g id="ytick_2">
     <g id="line2d_9">
      <g>
       <use xlink:href="#me09ab92341" x="43.465625" y="116.649219" style="stroke: #000000; stroke-width: 0.8"/>
      </g>
     </g>
     <g id="text_10">
      <!-- 400 -->
      <g transform="translate(20.878125 120.448437) scale(0.1 -0.1)">
       <defs>
        <path id="DejaVuSans-34" d="M 2419 4116 
L 825 1625 
L 2419 1625 
L 2419 4116 
z
M 2253 4666 
L 3047 4666 
L 3047 1625 
L 3713 1625 
L 3713 1100 
L 3047 1100 
L 3047 0 
L 2419 0 
L 2419 1100 
L 313 1100 
L 313 1709 
L 2253 4666 
z
" transform="scale(0.015625)"/>
       </defs>
       <use xlink:href="#DejaVuSans-34"/>
       <use xlink:href="#DejaVuSans-30" x="63.623047"/>
       <use xlink:href="#DejaVuSans-30" x="127.246094"/>
      </g>
     </g>
    </g>
    <g id="ytick_3">
     <g id="line2d_10">
      <g>
       <use xlink:href="#me09ab92341" x="43.465625" y="95.519219" style="stroke: #000000; stroke-width: 0.8"/>
      </g>
     </g>
     <g id="text_11">
      <!-- 450 -->
      <g transform="translate(20.878125 99.318437) scale(0.1 -0.1)">
       <use xlink:href="#DejaVuSans-34"/>
       <use xlink:href="#DejaVuSans-35" x="63.623047"/>
       <use xlink:href="#DejaVuSans-30" x="127.246094"/>
      </g>
     </g>
    </g>
    <g id="ytick_4">
     <g id="line2d_11">
      <g>
       <use xlink:href="#me09ab92341" x="43.465625" y="74.389219" style="stroke: #000000; stroke-width: 0.8"/>
      </g>
     </g>
     <g id="text_12">
      <!-- 500 -->
      <g transform="translate(20.878125 78.188437) scale(0.1 -0.1)">
       <use xlink:href="#DejaVuSans-35"/>
       <use xlink:href="#DejaVuSans-30" x="63.623047"/>
       <use xlink:href="#DejaVuSans-30" x="127.246094"/>
      </g>
     </g>
    </g>
    <g id="ytick_5">
     <g id="line2d_12">
      <g>
       <use xlink:href="#me09ab92341" x="43.465625" y="53.259219" style="stroke: #000000; stroke-width: 0.8"/>
      </g>
     </g>
     <g id="text_13">
      <!-- 550 -->
      <g transform="translate(20.878125 57.058437) scale(0.1 -0.1)">
       <use xlink:href="#DejaVuSans-35"/>
       <use xlink:href="#DejaVuSans-35" x="63.623047"/>
       <use xlink:href="#DejaVuSans-30" x="127.246094"/>
      </g>
     </g>
    </g>
    <g id="ytick_6">
     <g id="line2d_13">
      <g>
       <use xlink:href="#me09ab92341" x="43.465625" y="32.129219" style="stroke: #000000; stroke-width: 0.8"/>
      </g>
     </g>
     <g id="text_14">
      <!-- 600 -->
      <g transform="translate(20.878125 35.928437) scale(0.1 -0.1)">
       <defs>
        <path id="DejaVuSans-36" d="M 2113 2584 
Q 1688 2584 1439 2293 
Q 1191 2003 1191 1497 
Q 1191 994 1439 701 
Q 1688 409 2113 409 
Q 2538 409 2786 701 
Q 3034 994 3034 1497 
Q 3034 2003 2786 2293 
Q 2538 2584 2113 2584 
z
M 3366 4563 
L 3366 3988 
Q 3128 4100 2886 4159 
Q 2644 4219 2406 4219 
Q 1781 4219 1451 3797 
Q 1122 3375 1075 2522 
Q 1259 2794 1537 2939 
Q 1816 3084 2150 3084 
Q 2853 3084 3261 2657 
Q 3669 2231 3669 1497 
Q 3669 778 3244 343 
Q 2819 -91 2113 -91 
Q 1303 -91 875 529 
Q 447 1150 447 2328 
Q 447 3434 972 4092 
Q 1497 4750 2381 4750 
Q 2619 4750 2861 4703 
Q 3103 4656 3366 4563 
z
" transform="scale(0.015625)"/>
       </defs>
       <use xlink:href="#DejaVuSans-36"/>
       <use xlink:href="#DejaVuSans-30" x="63.623047"/>
       <use xlink:href="#DejaVuSans-30" x="127.246094"/>
      </g>
     </g>
    </g>
    <g id="ytick_7">
     <g id="line2d_14">
      <g>
       <use xlink:href="#me09ab92341" x="43.465625" y="10.999219" style="stroke: #000000; stroke-width: 0.8"/>
      </g>
     </g>
     <g id="text_15">
      <!-- 650 -->
      <g transform="translate(20.878125 14.798437) scale(0.1 -0.1)">
       <use xlink:href="#DejaVuSans-36"/>
       <use xlink:href="#DejaVuSans-35" x="63.623047"/>
       <use xlink:href="#DejaVuSans-30" x="127.246094"/>
      </g>
     </g>
    </g>
    <g id="text_16">
     <!-- ADC value -->
     <g transform="translate(14.798438 100.397812) rotate(-90) scale(0.1 -0.1)">
      <defs>
       <path id="DejaVuSans-41" d="M 2188 4044 
L 1331 1722 
L 3047 1722 
L 2188 4044 
z
M 1831 4666 
L 2547 4666 
L 4325 0 
L 3669 0 
L 3244 1197 
L 1141 1197 
L 716 0 
L 50 0 
L 1831 4666 
z
" transform="scale(0.015625)"/>
       <path id="DejaVuSans-44" d="M 1259 4147 
L 1259 519 
L 2022 519 
Q 2988 519 3436 956 
Q 3884 1394 3884 2338 
Q 3884 3275 3436 3711 
Q 2988 4147 2022 4147 
L 1259 4147 
z
M 628 4666 
L 1925 4666 
Q 3281 4666 3915 4102 
Q 4550 3538 4550 2338 
Q 4550 1131 3912 565 
Q 3275 0 1925 0 
L 628 0 
L 628 4666 
z
" transform="scale(0.015625)"/>
       <path id="DejaVuSans-43" d="M 4122 4306 
L 4122 3641 
Q 3803 3938 3442 4084 
Q 3081 4231 2675 4231 
Q 1875 4231 1450 3742 
Q 1025 3253 1025 2328 
Q 1025 1406 1450 917 
Q 1875 428 2675 428 
Q 3081 428 3442 575 
Q 3803 722 4122 1019 
L 4122 359 
Q 3791 134 3420 21 
Q 3050 -91 2638 -91 
Q 1578 -91 968 557 
Q 359 1206 359 2328 
Q 359 3453 968 4101 
Q 1578 4750 2638 4750 
Q 3056 4750 3426 4639 
Q 3797 4528 4122 4306 
z
" transform="scale(0.015625)"/>
       <path id="DejaVuSans-76" d="M 191 3500 
L 800 3500 
L 1894 563 
L 2988 3500 
L 3597 3500 
L 2284 0 
L 1503 0 
L 191 3500 
z
" transform="scale(0.015625)"/>
       <path id="DejaVuSans-61" d="M 2194 1759 
Q 1497 1759 1228 1600 
Q 959 1441 959 1056 
Q 959 750 1161 570 
Q 1363 391 1709 391 
Q 2188 391 2477 730 
Q 2766 1069 2766 1631 
L 2766 1759 
L 2194 1759 
z
M 3341 1997 
L 3341 0 
L 2766 0 
L 2766 531 
Q 2569 213 2275 61 
Q 1981 -91 1556 -91 
Q 1019 -91 701 211 
Q 384 513 384 1019 
Q 384 1609 779 1909 
Q 1175 2209 1959 2209 
L 2766 2209 
L 2766 2266 
Q 2766 2663 2505 2880 
Q 2244 3097 1772 3097 
Q 1472 3097 1187 3025 
Q 903 2953 641 2809 
L 641 3341 
Q 956 3463 1253 3523 
Q 1550 3584 1831 3584 
Q 2591 3584 2966 3190 
Q 3341 2797 3341 1997 
z
" transform="scale(0.015625)"/>
       <path id="DejaVuSans-6c" d="M 603 4863 
L 1178 4863 
L 1178 0 
L 603 0 
L 603 4863 
z
" transform="scale(0.015625)"/>
       <path id="DejaVuSans-75" d="M 544 1381 
L 544 3500 
L 1119 3500 
L 1119 1403 
Q 1119 906 1312 657 
Q 1506 409 1894 409 
Q 2359 409 2629 706 
Q 2900 1003 2900 1516 
L 2900 3500 
L 3475 3500 
L 3475 0 
L 2900 0 
L 2900 538 
Q 2691 219 2414 64 
Q 2138 -91 1772 -91 
Q 1169 -91 856 284 
Q 544 659 544 1381 
z
M 1991 3584 
L 1991 3584 
z
" transform="scale(0.015625)"/>
      </defs>
      <use xlink:href="#DejaVuSans-41"/>
      <use xlink:href="#DejaVuSans-44" x="68.408203"/>
      <use xlink:href="#DejaVuSans-43" x="145.410156"/>
      <use xlink:href="#DejaVuSans-20" x="215.234375"/>
      <use xlink:href="#DejaVuSans-76" x="247.021484"/>
      <use xlink:href="#DejaVuSans-61" x="306.201172"/>
      <use xlink:href="#DejaVuSans-6c" x="367.480469"/>
      <use xlink:href="#DejaVuSans-75" x="395.263672"/>
      <use xlink:href="#DejaVuSans-65" x="458.642578"/>
     </g>
    </g>
   </g>
   <g id="line2d_15">
    <path d="M 60.449716 74.21828 
L 60.676322 72.698983 
L 60.902927 77.756188 
L 61.129533 72.044301 
L 61.582744 79.746357 
L 62.035955 72.365556 
L 62.262561 73.265948 
L 62.489166 78.268608 
L 62.715772 72.29762 
L 62.942378 74.686685 
L 63.168983 72.952134 
L 63.395589 73.265937 
L 63.622195 78.300183 
L 63.8488 73.202568 
L 64.075406 76.440983 
L 64.302011 69.159191 
L 64.981828 77.712517 
L 65.208434 74.205193 
L 65.435039 73.848653 
L 65.661645 78.476431 
L 65.888251 66.872483 
L 66.114856 73.056185 
L 66.341462 68.667696 
L 66.568068 78.151414 
L 66.794673 68.859083 
L 67.021279 78.990371 
L 67.247884 76.590883 
L 67.47449 72.555299 
L 67.701096 74.226919 
L 67.927701 82.361394 
L 68.154307 78.126977 
L 68.607518 67.330545 
L 69.060729 75.323007 
L 69.287335 71.696371 
L 69.513941 78.256173 
L 69.740546 72.665282 
L 69.967152 78.944713 
L 70.193757 74.420863 
L 70.420363 74.831105 
L 70.646969 71.677524 
L 70.873574 75.413479 
L 71.10018 70.325488 
L 71.326785 75.054375 
L 71.553391 71.561083 
L 71.779997 71.729874 
L 72.006602 80.612852 
L 72.233208 74.262278 
L 72.459814 74.267753 
L 72.686419 77.021983 
L 72.913025 73.782667 
L 73.13963 79.310089 
L 73.366236 72.508868 
L 73.592842 72.665758 
L 73.819447 73.373472 
L 74.046053 66.016383 
L 74.272658 73.198016 
L 74.499264 74.161113 
L 74.72587 76.864859 
L 74.952475 73.384644 
L 75.179081 77.640794 
L 75.405687 70.089454 
L 75.632292 76.578775 
L 75.858898 73.853465 
L 76.085503 67.661146 
L 76.538715 73.568833 
L 76.76532 69.723985 
L 76.991926 74.573671 
L 77.218531 71.700692 
L 77.671743 77.450324 
L 77.898348 72.934557 
L 78.124954 71.229354 
L 78.578165 78.098368 
L 78.804771 76.174944 
L 79.031376 82.434763 
L 79.257982 76.443676 
L 79.484588 78.024559 
L 79.711193 67.551872 
L 79.937799 76.298949 
L 80.164404 79.605553 
L 80.39101 71.445077 
L 80.617616 74.98157 
L 81.070827 73.751444 
L 81.297433 73.681572 
L 81.524038 75.655142 
L 81.750644 71.161574 
L 81.977249 72.620223 
L 82.203855 76.065482 
L 82.430461 74.968906 
L 82.657066 77.58194 
L 82.883672 73.439671 
L 83.110277 71.893353 
L 83.563489 72.310904 
L 83.790094 74.817122 
L 84.0167 69.051361 
L 84.243306 75.089659 
L 84.469911 74.287568 
L 84.696517 75.525776 
L 84.923122 74.114482 
L 85.149728 75.202383 
L 85.376334 67.518827 
L 85.829545 80.078986 
L 86.056151 75.856102 
L 86.282756 79.177201 
L 86.509362 71.414456 
L 86.735967 69.741994 
L 86.962573 75.914105 
L 87.189179 72.314988 
L 87.415784 75.099716 
L 87.64239 73.009656 
L 87.868995 68.532326 
L 88.095601 75.570632 
L 88.322207 78.558208 
L 88.548812 71.960877 
L 88.775418 72.642834 
L 89.002024 72.111231 
L 89.228629 70.91898 
L 89.68184 81.035921 
L 89.908446 70.870123 
L 90.361657 78.471198 
L 90.588263 78.338975 
L 90.814868 70.574414 
L 91.041474 73.777857 
L 91.26808 73.365168 
L 91.494685 71.514231 
L 91.721291 76.677685 
L 91.947897 78.193006 
L 92.174502 77.272876 
L 92.401108 78.123565 
L 92.627713 75.373355 
L 92.854319 77.40143 
L 93.080925 74.258601 
L 93.30753 76.014874 
L 93.534136 74.659613 
L 93.987347 69.651782 
L 94.213953 69.128904 
L 94.440558 74.00069 
L 94.667164 73.671237 
L 94.89377 76.107951 
L 95.120375 70.988195 
L 95.346981 69.21054 
L 95.573586 76.396068 
L 95.800192 71.80593 
L 96.026798 75.503417 
L 96.253403 74.967724 
L 96.480009 73.766189 
L 96.706614 75.745517 
L 96.93322 71.36305 
L 97.159826 79.446396 
L 97.613037 74.792925 
L 97.839643 77.921559 
L 98.066248 73.169974 
L 98.292854 79.510807 
L 98.519459 74.202674 
L 98.746065 79.258466 
L 98.972671 74.880269 
L 99.199276 72.671525 
L 99.425882 66.93941 
L 99.652487 70.745953 
L 99.879093 68.92165 
L 100.105699 74.159418 
L 100.332304 67.236339 
L 100.55891 75.204866 
L 100.785516 75.241848 
L 101.012121 78.723684 
L 101.465332 70.827207 
L 101.691938 76.532166 
L 101.918544 75.642151 
L 102.145149 75.956372 
L 102.371755 75.509794 
L 102.59836 76.385187 
L 102.824966 78.953433 
L 103.051572 69.720442 
L 103.278177 81.055322 
L 103.957994 70.969331 
L 104.1846 75.094456 
L 104.411205 75.346818 
L 104.637811 74.221948 
L 104.864417 75.272663 
L 105.091022 71.425128 
L 105.317628 76.021735 
L 105.544233 77.720721 
L 105.997445 74.063756 
L 106.22405 70.233494 
L 106.450656 68.980353 
L 106.903867 79.339331 
L 107.130473 79.067794 
L 107.357078 67.20393 
L 107.583684 75.751241 
L 107.81029 72.841129 
L 108.036895 67.907262 
L 108.263501 76.688556 
L 108.490106 75.047035 
L 108.943318 78.094292 
L 109.169923 71.685405 
L 109.396529 70.786301 
L 109.623135 80.723954 
L 109.84974 71.070251 
L 110.076346 75.186976 
L 110.302951 73.768415 
L 110.529557 73.720263 
L 110.756163 78.806365 
L 110.982768 75.440211 
L 111.209374 77.739298 
L 111.435979 67.914136 
L 111.662585 66.999303 
L 112.115796 78.375033 
L 112.342402 70.480824 
L 112.569008 75.031577 
L 112.795613 68.48822 
L 113.022219 67.733372 
L 113.248824 68.733457 
L 113.47543 75.725512 
L 113.702036 77.76351 
L 113.928641 76.630858 
L 114.155247 74.714943 
L 114.381852 77.512427 
L 114.608458 70.354678 
L 115.288275 75.742867 
L 115.741486 69.729058 
L 115.968092 80.913471 
L 116.194697 73.598539 
L 116.647909 76.905311 
L 117.10112 73.934443 
L 117.327725 68.068592 
L 117.554331 74.19632 
L 117.780937 75.842174 
L 118.007542 78.538103 
L 118.234148 71.772482 
L 118.460754 76.931143 
L 118.913965 71.978415 
L 119.367176 75.694981 
L 119.593782 74.97315 
L 119.820387 71.35208 
L 120.046993 74.455605 
L 120.500204 72.959653 
L 120.72681 75.520229 
L 120.953415 73.280522 
L 121.180021 75.325055 
L 121.406627 70.555921 
L 121.633232 72.692699 
L 121.859838 80.239145 
L 122.313049 70.639321 
L 122.539655 75.108876 
L 122.76626 75.817666 
L 122.992866 71.029773 
L 123.219472 78.049361 
L 123.446077 74.169349 
L 123.672683 72.393995 
L 123.899288 71.509022 
L 124.125894 77.882769 
L 124.3525 78.602413 
L 124.579105 69.33642 
L 124.805711 77.020907 
L 125.032316 74.6931 
L 125.258922 66.169737 
L 125.712133 81.833959 
L 125.938739 64.967593 
L 126.165345 70.965891 
L 126.39195 73.176219 
L 126.618556 65.000282 
L 126.845161 74.643677 
L 127.071767 69.500809 
L 127.298373 74.347094 
L 127.524978 75.321118 
L 127.751584 72.250814 
L 127.978189 71.39928 
L 128.204795 70.053791 
L 128.431401 70.350798 
L 128.658006 76.075294 
L 128.884612 74.662183 
L 129.111218 67.837663 
L 129.337823 72.330862 
L 129.564429 74.059459 
L 129.791034 69.83383 
L 130.01764 69.655555 
L 130.244246 70.028059 
L 130.470851 76.235761 
L 130.697457 75.690105 
L 130.924062 71.846403 
L 131.150668 70.358071 
L 131.377274 78.429485 
L 131.603879 75.927562 
L 131.830485 75.165754 
L 132.057091 70.983918 
L 132.283696 78.050634 
L 132.510302 65.244278 
L 132.736907 74.084764 
L 132.963513 72.292841 
L 133.190119 66.850491 
L 133.416724 72.262114 
L 133.64333 71.836236 
L 133.869935 74.970438 
L 134.096541 72.782333 
L 134.323147 77.937324 
L 134.549752 74.624341 
L 134.776358 74.240056 
L 135.002964 77.712447 
L 135.229569 70.962609 
L 135.456175 72.835465 
L 135.68278 80.65362 
L 135.909386 71.694643 
L 136.135992 77.491918 
L 136.362597 72.394246 
L 136.589203 77.071586 
L 136.815808 75.572419 
L 137.042414 72.94402 
L 137.26902 67.803577 
L 137.495625 79.468085 
L 137.722231 75.52887 
L 137.948837 75.512019 
L 138.175442 70.662012 
L 138.402048 75.186158 
L 138.855259 69.852996 
L 139.081865 71.767517 
L 139.30847 75.764126 
L 139.535076 75.819487 
L 139.761681 75.256522 
L 139.988287 73.830168 
L 140.214893 77.252109 
L 140.668104 72.405255 
L 140.89471 75.935319 
L 141.121315 75.968841 
L 141.574526 71.653801 
L 141.801132 78.884407 
L 142.027738 77.688037 
L 142.254343 70.019477 
L 142.707554 78.081633 
L 143.160766 69.016161 
L 143.387371 76.453437 
L 143.613977 77.613344 
L 143.840583 75.213677 
L 144.067188 68.989763 
L 144.293794 76.59296 
L 144.520399 72.585045 
L 144.747005 70.981411 
L 144.973611 72.285611 
L 145.200216 75.536762 
L 145.426822 72.184513 
L 145.653427 73.818361 
L 145.880033 71.643272 
L 146.333244 73.902914 
L 146.55985 80.238756 
L 146.786456 72.207197 
L 147.013061 74.772947 
L 147.239667 81.392264 
L 147.466272 74.532979 
L 147.692878 73.387471 
L 147.919484 74.788318 
L 148.146089 82.627245 
L 148.372695 76.833813 
L 148.5993 77.640243 
L 148.825906 75.458565 
L 149.052512 82.141099 
L 149.279117 73.435134 
L 149.505723 72.585334 
L 149.732329 72.446569 
L 149.958934 74.568341 
L 150.18554 74.719826 
L 150.412145 70.987627 
L 150.638751 72.853244 
L 150.865357 75.790472 
L 151.318568 72.03925 
L 151.545173 70.330539 
L 151.771779 72.794628 
L 151.998385 77.014117 
L 152.22499 76.020263 
L 152.451596 73.627226 
L 152.678202 73.335432 
L 152.904807 70.937294 
L 153.131413 80.690458 
L 153.358018 76.768296 
L 153.584624 78.226562 
L 153.81123 70.726577 
L 154.264441 73.237168 
L 154.491046 71.636907 
L 154.717652 76.260062 
L 154.944258 72.584767 
L 155.170863 74.139641 
L 155.397469 74.03035 
L 155.624075 74.760881 
L 155.85068 71.137385 
L 156.077286 70.769645 
L 156.303891 79.140204 
L 156.757103 74.068818 
L 156.983708 72.422109 
L 157.210314 79.748804 
L 157.663525 75.388498 
L 157.890131 68.484906 
L 158.116736 77.268513 
L 158.569948 74.46328 
L 158.796553 74.707264 
L 159.023159 73.842022 
L 159.47637 74.995011 
L 159.702976 73.413025 
L 159.929581 73.440068 
L 160.156187 73.096803 
L 160.382793 73.021031 
L 160.609398 78.275952 
L 160.836004 73.776087 
L 161.062609 73.852109 
L 161.289215 71.742135 
L 161.515821 72.044689 
L 161.742426 69.156806 
L 161.969032 77.028455 
L 162.422243 73.631253 
L 162.648849 76.464843 
L 162.875454 75.254123 
L 163.328666 75.947589 
L 163.555271 66.71625 
L 163.781877 74.599525 
L 164.008482 69.404955 
L 164.235088 77.20449 
L 164.461694 73.394594 
L 164.688299 76.456249 
L 165.368116 67.812538 
L 165.594722 71.593083 
L 166.047933 74.290093 
L 166.274539 72.999324 
L 166.501144 69.699351 
L 166.72775 79.730288 
L 166.954355 75.315464 
L 167.180961 77.543651 
L 167.407567 70.920234 
L 167.634172 78.435636 
L 167.860778 71.485987 
L 168.087383 78.14228 
L 168.313989 77.88434 
L 168.540595 69.265999 
L 168.7672 70.874864 
L 168.993806 77.282945 
L 169.220412 80.093572 
L 169.447017 77.433276 
L 169.673623 72.315198 
L 170.126834 77.434579 
L 170.580045 69.699962 
L 170.806651 78.063932 
L 171.033256 74.564174 
L 171.259862 76.981124 
L 171.486468 70.638623 
L 172.166285 79.813758 
L 172.39289 71.975411 
L 172.619496 75.253366 
L 172.846101 73.850159 
L 173.072707 74.916872 
L 173.299313 72.952796 
L 173.525918 80.110118 
L 173.979129 73.183903 
L 174.205735 68.250184 
L 174.432341 73.245653 
L 175.112158 76.552682 
L 175.338763 75.046212 
L 175.565369 76.958764 
L 175.791974 73.895858 
L 176.01858 74.273438 
L 176.245186 67.642292 
L 176.471791 74.616162 
L 176.698397 70.59943 
L 176.925002 75.713817 
L 177.378214 66.123761 
L 177.604819 76.194073 
L 177.831425 78.143348 
L 178.058031 70.70064 
L 178.284636 74.066269 
L 178.511242 75.121282 
L 178.737847 72.755754 
L 178.964453 73.271844 
L 179.191059 70.091696 
L 180.097481 80.01034 
L 180.324087 77.846227 
L 180.550692 70.531797 
L 180.777298 79.053701 
L 181.230509 70.132244 
L 181.457115 72.276271 
L 181.68372 69.123247 
L 181.910326 71.77633 
L 182.136932 69.002791 
L 182.363537 76.172099 
L 182.590143 77.022599 
L 182.816748 67.701541 
L 183.043354 73.091579 
L 183.26996 73.948091 
L 183.496565 76.149539 
L 183.723171 68.88631 
L 183.949777 72.625008 
L 184.176382 72.579248 
L 184.402988 76.415934 
L 184.629593 73.969878 
L 184.856199 75.684843 
L 185.30941 73.180311 
L 185.536016 75.969527 
L 185.762621 77.082846 
L 185.989227 71.624067 
L 186.215833 77.668107 
L 186.442438 69.588478 
L 186.669044 69.133855 
L 186.89565 78.935339 
L 187.122255 68.870612 
L 187.348861 77.028221 
L 187.575466 69.871803 
L 187.802072 76.209489 
L 188.028678 71.709682 
L 188.255283 77.783452 
L 188.481889 72.137642 
L 188.708494 74.002683 
L 188.9351 68.960124 
L 189.161706 71.739036 
L 189.388311 77.265118 
L 189.614917 73.201234 
L 189.841523 76.527591 
L 190.068128 73.645079 
L 190.294734 69.099531 
L 190.521339 68.986961 
L 190.974551 76.974112 
L 191.201156 73.986976 
L 191.427762 67.264154 
L 191.880973 79.126048 
L 192.107579 78.889546 
L 192.334184 78.245945 
L 192.56079 70.618662 
L 192.787396 75.390597 
L 193.014001 76.746321 
L 193.467212 71.010643 
L 193.920424 76.946409 
L 194.373635 71.516788 
L 194.600241 79.810038 
L 194.826846 78.964635 
L 195.053452 67.572354 
L 195.280057 72.813089 
L 195.506663 73.051748 
L 195.733269 78.943106 
L 195.959874 77.570894 
L 196.18648 75.149285 
L 196.413085 70.070169 
L 196.866297 79.716121 
L 197.092902 69.109543 
L 197.319508 68.955827 
L 197.546114 71.346036 
L 197.772719 77.972319 
L 198.452536 73.862371 
L 198.679142 68.262239 
L 198.905747 78.827779 
L 199.358958 74.352592 
L 199.585564 76.22193 
L 199.81217 76.02901 
L 200.038775 79.30398 
L 200.265381 74.19532 
L 200.491987 75.435448 
L 200.718592 73.759701 
L 200.945198 71.25448 
L 201.171803 75.250677 
L 201.398409 74.774744 
L 201.625015 73.464309 
L 201.85162 75.871947 
L 202.078226 73.698244 
L 202.304831 80.219151 
L 202.531437 77.249809 
L 202.758043 72.653506 
L 202.984648 73.699885 
L 203.211254 71.620116 
L 203.43786 78.834114 
L 203.891071 74.64326 
L 204.117676 74.701078 
L 204.344282 75.122476 
L 204.570888 69.631079 
L 204.797493 75.9282 
L 205.024099 75.461575 
L 205.250704 72.683381 
L 205.47731 72.808159 
L 205.703916 73.945021 
L 205.930521 68.831222 
L 206.383733 75.174385 
L 206.610338 77.615266 
L 206.836944 70.29395 
L 207.063549 76.476076 
L 207.290155 73.0915 
L 207.516761 76.153763 
L 207.743366 67.344718 
L 207.969972 71.961605 
L 208.196577 80.277947 
L 208.423183 73.436891 
L 208.649789 79.017409 
L 208.876394 76.284488 
L 209.103 71.710036 
L 209.329606 78.73222 
L 209.556211 73.311244 
L 209.782817 74.663003 
L 210.009422 71.89868 
L 210.236028 77.668276 
L 210.462634 72.353287 
L 210.689239 75.628728 
L 210.915845 70.98677 
L 211.14245 74.287256 
L 211.595662 69.951541 
L 211.822267 70.780038 
L 212.048873 74.544573 
L 212.275479 72.086257 
L 212.502084 74.450838 
L 212.72869 73.029602 
L 212.955295 69.027119 
L 213.181901 77.329363 
L 213.408507 78.422463 
L 213.635112 72.861276 
L 213.861718 76.354346 
L 214.088323 70.351653 
L 214.76814 74.533535 
L 215.221352 77.421595 
L 215.447957 76.31902 
L 215.674563 74.578591 
L 215.901168 77.674381 
L 216.127774 71.062969 
L 216.35438 72.352624 
L 216.807591 83.500972 
L 217.034196 70.796234 
L 217.487408 84.136802 
L 217.714013 80.020589 
L 218.167225 69.928632 
L 218.39383 71.349221 
L 218.847041 68.472338 
L 219.073647 68.170573 
L 219.300253 77.61633 
L 219.526858 75.050092 
L 219.753464 76.489329 
L 219.980069 74.207139 
L 220.206675 75.566292 
L 220.433281 73.503627 
L 220.659886 68.25232 
L 220.886492 76.762406 
L 221.113098 71.902059 
L 221.339703 77.643371 
L 221.566309 78.721448 
L 221.792914 70.98963 
L 222.01952 74.848116 
L 222.246126 74.150127 
L 222.472731 69.529941 
L 222.699337 78.847266 
L 223.152548 69.467948 
L 223.379154 77.840742 
L 223.832365 71.26823 
L 224.058971 71.262485 
L 224.285576 72.116875 
L 224.512182 71.102185 
L 224.738787 72.751652 
L 224.965393 71.733889 
L 225.191999 73.081156 
L 225.418604 77.394893 
L 225.64521 73.99151 
L 225.871815 74.741806 
L 226.098421 70.559346 
L 226.325027 72.658373 
L 226.551632 72.627897 
L 226.778238 73.726042 
L 227.004844 72.144057 
L 227.231449 76.176061 
L 227.458055 73.417497 
L 227.68466 76.635702 
L 227.911266 75.516445 
L 228.137872 78.081143 
L 228.364477 66.90075 
L 228.817688 77.530935 
L 229.2709 73.201127 
L 229.497505 75.831059 
L 229.724111 71.860207 
L 229.950717 72.86371 
L 230.177322 70.507392 
L 230.403928 83.814582 
L 230.630533 71.817458 
L 230.857139 73.557751 
L 231.083745 70.984356 
L 231.31035 76.229272 
L 231.536956 76.80573 
L 231.763562 78.142897 
L 231.990167 72.771411 
L 232.216773 73.804743 
L 232.443378 80.042592 
L 232.669984 76.241786 
L 232.89659 74.438686 
L 233.123195 78.350811 
L 233.349801 75.590758 
L 233.576406 74.708344 
L 233.803012 76.268555 
L 234.029618 79.80417 
L 234.256223 70.522481 
L 234.482829 73.532732 
L 234.709435 73.206465 
L 234.93604 76.291171 
L 235.162646 73.776305 
L 235.389251 76.633445 
L 235.615857 74.769906 
L 235.842463 73.903665 
L 236.069068 72.406807 
L 236.295674 76.32135 
L 236.522279 76.938623 
L 236.748885 70.182621 
L 236.975491 78.997371 
L 237.202096 73.709468 
L 237.428702 74.720223 
L 237.655308 72.071868 
L 238.108519 77.810802 
L 238.335124 73.970726 
L 238.56173 78.88976 
L 238.788336 77.893564 
L 239.014941 74.456291 
L 239.241547 73.983198 
L 239.468152 79.254637 
L 239.694758 70.152102 
L 239.921364 74.513714 
L 240.147969 70.241302 
L 240.374575 70.680027 
L 240.601181 74.188288 
L 240.827786 75.722938 
L 241.054392 79.098844 
L 241.280997 71.03201 
L 241.507603 69.216515 
L 241.734209 73.815987 
L 241.960814 74.171718 
L 242.18742 77.379238 
L 242.414025 77.751865 
L 242.867237 70.299793 
L 243.093842 75.274494 
L 243.320448 71.428602 
L 243.773659 74.718975 
L 244.000265 77.133461 
L 244.22687 75.588392 
L 244.453476 78.345195 
L 244.680082 71.496508 
L 244.906687 72.659348 
L 245.133293 77.578658 
L 245.359898 76.58872 
L 245.586504 78.71177 
L 245.81311 73.81453 
L 246.039715 72.317296 
L 246.266321 77.297231 
L 246.492927 75.775762 
L 246.719532 73.053281 
L 246.946138 79.825889 
L 247.399349 69.06942 
L 247.625955 68.87291 
L 247.85256 74.735032 
L 248.079166 74.449382 
L 248.305771 71.787303 
L 248.532377 72.043119 
L 248.758983 69.364546 
L 248.985588 73.405053 
L 249.212194 73.097225 
L 249.4388 73.110523 
L 249.665405 68.57004 
L 249.892011 77.29376 
L 250.118616 69.868087 
L 250.345222 73.264898 
L 250.571828 73.068839 
L 250.798433 76.770846 
L 251.025039 74.133886 
L 251.251644 76.956438 
L 251.47825 82.58919 
L 251.704856 73.197892 
L 251.931461 78.438363 
L 252.158067 73.813208 
L 252.384673 78.316246 
L 252.611278 75.203782 
L 252.837884 75.322728 
L 253.064489 79.715527 
L 253.291095 73.953269 
L 253.517701 75.973798 
L 253.744306 81.906494 
L 253.970912 67.970521 
L 254.197517 72.366808 
L 254.424123 72.797206 
L 254.650729 73.875106 
L 254.877334 71.196015 
L 255.10394 75.603678 
L 255.330546 71.586618 
L 255.557151 70.839846 
L 255.783757 75.637522 
L 256.010362 73.827021 
L 256.236968 73.474534 
L 256.463574 78.867742 
L 256.690179 72.794559 
L 256.916785 74.202303 
L 257.14339 69.929885 
L 257.596602 76.896719 
L 257.823207 73.585493 
L 258.049813 75.734929 
L 258.276419 81.826405 
L 258.503024 74.771236 
L 258.72963 78.339383 
L 258.956235 69.904449 
L 259.182841 73.067218 
L 259.409447 71.235067 
L 259.862658 74.814766 
L 260.089263 71.864758 
L 260.315869 79.232969 
L 260.542475 71.535945 
L 260.76908 74.604417 
L 260.995686 80.726695 
L 261.222292 74.717302 
L 261.448897 72.198595 
L 261.675503 75.75881 
L 261.902108 69.628472 
L 262.128714 69.922976 
L 262.35532 76.173551 
L 262.581925 76.695985 
L 262.808531 74.908443 
L 263.035136 75.738899 
L 263.261742 71.790779 
L 263.488348 70.551606 
L 263.714953 71.991442 
L 263.941559 71.892431 
L 264.168165 74.335979 
L 264.39477 74.582098 
L 264.621376 76.435528 
L 264.847981 66.409313 
L 265.074587 71.111524 
L 265.301193 72.179499 
L 265.754404 79.182803 
L 265.981009 76.664843 
L 266.207615 75.594878 
L 266.434221 75.367895 
L 266.660826 72.049555 
L 266.887432 75.447632 
L 267.114038 72.0518 
L 267.340643 72.531444 
L 267.567249 71.892237 
L 267.793854 74.538047 
L 268.02046 71.582947 
L 268.247066 73.664643 
L 268.473671 73.527425 
L 268.700277 74.708692 
L 268.926883 74.58331 
L 269.380094 71.919584 
L 269.606699 76.522801 
L 270.059911 73.990302 
L 270.286516 70.465607 
L 270.513122 74.126766 
L 270.739727 72.037064 
L 270.966333 71.104796 
L 271.192939 74.060899 
L 271.419544 68.956661 
L 271.64615 77.374822 
L 271.872756 78.657279 
L 272.325967 76.927723 
L 272.779178 75.112234 
L 273.005784 72.999642 
L 273.232389 75.774318 
L 273.458995 76.007157 
L 273.6856 72.282302 
L 273.912206 74.804402 
L 274.138812 73.481884 
L 274.592023 78.526442 
L 274.818629 74.430015 
L 275.045234 74.650547 
L 275.27184 73.024363 
L 275.498445 74.256832 
L 275.725051 77.005672 
L 275.951657 69.357815 
L 276.178262 78.387023 
L 276.404868 80.548983 
L 276.631473 76.503274 
L 276.858079 76.120148 
L 277.084685 72.690347 
L 277.31129 76.281511 
L 277.537896 74.370136 
L 277.764502 73.584593 
L 277.991107 72.08602 
L 278.217713 79.803099 
L 278.444318 73.591804 
L 278.670924 78.496003 
L 278.89753 70.699439 
L 279.124135 76.951264 
L 279.350741 76.704783 
L 279.577346 72.686327 
L 279.803952 74.504131 
L 280.030558 74.736977 
L 280.257163 72.069171 
L 280.483769 76.060373 
L 280.710375 76.450311 
L 280.93698 71.020338 
L 281.163586 76.241987 
L 281.390191 73.78827 
L 281.616797 78.492991 
L 281.843403 74.480763 
L 282.070008 75.464119 
L 282.296614 73.121524 
L 282.523219 66.97344 
L 282.749825 80.816252 
L 283.203036 75.497648 
L 283.429642 73.933903 
L 283.656248 79.266447 
L 283.882853 74.556326 
L 284.109459 77.174266 
L 284.336064 74.170035 
L 284.56267 77.54196 
L 284.789276 65.075781 
L 285.015881 73.68851 
L 285.242487 72.028766 
L 285.469092 82.181658 
L 285.695698 77.109036 
L 285.922304 74.955343 
L 286.148909 68.706165 
L 286.375515 77.19031 
L 286.602121 73.140402 
L 286.828726 77.412061 
L 287.055332 74.829773 
L 287.281937 80.77512 
L 287.508543 80.793456 
L 287.961754 71.600668 
L 288.18836 71.56759 
L 288.641571 78.686308 
L 288.868177 70.639189 
L 289.094782 75.584955 
L 289.321388 77.466321 
L 289.547994 75.710693 
L 289.774599 75.266313 
L 290.001205 68.65672 
L 290.22781 74.472841 
L 290.454416 76.178449 
L 290.681022 75.914542 
L 290.907627 79.637992 
L 291.134233 70.231988 
L 291.360838 77.634802 
L 291.587444 74.004487 
L 291.81405 77.711082 
L 292.040655 77.058655 
L 292.267261 81.718782 
L 292.720472 66.967607 
L 292.947078 68.345387 
L 293.173683 73.005572 
L 293.400289 69.633201 
L 293.626895 77.00162 
L 293.8535 78.225025 
L 294.080106 70.491841 
L 294.306711 76.630569 
L 294.533317 67.216481 
L 294.759923 69.678348 
L 294.986528 78.222118 
L 295.213134 75.605421 
L 295.43974 75.586201 
L 295.666345 71.809 
L 295.892951 75.672495 
L 296.119556 74.492313 
L 296.346162 79.489733 
L 296.572768 68.939325 
L 297.025979 74.136045 
L 297.252584 79.776321 
L 297.47919 73.843116 
L 297.705796 64.303383 
L 297.932401 73.001176 
L 298.159007 70.206311 
L 298.385613 81.650174 
L 298.612218 75.415337 
L 298.838824 75.177208 
L 299.065429 70.732906 
L 299.292035 77.710663 
L 299.518641 71.527875 
L 299.745246 70.719578 
L 299.971852 74.083316 
L 300.198457 74.983618 
L 300.425063 72.877261 
L 300.651669 77.882547 
L 300.878274 79.852516 
L 301.10488 80.2102 
L 301.331486 73.91891 
L 301.558091 75.452779 
L 301.784697 74.959531 
L 302.011302 76.403973 
L 302.237908 74.870905 
L 302.464514 68.234743 
L 302.691119 75.593391 
L 303.144331 78.700299 
L 303.370936 77.815021 
L 303.597542 72.699224 
L 303.824147 75.341117 
L 304.050753 75.924163 
L 304.277359 75.322867 
L 304.503964 79.475114 
L 304.957175 76.002796 
L 305.183781 76.045479 
L 305.636992 71.656152 
L 305.863598 76.920417 
L 306.090204 73.605889 
L 306.316809 73.370642 
L 306.543415 76.70819 
L 306.77002 72.836149 
L 306.996626 71.385288 
L 307.223232 80.142471 
L 307.449837 73.256177 
L 307.676443 73.281756 
L 307.903048 73.594955 
L 308.129654 79.811334 
L 308.35626 71.276109 
L 308.809471 77.38899 
L 309.036077 79.955152 
L 309.262682 73.239904 
L 309.489288 75.245252 
L 309.715893 79.279486 
L 309.942499 69.12674 
L 310.169105 78.810472 
L 310.39571 72.383949 
L 310.622316 77.888353 
L 311.075527 72.360641 
L 311.302133 75.460136 
L 311.528738 72.744848 
L 311.755344 74.472151 
L 311.98195 69.435432 
L 312.208555 72.028767 
L 312.435161 72.791569 
L 312.661766 76.859896 
L 312.888372 75.806955 
L 313.114978 73.701525 
L 313.341583 68.638084 
L 313.568189 69.289944 
L 313.794794 73.734725 
L 314.0214 70.392918 
L 314.248006 73.782724 
L 314.474611 73.523816 
L 314.701217 74.049432 
L 314.927823 75.285678 
L 315.154428 72.536757 
L 315.381034 63.793663 
L 315.607639 75.186493 
L 315.834245 70.33824 
L 316.060851 71.20446 
L 316.287456 74.048962 
L 316.514062 71.598277 
L 316.740667 75.681375 
L 316.967273 73.720462 
L 317.193879 69.285332 
L 317.420484 68.8539 
L 317.64709 74.24352 
L 317.873696 74.770778 
L 318.100301 78.678001 
L 318.326907 71.666449 
L 318.553512 76.066542 
L 318.780118 77.115138 
L 319.006724 73.488499 
L 319.233329 74.366023 
L 319.459935 79.121314 
L 319.68654 70.291481 
L 319.913146 79.984129 
L 320.139752 79.885872 
L 320.366357 71.180139 
L 320.819569 80.2215 
L 321.046174 70.947842 
L 321.27278 71.446754 
L 321.499385 75.111459 
L 321.725991 74.751002 
L 321.952597 73.847844 
L 322.179202 71.710801 
L 322.632413 78.251356 
L 322.859019 74.829062 
L 323.085625 76.235843 
L 323.31223 80.017889 
L 323.538836 76.205721 
L 323.765442 78.086487 
L 324.218653 70.481532 
L 324.445258 72.856944 
L 324.671864 64.96929 
L 324.89847 72.99938 
L 325.125075 73.990779 
L 325.351681 77.563989 
L 325.578286 71.581648 
L 325.804892 73.268895 
L 326.031498 80.038704 
L 326.484709 72.290366 
L 326.711315 76.029674 
L 326.93792 73.059935 
L 327.164526 73.723423 
L 327.391131 67.476263 
L 327.617737 79.492531 
L 327.844343 75.020759 
L 328.070948 78.984739 
L 328.297554 77.475069 
L 328.524159 67.814768 
L 328.750765 71.278635 
L 328.977371 72.385082 
L 329.203976 74.600468 
L 329.430582 74.287989 
L 329.657188 67.485911 
L 329.883793 77.913885 
L 330.110399 70.007146 
L 330.337004 70.613442 
L 330.56361 77.467151 
L 330.790216 73.575923 
L 331.016821 76.752397 
L 331.470032 71.350475 
L 331.696638 73.317779 
L 331.923244 70.140886 
L 332.149849 71.748906 
L 332.376455 81.933134 
L 332.603061 71.545148 
L 333.056272 84.301443 
L 333.282877 75.486337 
L 333.509483 76.137114 
L 333.736089 67.273849 
L 333.962694 70.803659 
L 334.1893 71.393518 
L 334.415905 74.099746 
L 334.642511 71.212611 
L 334.869117 76.526564 
L 335.095722 70.490006 
L 335.322328 75.84605 
L 335.775539 73.315696 
L 336.002145 76.705605 
L 336.22875 64.174976 
L 336.455356 73.557346 
L 336.908567 77.467647 
L 337.135173 76.501054 
L 337.588384 72.416977 
L 337.81499 79.3438 
L 338.041595 75.87092 
L 338.268201 68.087436 
L 338.494807 73.217007 
L 338.948018 75.588958 
L 339.174623 75.057871 
L 339.401229 73.792223 
L 339.627835 69.52619 
L 339.85444 69.685295 
L 340.081046 76.121231 
L 340.307652 77.253378 
L 340.534257 72.603989 
L 340.760863 76.208549 
L 340.987468 70.960583 
L 341.214074 70.494478 
L 341.667285 81.471559 
L 341.893891 79.021133 
L 342.120496 74.707814 
L 342.347102 78.398142 
L 342.573708 73.323153 
L 342.800313 73.683101 
L 343.253525 74.910814 
L 343.48013 76.774828 
L 343.706736 72.382391 
L 343.933341 80.936252 
L 344.386553 66.597506 
L 345.066369 75.354516 
L 345.292975 73.074398 
L 345.519581 74.857993 
L 345.746186 68.777019 
L 345.972792 76.305625 
L 346.199398 75.022197 
L 346.426003 78.422933 
L 346.652609 72.41655 
L 346.879214 79.768204 
L 347.10582 71.615883 
L 347.332426 72.549813 
L 347.559031 78.727283 
L 347.785637 73.020503 
L 348.012242 75.282003 
L 348.238848 76.25609 
L 348.465454 78.933543 
L 348.692059 79.919746 
L 348.918665 79.334067 
L 349.145271 80.112926 
L 349.371876 74.294895 
L 349.598482 77.862015 
L 349.825087 67.251488 
L 350.051693 73.180689 
L 350.278299 70.532288 
L 350.504904 76.748603 
L 350.73151 69.13236 
L 350.958115 75.911873 
L 351.184721 71.05902 
L 351.411327 73.234245 
L 351.637932 72.019123 
L 351.864538 78.3426 
L 352.091144 77.60714 
L 352.317749 71.226468 
L 352.544355 72.869802 
L 352.77096 76.400319 
L 352.997566 72.401338 
L 353.450777 76.374201 
L 353.677383 67.483064 
L 353.903988 82.175197 
L 354.3572 71.469977 
L 354.583805 72.99157 
L 354.810411 67.730414 
L 355.037017 72.405023 
L 355.263622 72.66189 
L 355.490228 76.539052 
L 355.716833 68.886193 
L 355.943439 76.422545 
L 356.170045 75.565464 
L 356.39665 75.568596 
L 356.623256 72.215535 
L 356.849861 76.379683 
L 357.076467 74.607906 
L 357.303073 76.129341 
L 357.529678 80.310589 
L 357.756284 76.687382 
L 357.98289 67.438789 
L 358.209495 75.724894 
L 358.436101 73.819196 
L 358.662706 65.637833 
L 358.889312 77.0281 
L 359.115918 71.986797 
L 359.342523 70.273237 
L 359.569129 77.615356 
L 359.795734 69.128787 
L 360.02234 71.334932 
L 360.248946 78.425749 
L 360.475551 74.134192 
L 360.702157 78.512305 
L 360.928763 64.879449 
L 361.155368 67.191865 
L 361.381974 74.318064 
L 361.608579 76.680468 
L 361.835185 72.859549 
L 362.061791 78.252512 
L 362.288396 75.197411 
L 362.515002 78.160102 
L 362.968213 72.974379 
L 363.194819 73.27835 
L 363.421424 71.926628 
L 363.64803 76.105305 
L 363.874636 71.407537 
L 364.101241 74.070647 
L 364.327847 73.18562 
L 364.554452 69.305931 
L 365.007664 77.646542 
L 365.234269 72.060703 
L 365.460875 77.881575 
L 365.68748 74.094433 
L 365.914086 74.558541 
L 366.140692 81.495512 
L 366.593903 77.51874 
L 366.820509 73.231314 
L 367.047114 71.322735 
L 367.27372 74.14518 
L 367.500325 66.520431 
L 367.726931 71.617554 
L 367.953537 79.60549 
L 368.180142 72.237132 
L 368.406748 77.771943 
L 368.633353 77.048562 
L 368.859959 75.356666 
L 369.086565 75.19807 
L 369.539776 71.808533 
L 369.766382 70.63176 
L 369.992987 76.282162 
L 370.219593 74.06903 
L 370.446198 70.401042 
L 370.672804 78.107931 
L 370.89941 70.977991 
L 371.126015 71.898567 
L 371.352621 75.585521 
L 371.579226 70.262314 
L 371.805832 72.972805 
L 372.032438 71.96065 
L 372.259043 68.963449 
L 372.712255 78.198066 
L 372.93886 75.909065 
L 373.165466 78.057222 
L 373.392071 70.962732 
L 373.618677 75.63605 
L 373.845283 75.875286 
L 374.071888 76.537738 
L 374.298494 70.643739 
L 374.525099 73.373036 
L 374.751705 71.788848 
L 374.978311 73.613986 
L 375.204916 76.893698 
L 375.431522 77.501449 
L 375.658128 70.344844 
L 375.884733 75.369346 
L 376.111339 72.130328 
L 376.337944 78.269521 
L 376.56455 75.433001 
L 377.017761 77.325587 
L 377.244367 72.517964 
L 377.470973 71.505324 
L 377.697578 75.304454 
L 377.924184 67.351725 
L 378.377395 79.88365 
L 378.604001 72.683474 
L 378.830606 78.801574 
L 379.510423 70.546055 
L 379.737029 72.550313 
L 379.963634 76.873539 
L 380.19024 70.110021 
L 380.416846 73.576962 
L 380.643451 70.101347 
L 380.870057 70.003236 
L 381.323268 76.860715 
L 381.549874 72.05998 
L 381.776479 74.180947 
L 382.003085 74.669121 
L 382.22969 73.94556 
L 382.456296 77.29458 
L 382.682902 77.863714 
L 383.136113 73.90885 
L 383.362719 75.488469 
L 383.589324 72.314368 
L 383.81593 71.933544 
L 384.042535 72.988979 
L 384.269141 77.837213 
L 384.495747 79.378387 
L 384.722352 77.732293 
L 384.948958 78.428054 
L 385.175563 71.695883 
L 385.402169 71.792754 
L 385.628775 80.01574 
L 385.85538 75.869277 
L 386.081986 74.975926 
L 386.308592 77.439337 
L 386.535197 75.517626 
L 386.761803 77.384144 
L 387.44162 73.337765 
L 387.668225 77.217001 
L 387.894831 72.085683 
L 388.121436 77.370249 
L 388.348042 75.720485 
L 388.574648 75.208676 
L 388.801253 77.637082 
L 389.027859 72.97215 
L 389.254465 76.73817 
L 389.48107 77.668709 
L 389.707676 68.896593 
L 389.934281 75.426472 
L 390.160887 75.928753 
L 390.387493 82.273579 
L 390.840704 69.385722 
L 391.067309 75.736692 
L 391.293915 75.576001 
L 391.520521 71.922408 
L 391.747126 71.631412 
L 391.973732 70.564586 
L 392.200338 72.18279 
L 392.426943 75.31648 
L 392.653549 76.863766 
L 392.880154 72.551959 
L 393.333366 72.770397 
L 393.559971 76.70586 
L 393.786577 76.089303 
L 394.013182 69.277321 
L 394.239788 75.733106 
L 394.466394 72.376474 
L 394.692999 74.402708 
L 394.919605 80.118374 
L 395.146211 72.559433 
L 395.372816 77.96233 
L 395.599422 69.014884 
L 395.826027 75.748752 
L 396.052633 76.627381 
L 396.279239 75.129179 
L 396.505844 74.655528 
L 396.73245 75.873663 
L 396.959055 75.659147 
L 397.185661 70.912581 
L 397.412267 73.981073 
L 397.638872 71.97466 
L 397.865478 74.183254 
L 398.092084 72.425696 
L 398.318689 76.644458 
L 398.545295 69.2902 
L 398.7719 77.513583 
L 398.998506 80.299546 
L 399.451717 77.837877 
L 399.678323 75.460757 
L 399.904928 68.804657 
L 400.131534 78.652509 
L 400.131534 78.652509 
" clip-path="url(#p988015409b)" style="fill: none; stroke: #1f77b4; stroke-linecap: square"/>
   </g>
   <g id="line2d_16">
    <path d="M 43.465625 74.389219 
L 417.115625 74.389219 
" clip-path="url(#p988015409b)" style="fill: none; stroke-dasharray: 5.55,2.4; stroke-dashoffset: 0; stroke: #ff0000; stroke-width: 1.5"/>
   </g>
   <g id="patch_3">
    <path d="M 43.465625 137.779219 
L 43.465625 10.999219 
" style="fill: none; stroke: #000000; stroke-width: 0.8; stroke-linejoin: miter; stroke-linecap: square"/>
   </g>
   <g id="patch_4">
    <path d="M 417.115625 137.779219 
L 417.115625 10.999219 
" style="fill: none; stroke: #000000; stroke-width: 0.8; stroke-linejoin: miter; stroke-linecap: square"/>
   </g>
   <g id="patch_5">
    <path d="M 43.465625 137.779219 
L 417.115625 137.779219 
" style="fill: none; stroke: #000000; stroke-width: 0.8; stroke-linejoin: miter; stroke-linecap: square"/>
   </g>
   <g id="patch_6">
    <path d="M 43.465625 10.999219 
L 417.115625 10.999219 
" style="fill: none; stroke: #000000; stroke-width: 0.8; stroke-linejoin: miter; stroke-linecap: square"/>
   </g>
   <g id="legend_1">
    <g id="patch_7">
     <path d="M 335.717187 33.677344 
L 410.115625 33.677344 
Q 412.115625 33.677344 412.115625 31.677344 
L 412.115625 17.999219 
Q 412.115625 15.999219 410.115625 15.999219 
L 335.717187 15.999219 
Q 333.717187 15.999219 333.717187 17.999219 
L 333.717187 31.677344 
Q 333.717187 33.677344 335.717187 33.677344 
z
" style="fill: #ffffff; opacity: 0.8; stroke: #cccccc; stroke-linejoin: miter"/>
    </g>
    <g id="line2d_17">
     <path d="M 337.717187 24.097656 
L 347.717187 24.097656 
L 357.717187 24.097656 
" style="fill: none; stroke-dasharray: 5.55,2.4; stroke-dashoffset: 0; stroke: #ff0000; stroke-width: 1.5"/>
    </g>
    <g id="text_17">
     <!-- Baseline -->
     <g transform="translate(365.717187 27.597656) scale(0.1 -0.1)">
      <defs>
       <path id="DejaVuSans-42" d="M 1259 2228 
L 1259 519 
L 2272 519 
Q 2781 519 3026 730 
Q 3272 941 3272 1375 
Q 3272 1813 3026 2020 
Q 2781 2228 2272 2228 
L 1259 2228 
z
M 1259 4147 
L 1259 2741 
L 2194 2741 
Q 2656 2741 2882 2914 
Q 3109 3088 3109 3444 
Q 3109 3797 2882 3972 
Q 2656 4147 2194 4147 
L 1259 4147 
z
M 628 4666 
L 2241 4666 
Q 2963 4666 3353 4366 
Q 3744 4066 3744 3513 
Q 3744 3084 3544 2831 
Q 3344 2578 2956 2516 
Q 3422 2416 3680 2098 
Q 3938 1781 3938 1306 
Q 3938 681 3513 340 
Q 3088 0 2303 0 
L 628 0 
L 628 4666 
z
" transform="scale(0.015625)"/>
       <path id="DejaVuSans-6e" d="M 3513 2113 
L 3513 0 
L 2938 0 
L 2938 2094 
Q 2938 2591 2744 2837 
Q 2550 3084 2163 3084 
Q 1697 3084 1428 2787 
Q 1159 2491 1159 1978 
L 1159 0 
L 581 0 
L 581 3500 
L 1159 3500 
L 1159 2956 
Q 1366 3272 1645 3428 
Q 1925 3584 2291 3584 
Q 2894 3584 3203 3211 
Q 3513 2838 3513 2113 
z
" transform="scale(0.015625)"/>
      </defs>
      <use xlink:href="#DejaVuSans-42"/>
      <use xlink:href="#DejaVuSans-61" x="68.603516"/>
      <use xlink:href="#DejaVuSans-73" x="129.882812"/>
      <use xlink:href="#DejaVuSans-65" x="181.982422"/>
      <use xlink:href="#DejaVuSans-6c" x="243.505859"/>
      <use xlink:href="#DejaVuSans-69" x="271.289062"/>
      <use xlink:href="#DejaVuSans-6e" x="299.072266"/>
      <use xlink:href="#DejaVuSans-65" x="362.451172"/>
     </g>
    </g>
   </g>
  </g>
 </g>
 <defs>
  <clipPath id="p988015409b">
   <rect x="43.465625" y="10.999219" width="373.65" height="126.78"/>
  </clipPath>
 </defs>
</svg>
