<?xml version="1.0" encoding="utf-8" standalone="no"?>
<!DOCTYPE svg PUBLIC "-//W3C//DTD SVG 1.1//EN"
  "http://www.w3.org/Graphics/SVG/1.1/DTD/svg11.dtd">
<svg xmlns:xlink="http://www.w3.org/1999/xlink" width="568.301875pt" height="207.99625pt" viewBox="0 0 568.301875 207.99625" xmlns="http://www.w3.org/2000/svg" version="1.1">
 <metadata>
  <rdf:RDF xmlns:dc="http://purl.org/dc/elements/1.1/" xmlns:cc="http://creativecommons.org/ns#" xmlns:rdf="http://www.w3.org/1999/02/22-rdf-syntax-ns#">
   <cc:Work>
    <dc:type rdf:resource="http://purl.org/dc/dcmitype/StillImage"/>
    <dc:date>2025-08-06T18:39:42.495551</dc:date>
    <dc:format>image/svg+xml</dc:format>
    <dc:creator>
     <cc:Agent>
      <dc:title>Matplotlib v3.6.3, https://matplotlib.org/</dc:title>
     </cc:Agent>
    </dc:creator>
   </cc:Work>
  </rdf:RDF>
 </metadata>
 <defs>
  <style type="text/css">*{stroke-linejoin: round; stroke-linecap: butt}</style>
 </defs>
 <g id="figure_1">
  <g id="patch_1">
   <path d="M 0 207.99625 
L 568.301875 207.99625 
L 568.301875 0 
L 0 0 
z
" style="fill: #ffffff"/>
  </g>
  <g id="axes_1">
   <g id="patch_2">
    <path d="M 43.465625 173.94 
L 557.920625 173.94 
L 557.920625 7.2 
L 43.465625 7.2 
z
" style="fill: #ffffff"/>
   </g>
   <g id="patch_3">
    <path d="M 179.7962 173.94 
L 179.7962 7.2 
L 351.2812 7.2 
L 351.2812 173.94 
z
" clip-path="url(#p64c7dd7ea7)" style="fill: #cccccc; opacity: 0.4; stroke: #cccccc; stroke-linejoin: miter"/>
   </g>
   <g id="matplotlib.axis_1">
    <g id="xtick_1">
     <g id="line2d_1">
      <defs>
       <path id="m41f161fdc5" d="M 0 0 
L 0 -3.5 
" style="stroke: #000000; stroke-width: 0.8"/>
      </defs>
      <g>
       <use xlink:href="#m41f161fdc5" x="43.465625" y="173.94" style="stroke: #000000; stroke-width: 0.8"/>
      </g>
     </g>
     <g id="text_1">
      <!-- 0 -->
      <g transform="translate(40.284375 185.038437) scale(0.1 -0.1)">
       <defs>
        <path id="DejaVuSans-30" d="M 2034 4250 
Q 1547 4250 1301 3770 
Q 1056 3291 1056 2328 
Q 1056 1369 1301 889 
Q 1547 409 2034 409 
Q 2525 409 2770 889 
Q 3016 1369 3016 2328 
Q 3016 3291 2770 3770 
Q 2525 4250 2034 4250 
z
M 2034 4750 
Q 2819 4750 3233 4129 
Q 3647 3509 3647 2328 
Q 3647 1150 3233 529 
Q 2819 -91 2034 -91 
Q 1250 -91 836 529 
Q 422 1150 422 2328 
Q 422 3509 836 4129 
Q 1250 4750 2034 4750 
z
" transform="scale(0.015625)"/>
       </defs>
       <use xlink:href="#DejaVuSans-30"/>
      </g>
     </g>
    </g>
    <g id="xtick_2">
     <g id="line2d_2">
      <g>
       <use xlink:href="#m41f161fdc5" x="129.208125" y="173.94" style="stroke: #000000; stroke-width: 0.8"/>
      </g>
     </g>
     <g id="text_2">
      <!-- 1 -->
      <g transform="translate(126.026875 185.038437) scale(0.1 -0.1)">
       <defs>
        <path id="DejaVuSans-31" d="M 794 531 
L 1825 531 
L 1825 4091 
L 703 3866 
L 703 4441 
L 1819 4666 
L 2450 4666 
L 2450 531 
L 3481 531 
L 3481 0 
L 794 0 
L 794 531 
z
" transform="scale(0.015625)"/>
       </defs>
       <use xlink:href="#DejaVuSans-31"/>
      </g>
     </g>
    </g>
    <g id="xtick_3">
     <g id="line2d_3">
      <g>
       <use xlink:href="#m41f161fdc5" x="214.950625" y="173.94" style="stroke: #000000; stroke-width: 0.8"/>
      </g>
     </g>
     <g id="text_3">
      <!-- 2 -->
      <g transform="translate(211.769375 185.038437) scale(0.1 -0.1)">
       <defs>
        <path id="DejaVuSans-32" d="M 1228 531 
L 3431 531 
L 3431 0 
L 469 0 
L 469 531 
Q 828 903 1448 1529 
Q 2069 2156 2228 2338 
Q 2531 2678 2651 2914 
Q 2772 3150 2772 3378 
Q 2772 3750 2511 3984 
Q 2250 4219 1831 4219 
Q 1534 4219 1204 4116 
Q 875 4013 500 3803 
L 500 4441 
Q 881 4594 1212 4672 
Q 1544 4750 1819 4750 
Q 2544 4750 2975 4387 
Q 3406 4025 3406 3419 
Q 3406 3131 3298 2873 
Q 3191 2616 2906 2266 
Q 2828 2175 2409 1742 
Q 1991 1309 1228 531 
z
" transform="scale(0.015625)"/>
       </defs>
       <use xlink:href="#DejaVuSans-32"/>
      </g>
     </g>
    </g>
    <g id="xtick_4">
     <g id="line2d_4">
      <g>
       <use xlink:href="#m41f161fdc5" x="300.693125" y="173.94" style="stroke: #000000; stroke-width: 0.8"/>
      </g>
     </g>
     <g id="text_4">
      <!-- 3 -->
      <g transform="translate(297.511875 185.038437) scale(0.1 -0.1)">
       <defs>
        <path id="DejaVuSans-33" d="M 2597 2516 
Q 3050 2419 3304 2112 
Q 3559 1806 3559 1356 
Q 3559 666 3084 287 
Q 2609 -91 1734 -91 
Q 1441 -91 1130 -33 
Q 819 25 488 141 
L 488 750 
Q 750 597 1062 519 
Q 1375 441 1716 441 
Q 2309 441 2620 675 
Q 2931 909 2931 1356 
Q 2931 1769 2642 2001 
Q 2353 2234 1838 2234 
L 1294 2234 
L 1294 2753 
L 1863 2753 
Q 2328 2753 2575 2939 
Q 2822 3125 2822 3475 
Q 2822 3834 2567 4026 
Q 2313 4219 1838 4219 
Q 1578 4219 1281 4162 
Q 984 4106 628 3988 
L 628 4550 
Q 988 4650 1302 4700 
Q 1616 4750 1894 4750 
Q 2613 4750 3031 4423 
Q 3450 4097 3450 3541 
Q 3450 3153 3228 2886 
Q 3006 2619 2597 2516 
z
" transform="scale(0.015625)"/>
       </defs>
       <use xlink:href="#DejaVuSans-33"/>
      </g>
     </g>
    </g>
    <g id="xtick_5">
     <g id="line2d_5">
      <g>
       <use xlink:href="#m41f161fdc5" x="386.435625" y="173.94" style="stroke: #000000; stroke-width: 0.8"/>
      </g>
     </g>
     <g id="text_5">
      <!-- 4 -->
      <g transform="translate(383.254375 185.038437) scale(0.1 -0.1)">
       <defs>
        <path id="DejaVuSans-34" d="M 2419 4116 
L 825 1625 
L 2419 1625 
L 2419 4116 
z
M 2253 4666 
L 3047 4666 
L 3047 1625 
L 3713 1625 
L 3713 1100 
L 3047 1100 
L 3047 0 
L 2419 0 
L 2419 1100 
L 313 1100 
L 313 1709 
L 2253 4666 
z
" transform="scale(0.015625)"/>
       </defs>
       <use xlink:href="#DejaVuSans-34"/>
      </g>
     </g>
    </g>
    <g id="xtick_6">
     <g id="line2d_6">
      <g>
       <use xlink:href="#m41f161fdc5" x="472.178125" y="173.94" style="stroke: #000000; stroke-width: 0.8"/>
      </g>
     </g>
     <g id="text_6">
      <!-- 5 -->
      <g transform="translate(468.996875 185.038437) scale(0.1 -0.1)">
       <defs>
        <path id="DejaVuSans-35" d="M 691 4666 
L 3169 4666 
L 3169 4134 
L 1269 4134 
L 1269 2991 
Q 1406 3038 1543 3061 
Q 1681 3084 1819 3084 
Q 2600 3084 3056 2656 
Q 3513 2228 3513 1497 
Q 3513 744 3044 326 
Q 2575 -91 1722 -91 
Q 1428 -91 1123 -41 
Q 819 9 494 109 
L 494 744 
Q 775 591 1075 516 
Q 1375 441 1709 441 
Q 2250 441 2565 725 
Q 2881 1009 2881 1497 
Q 2881 1984 2565 2268 
Q 2250 2553 1709 2553 
Q 1456 2553 1204 2497 
Q 953 2441 691 2322 
L 691 4666 
z
" transform="scale(0.015625)"/>
       </defs>
       <use xlink:href="#DejaVuSans-35"/>
      </g>
     </g>
    </g>
    <g id="xtick_7">
     <g id="line2d_7">
      <g>
       <use xlink:href="#m41f161fdc5" x="557.920625" y="173.94" style="stroke: #000000; stroke-width: 0.8"/>
      </g>
     </g>
     <g id="text_7">
      <!-- 6 -->
      <g transform="translate(554.739375 185.038437) scale(0.1 -0.1)">
       <defs>
        <path id="DejaVuSans-36" d="M 2113 2584 
Q 1688 2584 1439 2293 
Q 1191 2003 1191 1497 
Q 1191 994 1439 701 
Q 1688 409 2113 409 
Q 2538 409 2786 701 
Q 3034 994 3034 1497 
Q 3034 2003 2786 2293 
Q 2538 2584 2113 2584 
z
M 3366 4563 
L 3366 3988 
Q 3128 4100 2886 4159 
Q 2644 4219 2406 4219 
Q 1781 4219 1451 3797 
Q 1122 3375 1075 2522 
Q 1259 2794 1537 2939 
Q 1816 3084 2150 3084 
Q 2853 3084 3261 2657 
Q 3669 2231 3669 1497 
Q 3669 778 3244 343 
Q 2819 -91 2113 -91 
Q 1303 -91 875 529 
Q 447 1150 447 2328 
Q 447 3434 972 4092 
Q 1497 4750 2381 4750 
Q 2619 4750 2861 4703 
Q 3103 4656 3366 4563 
z
" transform="scale(0.015625)"/>
       </defs>
       <use xlink:href="#DejaVuSans-36"/>
      </g>
     </g>
    </g>
    <g id="text_8">
     <!-- Time (s) -->
     <g transform="translate(280.364219 198.716562) scale(0.1 -0.1)">
      <defs>
       <path id="DejaVuSans-54" d="M -19 4666 
L 3928 4666 
L 3928 4134 
L 2272 4134 
L 2272 0 
L 1638 0 
L 1638 4134 
L -19 4134 
L -19 4666 
z
" transform="scale(0.015625)"/>
       <path id="DejaVuSans-69" d="M 603 3500 
L 1178 3500 
L 1178 0 
L 603 0 
L 603 3500 
z
M 603 4863 
L 1178 4863 
L 1178 4134 
L 603 4134 
L 603 4863 
z
" transform="scale(0.015625)"/>
       <path id="DejaVuSans-6d" d="M 3328 2828 
Q 3544 3216 3844 3400 
Q 4144 3584 4550 3584 
Q 5097 3584 5394 3201 
Q 5691 2819 5691 2113 
L 5691 0 
L 5113 0 
L 5113 2094 
Q 5113 2597 4934 2840 
Q 4756 3084 4391 3084 
Q 3944 3084 3684 2787 
Q 3425 2491 3425 1978 
L 3425 0 
L 2847 0 
L 2847 2094 
Q 2847 2600 2669 2842 
Q 2491 3084 2119 3084 
Q 1678 3084 1418 2786 
Q 1159 2488 1159 1978 
L 1159 0 
L 581 0 
L 581 3500 
L 1159 3500 
L 1159 2956 
Q 1356 3278 1631 3431 
Q 1906 3584 2284 3584 
Q 2666 3584 2933 3390 
Q 3200 3197 3328 2828 
z
" transform="scale(0.015625)"/>
       <path id="DejaVuSans-65" d="M 3597 1894 
L 3597 1613 
L 953 1613 
Q 991 1019 1311 708 
Q 1631 397 2203 397 
Q 2534 397 2845 478 
Q 3156 559 3463 722 
L 3463 178 
Q 3153 47 2828 -22 
Q 2503 -91 2169 -91 
Q 1331 -91 842 396 
Q 353 884 353 1716 
Q 353 2575 817 3079 
Q 1281 3584 2069 3584 
Q 2775 3584 3186 3129 
Q 3597 2675 3597 1894 
z
M 3022 2063 
Q 3016 2534 2758 2815 
Q 2500 3097 2075 3097 
Q 1594 3097 1305 2825 
Q 1016 2553 972 2059 
L 3022 2063 
z
" transform="scale(0.015625)"/>
       <path id="DejaVuSans-20" transform="scale(0.015625)"/>
       <path id="DejaVuSans-28" d="M 1984 4856 
Q 1566 4138 1362 3434 
Q 1159 2731 1159 2009 
Q 1159 1288 1364 580 
Q 1569 -128 1984 -844 
L 1484 -844 
Q 1016 -109 783 600 
Q 550 1309 550 2009 
Q 550 2706 781 3412 
Q 1013 4119 1484 4856 
L 1984 4856 
z
" transform="scale(0.015625)"/>
       <path id="DejaVuSans-73" d="M 2834 3397 
L 2834 2853 
Q 2591 2978 2328 3040 
Q 2066 3103 1784 3103 
Q 1356 3103 1142 2972 
Q 928 2841 928 2578 
Q 928 2378 1081 2264 
Q 1234 2150 1697 2047 
L 1894 2003 
Q 2506 1872 2764 1633 
Q 3022 1394 3022 966 
Q 3022 478 2636 193 
Q 2250 -91 1575 -91 
Q 1294 -91 989 -36 
Q 684 19 347 128 
L 347 722 
Q 666 556 975 473 
Q 1284 391 1588 391 
Q 1994 391 2212 530 
Q 2431 669 2431 922 
Q 2431 1156 2273 1281 
Q 2116 1406 1581 1522 
L 1381 1569 
Q 847 1681 609 1914 
Q 372 2147 372 2553 
Q 372 3047 722 3315 
Q 1072 3584 1716 3584 
Q 2034 3584 2315 3537 
Q 2597 3491 2834 3397 
z
" transform="scale(0.015625)"/>
       <path id="DejaVuSans-29" d="M 513 4856 
L 1013 4856 
Q 1481 4119 1714 3412 
Q 1947 2706 1947 2009 
Q 1947 1309 1714 600 
Q 1481 -109 1013 -844 
L 513 -844 
Q 928 -128 1133 580 
Q 1338 1288 1338 2009 
Q 1338 2731 1133 3434 
Q 928 4138 513 4856 
z
" transform="scale(0.015625)"/>
      </defs>
      <use xlink:href="#DejaVuSans-54"/>
      <use xlink:href="#DejaVuSans-69" x="57.958984"/>
      <use xlink:href="#DejaVuSans-6d" x="85.742188"/>
      <use xlink:href="#DejaVuSans-65" x="183.154297"/>
      <use xlink:href="#DejaVuSans-20" x="244.677734"/>
      <use xlink:href="#DejaVuSans-28" x="276.464844"/>
      <use xlink:href="#DejaVuSans-73" x="315.478516"/>
      <use xlink:href="#DejaVuSans-29" x="367.578125"/>
     </g>
    </g>
   </g>
   <g id="matplotlib.axis_2">
    <g id="ytick_1">
     <g id="line2d_8">
      <defs>
       <path id="m3082e04b6c" d="M 0 0 
L 3.5 0 
" style="stroke: #000000; stroke-width: 0.8"/>
      </defs>
      <g>
       <use xlink:href="#m3082e04b6c" x="43.465625" y="173.94" style="stroke: #000000; stroke-width: 0.8"/>
      </g>
     </g>
     <g id="text_9">
      <!-- 0 -->
      <g transform="translate(33.603125 177.739219) scale(0.1 -0.1)">
       <use xlink:href="#DejaVuSans-30"/>
      </g>
     </g>
    </g>
    <g id="ytick_2">
     <g id="line2d_9">
      <g>
       <use xlink:href="#m3082e04b6c" x="43.465625" y="134.707059" style="stroke: #000000; stroke-width: 0.8"/>
      </g>
     </g>
     <g id="text_10">
      <!-- 200 -->
      <g transform="translate(20.878125 138.506278) scale(0.1 -0.1)">
       <use xlink:href="#DejaVuSans-32"/>
       <use xlink:href="#DejaVuSans-30" x="63.623047"/>
       <use xlink:href="#DejaVuSans-30" x="127.246094"/>
      </g>
     </g>
    </g>
    <g id="ytick_3">
     <g id="line2d_10">
      <g>
       <use xlink:href="#m3082e04b6c" x="43.465625" y="95.474118" style="stroke: #000000; stroke-width: 0.8"/>
      </g>
     </g>
     <g id="text_11">
      <!-- 400 -->
      <g transform="translate(20.878125 99.273336) scale(0.1 -0.1)">
       <use xlink:href="#DejaVuSans-34"/>
       <use xlink:href="#DejaVuSans-30" x="63.623047"/>
       <use xlink:href="#DejaVuSans-30" x="127.246094"/>
      </g>
     </g>
    </g>
    <g id="ytick_4">
     <g id="line2d_11">
      <g>
       <use xlink:href="#m3082e04b6c" x="43.465625" y="56.241176" style="stroke: #000000; stroke-width: 0.8"/>
      </g>
     </g>
     <g id="text_12">
      <!-- 600 -->
      <g transform="translate(20.878125 60.040395) scale(0.1 -0.1)">
       <use xlink:href="#DejaVuSans-36"/>
       <use xlink:href="#DejaVuSans-30" x="63.623047"/>
       <use xlink:href="#DejaVuSans-30" x="127.246094"/>
      </g>
     </g>
    </g>
    <g id="ytick_5">
     <g id="line2d_12">
      <g>
       <use xlink:href="#m3082e04b6c" x="43.465625" y="17.008235" style="stroke: #000000; stroke-width: 0.8"/>
      </g>
     </g>
     <g id="text_13">
      <!-- 800 -->
      <g transform="translate(20.878125 20.807454) scale(0.1 -0.1)">
       <defs>
        <path id="DejaVuSans-38" d="M 2034 2216 
Q 1584 2216 1326 1975 
Q 1069 1734 1069 1313 
Q 1069 891 1326 650 
Q 1584 409 2034 409 
Q 2484 409 2743 651 
Q 3003 894 3003 1313 
Q 3003 1734 2745 1975 
Q 2488 2216 2034 2216 
z
M 1403 2484 
Q 997 2584 770 2862 
Q 544 3141 544 3541 
Q 544 4100 942 4425 
Q 1341 4750 2034 4750 
Q 2731 4750 3128 4425 
Q 3525 4100 3525 3541 
Q 3525 3141 3298 2862 
Q 3072 2584 2669 2484 
Q 3125 2378 3379 2068 
Q 3634 1759 3634 1313 
Q 3634 634 3220 271 
Q 2806 -91 2034 -91 
Q 1263 -91 848 271 
Q 434 634 434 1313 
Q 434 1759 690 2068 
Q 947 2378 1403 2484 
z
M 1172 3481 
Q 1172 3119 1398 2916 
Q 1625 2713 2034 2713 
Q 2441 2713 2670 2916 
Q 2900 3119 2900 3481 
Q 2900 3844 2670 4047 
Q 2441 4250 2034 4250 
Q 1625 4250 1398 4047 
Q 1172 3844 1172 3481 
z
" transform="scale(0.015625)"/>
       </defs>
       <use xlink:href="#DejaVuSans-38"/>
       <use xlink:href="#DejaVuSans-30" x="63.623047"/>
       <use xlink:href="#DejaVuSans-30" x="127.246094"/>
      </g>
     </g>
    </g>
    <g id="text_14">
     <!-- ADC value -->
     <g transform="translate(14.798438 116.578594) rotate(-90) scale(0.1 -0.1)">
      <defs>
       <path id="DejaVuSans-41" d="M 2188 4044 
L 1331 1722 
L 3047 1722 
L 2188 4044 
z
M 1831 4666 
L 2547 4666 
L 4325 0 
L 3669 0 
L 3244 1197 
L 1141 1197 
L 716 0 
L 50 0 
L 1831 4666 
z
" transform="scale(0.015625)"/>
       <path id="DejaVuSans-44" d="M 1259 4147 
L 1259 519 
L 2022 519 
Q 2988 519 3436 956 
Q 3884 1394 3884 2338 
Q 3884 3275 3436 3711 
Q 2988 4147 2022 4147 
L 1259 4147 
z
M 628 4666 
L 1925 4666 
Q 3281 4666 3915 4102 
Q 4550 3538 4550 2338 
Q 4550 1131 3912 565 
Q 3275 0 1925 0 
L 628 0 
L 628 4666 
z
" transform="scale(0.015625)"/>
       <path id="DejaVuSans-43" d="M 4122 4306 
L 4122 3641 
Q 3803 3938 3442 4084 
Q 3081 4231 2675 4231 
Q 1875 4231 1450 3742 
Q 1025 3253 1025 2328 
Q 1025 1406 1450 917 
Q 1875 428 2675 428 
Q 3081 428 3442 575 
Q 3803 722 4122 1019 
L 4122 359 
Q 3791 134 3420 21 
Q 3050 -91 2638 -91 
Q 1578 -91 968 557 
Q 359 1206 359 2328 
Q 359 3453 968 4101 
Q 1578 4750 2638 4750 
Q 3056 4750 3426 4639 
Q 3797 4528 4122 4306 
z
" transform="scale(0.015625)"/>
       <path id="DejaVuSans-76" d="M 191 3500 
L 800 3500 
L 1894 563 
L 2988 3500 
L 3597 3500 
L 2284 0 
L 1503 0 
L 191 3500 
z
" transform="scale(0.015625)"/>
       <path id="DejaVuSans-61" d="M 2194 1759 
Q 1497 1759 1228 1600 
Q 959 1441 959 1056 
Q 959 750 1161 570 
Q 1363 391 1709 391 
Q 2188 391 2477 730 
Q 2766 1069 2766 1631 
L 2766 1759 
L 2194 1759 
z
M 3341 1997 
L 3341 0 
L 2766 0 
L 2766 531 
Q 2569 213 2275 61 
Q 1981 -91 1556 -91 
Q 1019 -91 701 211 
Q 384 513 384 1019 
Q 384 1609 779 1909 
Q 1175 2209 1959 2209 
L 2766 2209 
L 2766 2266 
Q 2766 2663 2505 2880 
Q 2244 3097 1772 3097 
Q 1472 3097 1187 3025 
Q 903 2953 641 2809 
L 641 3341 
Q 956 3463 1253 3523 
Q 1550 3584 1831 3584 
Q 2591 3584 2966 3190 
Q 3341 2797 3341 1997 
z
" transform="scale(0.015625)"/>
       <path id="DejaVuSans-6c" d="M 603 4863 
L 1178 4863 
L 1178 0 
L 603 0 
L 603 4863 
z
" transform="scale(0.015625)"/>
       <path id="DejaVuSans-75" d="M 544 1381 
L 544 3500 
L 1119 3500 
L 1119 1403 
Q 1119 906 1312 657 
Q 1506 409 1894 409 
Q 2359 409 2629 706 
Q 2900 1003 2900 1516 
L 2900 3500 
L 3475 3500 
L 3475 0 
L 2900 0 
L 2900 538 
Q 2691 219 2414 64 
Q 2138 -91 1772 -91 
Q 1169 -91 856 284 
Q 544 659 544 1381 
z
M 1991 3584 
L 1991 3584 
z
" transform="scale(0.015625)"/>
      </defs>
      <use xlink:href="#DejaVuSans-41"/>
      <use xlink:href="#DejaVuSans-44" x="68.408203"/>
      <use xlink:href="#DejaVuSans-43" x="145.410156"/>
      <use xlink:href="#DejaVuSans-20" x="215.234375"/>
      <use xlink:href="#DejaVuSans-76" x="247.021484"/>
      <use xlink:href="#DejaVuSans-61" x="306.201172"/>
      <use xlink:href="#DejaVuSans-6c" x="367.480469"/>
      <use xlink:href="#DejaVuSans-75" x="395.263672"/>
      <use xlink:href="#DejaVuSans-65" x="458.642578"/>
     </g>
    </g>
   </g>
   <g id="line2d_13">
    <path d="M 43.465625 78.405797 
L 43.63711 76.017378 
L 43.808595 78.697784 
L 43.98008 75.44546 
L 44.151565 75.449699 
L 44.32305 76.455693 
L 44.837505 74.449071 
L 45.00899 76.424328 
L 45.180475 73.258158 
L 45.35196 77.72358 
L 45.523445 73.242491 
L 45.69493 79.00168 
L 46.0379 73.709567 
L 46.209385 75.452499 
L 46.552355 74.463494 
L 46.72384 74.724255 
L 46.895325 78.026605 
L 47.06681 77.416693 
L 47.40978 75.405715 
L 47.581265 75.391468 
L 47.924235 76.435304 
L 48.09572 73.580913 
L 48.267205 75.51367 
L 48.43869 75.159109 
L 48.78166 76.65314 
L 49.12463 74.260846 
L 49.296115 73.957272 
L 49.4676 75.146447 
L 49.639085 77.984992 
L 49.81057 74.609685 
L 49.982055 78.32335 
L 50.325025 76.866151 
L 50.49651 77.11811 
L 50.667995 74.447475 
L 50.83948 75.158552 
L 51.010965 74.871444 
L 51.18245 76.938753 
L 51.52542 73.873611 
L 51.696905 77.763456 
L 51.86839 76.676535 
L 52.039875 76.748331 
L 52.21136 77.434325 
L 52.55433 74.717136 
L 52.725815 75.425089 
L 52.8973 75.635121 
L 53.068785 73.421164 
L 53.24027 77.000178 
L 53.411755 75.994711 
L 53.58324 73.820016 
L 53.754725 74.792664 
L 53.92621 78.338101 
L 54.097695 72.048963 
L 54.26918 74.30569 
L 54.440665 74.702409 
L 54.61215 77.146952 
L 54.783635 76.929328 
L 54.95512 73.912546 
L 55.126605 75.386728 
L 55.29809 75.764415 
L 55.469575 74.497985 
L 55.64106 78.13859 
L 55.812545 75.031182 
L 55.98403 76.21105 
L 56.155515 74.083117 
L 56.498485 76.762628 
L 56.66997 77.188885 
L 56.841455 74.945503 
L 57.01294 78.459615 
L 57.184425 73.285071 
L 57.35591 75.948448 
L 57.527395 75.22037 
L 57.69888 78.641052 
L 57.870365 77.28588 
L 58.04185 70.744168 
L 58.213335 75.658772 
L 58.38482 75.037862 
L 58.556305 78.213482 
L 58.72779 79.005705 
L 59.242245 74.247168 
L 59.41373 77.352944 
L 59.7567 75.848945 
L 59.928185 79.545929 
L 60.09967 75.554279 
L 60.271155 74.545038 
L 60.44264 74.358926 
L 60.78561 76.620914 
L 60.957095 75.564638 
L 61.300065 77.777498 
L 61.47155 76.676667 
L 61.643035 76.494005 
L 61.81452 72.066889 
L 61.986005 76.941753 
L 62.15749 75.850689 
L 62.328975 76.235411 
L 62.50046 77.29513 
L 62.671945 75.311234 
L 62.84343 78.028224 
L 63.1864 75.760656 
L 63.357885 75.34861 
L 63.52937 74.183617 
L 63.700855 74.439598 
L 63.87234 78.714696 
L 64.043825 72.890386 
L 64.21531 76.424762 
L 64.386795 68.34475 
L 64.729765 77.045206 
L 65.072735 75.166328 
L 65.24422 72.414524 
L 65.58719 76.63609 
L 65.758675 75.615434 
L 65.93016 76.02142 
L 66.101645 75.890168 
L 66.444615 74.285757 
L 66.6161 74.925115 
L 66.787585 77.679881 
L 66.95907 77.196827 
L 67.30204 75.748481 
L 67.473525 76.859881 
L 67.64501 74.646604 
L 67.816495 76.831695 
L 67.98798 76.829972 
L 68.159465 77.256048 
L 68.33095 75.590744 
L 68.502435 77.294081 
L 68.67392 75.005551 
L 68.845405 75.640351 
L 69.01689 75.058376 
L 69.35986 76.502619 
L 69.531345 77.109681 
L 69.874315 74.229488 
L 70.0458 73.444621 
L 70.38877 77.819651 
L 70.560255 77.477704 
L 70.73174 74.682844 
L 70.903225 75.546311 
L 71.07471 77.507938 
L 71.41768 72.279243 
L 71.589165 78.313333 
L 71.76065 75.168246 
L 71.932135 76.181738 
L 72.10362 76.3951 
L 72.275105 77.321681 
L 72.44659 80.748281 
L 72.78956 76.077291 
L 72.961045 77.962701 
L 73.13253 78.01659 
L 73.304015 71.972201 
L 73.4755 77.566561 
L 73.646985 72.817045 
L 73.81847 77.564825 
L 73.989955 77.075924 
L 74.332925 74.00663 
L 74.675895 76.157608 
L 75.018865 73.118213 
L 75.19035 75.449355 
L 75.361835 75.102558 
L 75.53332 78.39423 
L 75.704805 77.152891 
L 76.047775 73.138126 
L 76.21926 78.758353 
L 76.390745 75.46918 
L 76.733715 74.095342 
L 76.9052 78.189896 
L 77.076685 77.388939 
L 77.24817 75.033664 
L 77.419655 77.773766 
L 77.59114 75.952047 
L 77.762625 75.956914 
L 77.93411 75.125309 
L 78.105595 76.480099 
L 78.27708 74.96289 
L 78.448565 75.727556 
L 78.62005 74.258273 
L 78.96302 77.085463 
L 79.134505 75.326508 
L 79.477475 76.087345 
L 79.64896 73.434286 
L 79.820445 75.828964 
L 80.163415 77.137082 
L 80.3349 79.111713 
L 80.506385 76.38237 
L 80.67787 76.213087 
L 80.849355 74.981384 
L 81.192325 77.613566 
L 81.36381 75.405917 
L 81.535295 76.166769 
L 81.70678 76.393584 
L 81.878265 73.78151 
L 82.04975 75.098846 
L 82.221235 74.951797 
L 82.564205 77.734194 
L 82.73569 76.443542 
L 82.907175 76.488608 
L 83.07866 75.937484 
L 83.250145 74.605055 
L 83.42163 74.671903 
L 83.593115 75.119526 
L 83.7646 74.873704 
L 83.936085 77.398113 
L 84.10757 73.907021 
L 84.279055 75.804106 
L 84.622025 74.565206 
L 84.79351 75.910668 
L 84.964995 78.512614 
L 85.13648 77.302221 
L 85.307965 75.050422 
L 85.650935 78.920317 
L 85.82242 75.979314 
L 85.993905 78.486946 
L 86.16539 75.664257 
L 86.336875 76.703968 
L 86.50836 74.196085 
L 86.679845 77.588553 
L 86.85133 77.728539 
L 87.022815 74.215277 
L 87.1943 77.827319 
L 87.365785 74.711094 
L 87.53727 74.983305 
L 87.708755 70.721371 
L 87.88024 77.452139 
L 88.051725 75.045961 
L 88.22321 78.403788 
L 88.394695 74.982555 
L 88.56618 78.157873 
L 88.737665 75.83773 
L 88.90915 75.75461 
L 89.080635 74.370468 
L 89.25212 76.118833 
L 89.423605 75.542846 
L 89.59509 75.745568 
L 89.766575 75.757036 
L 89.93806 77.135902 
L 90.109545 74.963377 
L 90.28103 76.429552 
L 90.452515 75.33227 
L 90.624 77.427356 
L 90.96697 75.166179 
L 91.481425 77.758653 
L 91.65291 76.388749 
L 91.824395 76.198502 
L 91.99588 75.727626 
L 92.167365 76.866773 
L 92.33885 74.61383 
L 92.510335 74.824916 
L 93.02479 76.371931 
L 93.36776 75.866302 
L 93.539245 78.229812 
L 93.71073 76.424292 
L 93.882215 76.04599 
L 94.0537 77.913299 
L 94.225185 78.032767 
L 94.39667 76.940026 
L 94.568155 72.572945 
L 94.911125 75.18184 
L 95.08261 77.422211 
L 95.254095 74.892855 
L 95.42558 75.465504 
L 95.597065 77.078494 
L 95.940035 75.35579 
L 96.11152 75.916521 
L 96.283005 73.560505 
L 96.45449 75.820147 
L 96.625975 75.024538 
L 96.968945 77.617808 
L 97.14043 76.67912 
L 97.311915 75.068116 
L 97.4834 76.253139 
L 97.654885 74.904563 
L 97.82637 75.018077 
L 97.997855 75.721511 
L 98.16934 77.982266 
L 98.340825 76.467388 
L 98.51231 76.410514 
L 98.683795 75.804315 
L 98.85528 77.497831 
L 99.19825 73.365061 
L 99.369735 75.260048 
L 99.54122 75.253327 
L 99.712705 78.870574 
L 100.055675 76.00037 
L 100.22716 77.434169 
L 100.398645 74.747148 
L 100.57013 75.479758 
L 100.741615 75.007484 
L 100.9131 78.359842 
L 101.084585 77.823344 
L 101.25607 74.077853 
L 101.427555 78.014312 
L 101.59904 75.539799 
L 101.770525 76.105759 
L 101.94201 72.391671 
L 102.113495 77.613629 
L 102.28498 77.899066 
L 102.62795 74.362232 
L 102.799435 73.985356 
L 102.97092 77.399104 
L 103.142405 74.798064 
L 103.31389 78.824619 
L 103.485375 73.560399 
L 103.65686 75.286011 
L 103.828345 79.815747 
L 103.99983 75.861169 
L 104.171315 77.351715 
L 104.3428 77.183838 
L 104.514285 73.824567 
L 104.68577 77.24504 
L 104.857255 77.677121 
L 105.02874 74.000176 
L 105.200225 74.55602 
L 105.37171 77.08095 
L 105.543195 77.546317 
L 105.886165 74.025732 
L 106.05765 75.306767 
L 106.229135 74.870161 
L 106.572105 76.887881 
L 106.74359 77.241121 
L 106.915075 76.448826 
L 107.08656 77.923653 
L 107.258045 76.596624 
L 107.42953 76.345531 
L 107.601015 77.864194 
L 108.286955 73.148605 
L 108.45844 76.284161 
L 108.629925 76.013837 
L 108.80141 77.846488 
L 109.14438 72.928546 
L 109.315865 77.157274 
L 109.48735 75.781786 
L 109.658835 75.629952 
L 109.83032 74.006281 
L 110.001805 75.853489 
L 110.17329 75.246107 
L 110.344775 73.674904 
L 110.51626 75.967947 
L 110.687745 75.773006 
L 111.2022 73.998508 
L 111.373685 75.676301 
L 111.54517 71.866665 
L 111.716655 74.744506 
L 111.88814 75.127967 
L 112.23111 72.564276 
L 112.402595 78.237632 
L 112.57408 73.717475 
L 112.745565 74.79659 
L 112.91705 77.985205 
L 113.088535 75.231443 
L 113.26002 77.079177 
L 113.431505 75.575809 
L 113.60299 75.79335 
L 113.774475 77.806094 
L 113.94596 75.095711 
L 114.117445 77.754219 
L 114.28893 72.198491 
L 114.460415 78.233716 
L 114.6319 75.474519 
L 114.803385 76.779247 
L 114.97487 76.927674 
L 115.146355 74.934247 
L 115.31784 76.820236 
L 115.66081 75.244133 
L 115.832295 77.200987 
L 116.34675 75.307764 
L 116.518235 76.644699 
L 116.68972 77.009899 
L 116.861205 76.191222 
L 117.03269 76.808597 
L 117.204175 74.197871 
L 117.37566 77.765577 
L 117.71863 73.963046 
L 117.890115 75.058339 
L 118.0616 79.510056 
L 118.233085 75.952625 
L 118.40457 75.087579 
L 118.576055 76.169126 
L 118.74754 74.523122 
L 118.919025 75.338072 
L 119.09051 73.468148 
L 119.261995 79.120624 
L 119.604965 74.658864 
L 119.77645 74.513488 
L 119.947935 74.732741 
L 120.11942 75.916828 
L 120.290905 75.368894 
L 120.46239 73.578449 
L 120.633875 76.280269 
L 120.80536 75.909301 
L 120.976845 73.124642 
L 121.14833 77.779018 
L 121.319815 74.914439 
L 121.662785 75.688549 
L 121.83427 75.976173 
L 122.005755 79.246225 
L 122.17724 77.586533 
L 122.348725 74.6567 
L 122.52021 77.580956 
L 122.691695 74.201826 
L 122.86318 73.506072 
L 123.034665 77.214082 
L 123.20615 75.09336 
L 123.377635 75.044202 
L 123.54912 74.02063 
L 123.720605 75.300648 
L 123.89209 74.796343 
L 124.063575 75.079496 
L 124.23506 76.488273 
L 124.406545 76.391818 
L 124.57803 74.915686 
L 124.749515 78.816371 
L 124.921 78.754515 
L 125.092485 74.484585 
L 125.26397 76.591755 
L 125.435455 74.795774 
L 125.778425 76.720069 
L 125.94991 76.488739 
L 126.121395 76.625772 
L 126.29288 78.626005 
L 126.464365 74.909323 
L 126.63585 79.531928 
L 126.97882 75.305621 
L 127.150305 75.402509 
L 127.32179 76.713124 
L 127.493275 76.654396 
L 127.66476 74.326095 
L 127.836245 76.065349 
L 128.00773 73.87801 
L 128.179215 74.849369 
L 128.3507 74.762362 
L 128.522185 77.595871 
L 128.69367 76.251176 
L 129.208125 77.346273 
L 129.551095 75.903022 
L 129.72258 76.159406 
L 130.06555 74.438329 
L 130.237035 75.757296 
L 130.40852 78.000383 
L 130.75149 75.131519 
L 130.922975 77.338041 
L 131.09446 77.027967 
L 131.608915 74.734433 
L 131.7804 72.976838 
L 131.951885 75.741464 
L 132.12337 73.019212 
L 132.46634 77.387489 
L 132.637825 75.918081 
L 132.80931 77.908552 
L 132.980795 76.009172 
L 133.15228 76.413888 
L 133.323765 76.320863 
L 133.49525 75.124135 
L 133.666735 76.201641 
L 133.83822 77.986549 
L 134.009705 75.738779 
L 134.18119 76.560068 
L 134.352675 76.764204 
L 134.52416 75.966904 
L 134.695645 78.184153 
L 134.86713 76.147347 
L 135.038615 77.401215 
L 135.2101 74.415845 
L 135.381585 78.444844 
L 135.55307 74.484376 
L 135.724555 77.180622 
L 135.89604 74.883329 
L 136.067525 77.918262 
L 136.410495 75.676066 
L 136.58198 78.665339 
L 136.753465 75.325559 
L 136.92495 78.448405 
L 137.096435 75.010977 
L 137.26792 74.877916 
L 137.439405 77.515303 
L 137.61089 74.952521 
L 137.782375 77.030239 
L 137.95386 73.123465 
L 138.125345 76.223361 
L 138.29683 76.383309 
L 138.468315 78.005287 
L 138.811285 73.308627 
L 139.154255 75.293651 
L 139.32574 78.799986 
L 139.497225 74.894852 
L 139.66871 74.080547 
L 139.840195 76.758156 
L 140.01168 76.658658 
L 140.183165 76.974941 
L 140.35465 75.714969 
L 140.526135 76.626375 
L 140.869105 75.106587 
L 141.04059 75.248003 
L 141.212075 77.641225 
L 141.38356 76.325977 
L 141.555045 73.724108 
L 141.72653 76.970722 
L 141.898015 75.611751 
L 142.0695 76.490199 
L 142.240985 74.13575 
L 142.41247 74.306868 
L 142.583955 75.689556 
L 142.75544 78.630176 
L 142.926925 76.119728 
L 143.09841 79.669164 
L 143.269895 74.351247 
L 143.44138 76.573414 
L 143.612865 74.905002 
L 144.12732 77.699115 
L 144.47029 74.572017 
L 144.641775 74.981382 
L 144.81326 73.596787 
L 144.984745 76.211401 
L 145.15623 75.180314 
L 145.327715 75.192296 
L 145.4992 72.56234 
L 145.670685 77.558209 
L 145.84217 75.912385 
L 146.18514 78.695438 
L 146.52811 74.927445 
L 146.699595 74.496731 
L 147.042565 78.427288 
L 147.21405 76.947126 
L 147.55702 77.510124 
L 147.728505 77.36266 
L 147.89999 72.531534 
L 148.071475 77.121744 
L 148.24296 74.810244 
L 148.414445 75.241451 
L 148.58593 71.791805 
L 148.757415 74.879064 
L 148.9289 75.64664 
L 149.100385 74.527939 
L 149.27187 74.924678 
L 149.443355 74.082287 
L 149.786325 76.174247 
L 149.95781 73.853485 
L 150.129295 75.554594 
L 150.30078 73.247831 
L 150.64375 78.42158 
L 150.815235 77.685639 
L 150.98672 75.708817 
L 151.158205 75.490738 
L 151.501175 77.229614 
L 151.67266 75.068943 
L 151.844145 75.731199 
L 152.01563 77.929787 
L 152.187115 76.299745 
L 152.3586 78.458316 
L 152.70157 75.801126 
L 152.873055 73.54669 
L 153.04454 75.939107 
L 153.216025 73.494582 
L 153.38751 77.086764 
L 153.558995 76.75263 
L 153.73048 78.590133 
L 153.901965 73.885868 
L 154.07345 75.071031 
L 154.244935 72.369448 
L 154.587905 76.927576 
L 154.930875 73.357797 
L 155.273845 77.669843 
L 155.44533 76.007051 
L 155.616815 77.062931 
L 155.7883 76.954695 
L 155.959785 75.646485 
L 156.13127 76.892205 
L 156.47424 73.455737 
L 156.645725 76.779937 
L 156.81721 73.484477 
L 157.16018 77.054983 
L 157.331665 75.424901 
L 157.50315 76.465708 
L 157.674635 76.821262 
L 157.84612 73.819795 
L 158.017605 80.26488 
L 158.360575 73.392828 
L 158.53206 73.774991 
L 158.703545 79.240966 
L 158.87503 75.358241 
L 159.046515 75.646507 
L 159.218 76.54739 
L 159.389485 73.382409 
L 159.56097 73.401825 
L 159.732455 73.974445 
L 159.90394 75.342148 
L 160.075425 78.292739 
L 160.418395 75.244056 
L 160.58988 76.790886 
L 160.761365 75.401478 
L 160.93285 77.108308 
L 161.104335 75.533208 
L 161.27582 79.364359 
L 161.447305 77.246124 
L 161.61879 77.556558 
L 161.790275 75.907576 
L 161.96176 77.456949 
L 162.30473 76.224411 
L 162.6477 72.885829 
L 162.819185 78.283277 
L 162.99067 78.709455 
L 163.162155 75.041877 
L 163.505125 76.553079 
L 163.67661 76.923868 
L 163.848095 77.690255 
L 164.01958 77.862754 
L 164.191065 75.803322 
L 164.36255 75.402551 
L 164.534035 72.547614 
L 165.04849 77.8429 
L 165.219975 77.987942 
L 165.39146 76.810398 
L 165.562945 78.520867 
L 165.73443 74.967381 
L 165.905915 75.578572 
L 166.0774 74.458417 
L 166.248885 74.434933 
L 166.42037 76.235273 
L 166.591855 74.055251 
L 166.76334 78.131971 
L 166.934825 74.107879 
L 167.10631 73.953405 
L 167.277795 73.253572 
L 167.44928 76.105063 
L 167.79225 75.82577 
L 167.963735 74.180429 
L 168.13522 74.749244 
L 168.306705 74.127411 
L 168.47819 75.507068 
L 168.649675 75.312251 
L 168.82116 73.333698 
L 168.992645 74.322624 
L 169.16413 75.986737 
L 169.5071 74.066206 
L 169.678585 77.315064 
L 170.19304 74.147558 
L 170.364525 75.997852 
L 170.53601 73.945907 
L 170.707495 76.02215 
L 171.050465 72.269168 
L 171.22195 75.01436 
L 171.393435 74.733104 
L 171.56492 77.297095 
L 171.736405 73.151981 
L 171.90789 73.623611 
L 172.079375 156.712571 
L 172.25086 159.428969 
L 172.422345 157.313685 
L 172.59383 156.888527 
L 172.765315 156.919622 
L 172.9368 158.981867 
L 173.108285 157.037812 
L 173.451255 158.771809 
L 173.62274 158.661351 
L 173.794225 156.240255 
L 173.96571 157.145756 
L 174.137195 158.952699 
L 174.30868 157.68792 
L 174.480165 157.809701 
L 174.65165 158.097213 
L 174.823135 159.371385 
L 174.99462 157.712431 
L 175.166105 159.253188 
L 175.33759 159.008285 
L 175.509075 156.827679 
L 175.68056 158.749213 
L 175.852045 157.603473 
L 176.02353 158.921752 
L 176.195015 158.279352 
L 176.3665 157.044204 
L 176.537985 159.453521 
L 176.70947 158.750751 
L 176.880955 159.295233 
L 177.05244 158.524624 
L 177.223925 159.308614 
L 177.39541 155.607411 
L 177.566895 158.114139 
L 177.909865 158.838076 
L 178.08135 157.362556 
L 178.252835 157.786853 
L 178.42432 160.70187 
L 178.595805 159.697433 
L 178.76729 156.550534 
L 178.938775 156.145824 
L 179.11026 158.813515 
L 179.281745 158.553566 
L 179.45323 159.69168 
L 179.624715 157.878166 
L 179.7962 157.621827 
L 179.967685 156.927743 
L 180.13917 158.541177 
L 180.310655 157.569407 
L 180.48214 157.909644 
L 180.653625 157.194686 
L 180.82511 158.779057 
L 180.996595 158.654278 
L 181.16808 159.258526 
L 181.339565 157.31022 
L 181.51105 160.775489 
L 181.682535 159.317946 
L 181.85402 160.939223 
L 182.19699 158.83048 
L 182.368475 159.682115 
L 182.53996 159.749363 
L 182.711445 160.62365 
L 182.88293 157.803808 
L 183.054415 158.916638 
L 183.2259 157.725483 
L 183.397385 160.338342 
L 183.56887 156.790802 
L 183.740355 157.826241 
L 183.91184 155.438539 
L 184.083325 158.149824 
L 184.25481 157.052319 
L 184.59778 158.975647 
L 184.769265 158.638191 
L 184.94075 157.579067 
L 185.112235 158.246634 
L 185.28372 157.365404 
L 185.455205 158.862739 
L 185.62669 158.03127 
L 185.96966 158.383999 
L 186.141145 156.45998 
L 186.484115 160.833653 
L 186.827085 158.950998 
L 186.99857 159.773644 
L 187.34154 158.664229 
L 187.513025 157.416149 
L 187.68451 158.172189 
L 187.855995 159.634481 
L 188.02748 159.842606 
L 188.198965 156.344418 
L 188.37045 159.437906 
L 188.71342 160.294583 
L 188.884905 157.188187 
L 189.05639 158.973318 
L 189.227875 80.675022 
L 189.39936 76.351708 
L 189.74233 75.20626 
L 189.913815 75.593671 
L 190.0853 75.512578 
L 190.256785 73.703677 
L 190.42827 79.690677 
L 190.599755 74.055057 
L 190.77124 75.04044 
L 190.942725 74.719316 
L 191.11421 77.404658 
L 191.45718 73.971082 
L 191.628665 74.407792 
L 191.80015 76.594237 
L 191.971635 74.071875 
L 192.314605 79.018777 
L 192.48609 75.78434 
L 192.657575 70.407299 
L 192.82906 74.729473 
L 193.000545 72.546409 
L 193.17203 75.503306 
L 193.343515 80.665929 
L 193.515 75.273926 
L 193.686485 75.652106 
L 193.85797 72.269517 
L 194.20094 77.682454 
L 194.372425 72.499135 
L 194.715395 72.29801 
L 194.88688 76.763946 
L 195.058365 76.375304 
L 195.22985 73.500723 
L 195.401335 74.091792 
L 195.57282 75.31415 
L 195.744305 75.531614 
L 195.91579 71.573743 
L 196.087275 77.482429 
L 196.25876 76.296742 
L 196.430245 77.80778 
L 196.60173 77.169234 
L 196.773215 79.830617 
L 196.9447 75.648895 
L 197.116185 75.9766 
L 197.28767 72.802072 
L 197.459155 78.679738 
L 197.63064 72.905812 
L 197.802125 77.059833 
L 197.97361 76.87587 
L 198.145095 74.207912 
L 198.31658 73.718919 
L 198.488065 78.607814 
L 198.65955 79.433817 
L 198.831035 77.843601 
L 199.00252 71.667567 
L 199.174005 78.135135 
L 199.34549 76.503296 
L 199.516975 80.175985 
L 199.68846 74.543362 
L 199.859945 78.053107 
L 200.03143 73.126736 
L 200.202915 76.999231 
L 200.3744 74.353875 
L 200.545885 74.461541 
L 200.71737 76.591855 
L 200.888855 72.110508 
L 201.06034 73.184023 
L 201.231825 72.886792 
L 201.40331 79.039705 
L 201.74628 75.116581 
L 201.917765 73.943981 
L 202.08925 75.992816 
L 202.260735 80.573182 
L 202.603705 75.752342 
L 202.77519 77.999693 
L 202.946675 76.676024 
L 203.11816 78.500859 
L 203.289645 71.806607 
L 203.46113 73.556639 
L 203.632615 71.441396 
L 203.975585 80.434657 
L 204.14707 74.12731 
L 204.49004 77.0176 
L 204.83301 70.615654 
L 205.004495 77.64388 
L 205.17598 76.674825 
L 205.347465 76.698791 
L 205.51895 76.571382 
L 205.690435 75.248135 
L 205.86192 75.411908 
L 206.033405 73.981106 
L 206.20489 75.025183 
L 206.376375 74.815822 
L 206.54786 72.263006 
L 206.719345 76.910188 
L 206.89083 77.808819 
L 207.062315 74.169729 
L 207.2338 77.205748 
L 207.405285 77.735655 
L 207.57677 73.222949 
L 207.748255 79.439703 
L 207.91974 74.133691 
L 208.26271 73.759249 
L 208.434195 75.263365 
L 208.60568 73.988716 
L 208.777165 77.602065 
L 208.94865 74.193136 
L 209.120135 77.535428 
L 209.29162 72.010263 
L 209.463105 81.675362 
L 209.97756 72.253145 
L 210.149045 75.136604 
L 210.32053 73.84602 
L 210.492015 78.46438 
L 210.6635 73.191855 
L 210.834985 76.151588 
L 211.00647 75.076192 
L 211.177955 72.635789 
L 211.34944 78.50542 
L 211.520925 79.524837 
L 211.69241 77.87836 
L 211.863895 74.614626 
L 212.03538 80.072226 
L 212.206865 79.131188 
L 212.37835 70.922367 
L 212.72132 76.02166 
L 212.892805 74.303422 
L 213.06429 75.455549 
L 213.235775 72.677328 
L 213.578745 77.940009 
L 213.75023 73.180541 
L 213.921715 74.949416 
L 214.0932 75.182216 
L 214.264685 71.980077 
L 214.43617 74.320419 
L 214.607655 73.628951 
L 214.77914 76.111583 
L 214.950625 74.136287 
L 215.12211 76.703794 
L 215.293595 72.543819 
L 215.46508 75.916434 
L 215.636565 73.834351 
L 215.979535 76.974426 
L 216.15102 69.977211 
L 216.49399 75.3839 
L 216.665475 71.735484 
L 216.83696 73.656791 
L 217.008445 73.117442 
L 217.17993 78.436606 
L 217.5229 73.2625 
L 217.694385 73.114565 
L 217.86587 75.477324 
L 218.037355 74.301657 
L 218.20884 76.770989 
L 218.55181 75.575626 
L 218.723295 75.36816 
L 218.89478 75.704074 
L 219.066265 78.272149 
L 219.23775 77.37246 
L 219.409235 78.861943 
L 219.58072 76.095624 
L 219.752205 77.919736 
L 219.92369 76.932366 
L 220.095175 77.384527 
L 220.26666 78.32723 
L 220.438145 81.109314 
L 220.60963 76.463241 
L 220.781115 75.529831 
L 220.9526 71.959049 
L 221.124085 76.812822 
L 221.29557 75.612233 
L 221.467055 78.5915 
L 221.63854 78.375425 
L 221.810025 74.405514 
L 221.98151 77.119328 
L 222.152995 77.807573 
L 222.32448 74.665914 
L 222.495965 76.363844 
L 222.66745 73.341181 
L 222.838935 76.466666 
L 223.01042 73.098374 
L 223.181905 73.642418 
L 223.35339 74.73705 
L 223.524875 78.141867 
L 223.867845 72.076023 
L 224.03933 77.611979 
L 224.210815 76.51533 
L 224.3823 78.531403 
L 224.553785 76.037981 
L 224.72527 78.233016 
L 224.896755 78.86716 
L 225.06824 75.836731 
L 225.239725 78.293975 
L 225.41121 72.484888 
L 225.582695 76.83397 
L 225.75418 72.319111 
L 225.925665 78.95456 
L 226.09715 75.949106 
L 226.268635 76.547351 
L 226.611605 72.923278 
L 226.954575 74.004952 
L 227.12606 77.306149 
L 227.297545 76.819556 
L 227.46903 71.082899 
L 227.640515 72.337107 
L 227.812 72.019795 
L 227.983485 72.296588 
L 228.326455 76.218232 
L 228.49794 76.046869 
L 228.84091 74.596024 
L 229.012395 77.5493 
L 229.18388 75.373075 
L 229.355365 80.694617 
L 229.52685 78.111526 
L 229.698335 77.306965 
L 229.86982 77.315745 
L 230.041305 78.22553 
L 230.21279 72.147816 
L 230.384275 76.857498 
L 230.55576 74.267144 
L 230.727245 75.278456 
L 231.070215 78.742429 
L 231.2417 78.070191 
L 231.413185 72.136579 
L 231.756155 78.088494 
L 232.27061 71.637865 
L 232.61358 75.144921 
L 232.785065 73.241741 
L 232.95655 74.695114 
L 233.128035 79.075997 
L 233.29952 78.19285 
L 233.471005 75.79895 
L 233.64249 85.547131 
L 233.813975 75.727098 
L 233.98546 75.183316 
L 234.156945 73.885951 
L 234.499915 78.044087 
L 234.6714 73.085863 
L 235.01437 76.888773 
L 235.185855 75.607892 
L 235.35734 78.282615 
L 235.528825 73.385344 
L 235.70031 74.813675 
L 235.871795 74.079799 
L 236.04328 74.41555 
L 236.557735 78.038507 
L 236.72922 72.95309 
L 236.900705 78.261184 
L 237.07219 78.587317 
L 237.243675 74.046931 
L 237.41516 73.425563 
L 237.586645 73.777822 
L 237.929615 79.203382 
L 238.1011 77.328195 
L 238.272585 72.26607 
L 238.44407 76.953186 
L 238.615555 75.431783 
L 238.78704 76.091009 
L 239.13001 81.039067 
L 239.301495 78.267298 
L 239.47298 73.462805 
L 239.644465 74.525658 
L 239.81595 77.419354 
L 239.987435 73.266599 
L 240.15892 73.584175 
L 240.50189 79.011113 
L 240.673375 76.655398 
L 241.016345 80.361099 
L 241.18783 74.223266 
L 241.359315 74.292453 
L 241.702285 78.18826 
L 241.87377 72.132466 
L 242.045255 75.123031 
L 242.21674 73.209109 
L 242.731195 79.575789 
L 243.074165 75.160716 
L 243.417135 80.04097 
L 243.760105 75.358287 
L 243.93159 77.272772 
L 244.27456 72.82228 
L 244.61753 77.577634 
L 244.789015 76.035653 
L 244.9605 80.216269 
L 245.30347 75.570965 
L 245.474955 76.54401 
L 245.64644 78.393558 
L 245.817925 74.195153 
L 245.98941 79.40797 
L 246.503865 74.735871 
L 246.67535 79.715344 
L 246.846835 70.201004 
L 247.01832 79.421628 
L 247.189805 75.261282 
L 247.36129 74.052367 
L 247.532775 78.462036 
L 247.70426 77.886145 
L 247.875745 75.728806 
L 248.04723 75.022781 
L 248.218715 75.732716 
L 248.561685 79.803874 
L 248.904655 74.662178 
L 249.07614 81.682702 
L 249.247625 72.212876 
L 249.590595 78.293016 
L 249.76208 78.978867 
L 249.933565 76.574798 
L 250.10505 78.213396 
L 250.276535 75.523651 
L 250.44802 78.082744 
L 250.619505 78.584544 
L 250.962475 74.266506 
L 251.13396 75.475823 
L 251.305445 75.243969 
L 251.47693 77.791209 
L 251.8199 73.561916 
L 251.991385 75.741503 
L 252.16287 79.611074 
L 252.334355 70.516916 
L 252.50584 77.079738 
L 252.677325 76.3032 
L 252.84881 74.864591 
L 253.020295 75.158238 
L 253.19178 77.256922 
L 253.363265 73.954698 
L 253.53475 74.853667 
L 253.706235 77.203295 
L 253.87772 76.5499 
L 254.049205 76.594006 
L 254.22069 76.831284 
L 254.392175 72.778944 
L 254.56366 76.460548 
L 254.735145 76.727736 
L 254.90663 75.039976 
L 255.078115 75.391892 
L 255.2496 78.392384 
L 255.421085 72.566761 
L 255.59257 73.211927 
L 255.764055 75.238132 
L 255.93554 75.370709 
L 256.107025 76.324408 
L 256.27851 80.137924 
L 256.62148 70.93885 
L 256.792965 77.495479 
L 256.96445 74.949006 
L 257.135935 74.658767 
L 257.478905 78.397613 
L 257.821875 74.74776 
L 257.99336 78.521875 
L 258.164845 74.187432 
L 258.33633 74.364254 
L 258.507815 71.884681 
L 258.6793 79.041159 
L 258.850785 76.634495 
L 259.02227 76.217702 
L 259.193755 74.654479 
L 259.536725 81.214787 
L 259.879695 74.467272 
L 260.05118 76.933781 
L 260.39415 71.723035 
L 260.565635 75.771544 
L 260.73712 74.423328 
L 260.908605 78.693803 
L 261.08009 75.746939 
L 261.251575 78.566862 
L 261.42306 72.463937 
L 261.594545 77.347643 
L 261.76603 78.124394 
L 261.937515 78.003232 
L 262.109 76.149493 
L 262.280485 77.59379 
L 262.45197 76.772027 
L 262.623455 76.91283 
L 262.79494 76.476632 
L 262.966425 71.640904 
L 263.13791 75.812424 
L 263.309395 76.316827 
L 263.48088 75.380306 
L 263.652365 76.140096 
L 263.82385 78.002595 
L 263.995335 74.675127 
L 264.338305 78.357923 
L 264.50979 75.356062 
L 264.681275 75.050241 
L 264.85276 76.235143 
L 265.024245 76.529127 
L 265.19573 78.759438 
L 265.367215 77.975245 
L 265.5387 73.915156 
L 265.710185 77.658154 
L 265.88167 69.957329 
L 266.053155 76.433147 
L 266.22464 75.033233 
L 266.396125 76.614262 
L 266.56761 75.285701 
L 266.739095 70.612274 
L 266.91058 76.370778 
L 267.25355 74.195206 
L 267.425035 70.034018 
L 267.59652 71.202515 
L 267.93949 80.234257 
L 268.110975 74.292515 
L 268.28246 75.177384 
L 268.453945 74.993266 
L 268.62543 76.573833 
L 268.796915 72.110752 
L 268.9684 76.990164 
L 269.139885 71.023529 
L 269.482855 75.282004 
L 269.65434 72.321644 
L 269.99731 75.656404 
L 270.34028 76.555706 
L 270.511765 74.056201 
L 270.68325 74.523242 
L 270.854735 76.53405 
L 271.02622 73.929425 
L 271.197705 76.281262 
L 271.36919 73.619292 
L 271.71216 75.125828 
L 271.883645 74.578131 
L 272.05513 76.117477 
L 272.226615 79.04042 
L 272.3981 77.246954 
L 272.569585 73.62217 
L 272.74107 75.559883 
L 272.912555 72.478318 
L 273.08404 74.220529 
L 273.255525 72.114384 
L 273.42701 74.196792 
L 273.598495 78.824467 
L 273.76998 74.261243 
L 273.941465 74.870839 
L 274.11295 73.364099 
L 274.284435 78.303482 
L 274.45592 73.753416 
L 274.627405 73.185346 
L 274.79889 79.196221 
L 274.970375 77.695292 
L 275.14186 74.710057 
L 275.313345 75.010397 
L 275.48483 74.896932 
L 275.656315 76.729725 
L 275.8278 77.04486 
L 275.999285 76.729683 
L 276.17077 71.859608 
L 276.342255 75.824603 
L 276.51374 73.789867 
L 276.685225 74.177266 
L 276.85671 77.636625 
L 277.028195 74.052354 
L 277.371165 76.085249 
L 277.54265 77.217975 
L 277.714135 74.563729 
L 277.88562 78.27153 
L 278.22859 76.167019 
L 278.400075 79.777257 
L 278.57156 73.831532 
L 278.743045 79.352688 
L 279.086015 77.989736 
L 279.2575 75.544262 
L 279.428985 78.893264 
L 279.60047 76.898373 
L 279.771955 76.456041 
L 279.94344 70.828348 
L 280.114925 75.736308 
L 280.457895 75.381565 
L 280.62938 77.461259 
L 280.800865 75.167124 
L 280.97235 77.878111 
L 281.143835 73.749193 
L 281.486805 76.954614 
L 281.65829 76.427467 
L 281.829775 74.452517 
L 282.00126 78.224739 
L 282.172745 75.979194 
L 282.515715 76.550904 
L 282.6872 77.633277 
L 282.858685 76.992208 
L 283.03017 76.799441 
L 283.201655 74.313732 
L 283.37314 74.725043 
L 283.544625 79.626213 
L 283.887595 75.224702 
L 284.05908 78.497289 
L 284.230565 75.479488 
L 284.40205 75.377373 
L 284.573535 73.522423 
L 284.74502 73.247468 
L 284.916505 76.302983 
L 285.08799 71.495011 
L 285.259475 75.404637 
L 285.43096 75.116515 
L 285.602445 76.529161 
L 285.77393 71.384576 
L 285.945415 71.649963 
L 286.1169 77.645517 
L 286.45987 76.209254 
L 286.631355 72.313583 
L 286.974325 75.214651 
L 287.14581 76.064928 
L 287.317295 75.563129 
L 287.48878 71.13276 
L 287.660265 75.958279 
L 287.83175 73.584509 
L 288.17472 81.962457 
L 288.51769 73.698321 
L 288.689175 73.724027 
L 288.86066 73.956495 
L 289.20363 77.084491 
L 289.375115 73.640615 
L 289.5466 79.16022 
L 290.061055 71.602268 
L 290.23254 75.52032 
L 290.404025 73.099443 
L 290.746995 77.7664 
L 290.91848 75.505318 
L 291.089965 77.089428 
L 291.26145 81.752309 
L 291.60442 73.856149 
L 291.775905 79.900905 
L 291.94739 74.707703 
L 292.118875 74.132519 
L 292.29036 76.143582 
L 292.461845 73.183119 
L 292.63333 73.725121 
L 292.804815 78.402012 
L 292.9763 73.33394 
L 293.147785 75.912851 
L 293.31927 72.618335 
L 293.490755 76.521582 
L 293.66224 72.642264 
L 294.00521 78.95725 
L 294.176695 74.8438 
L 294.519665 77.925825 
L 294.69115 77.008931 
L 294.862635 72.913484 
L 295.03412 77.156706 
L 295.205605 76.787486 
L 295.37709 72.085824 
L 295.548575 72.119674 
L 295.72006 77.150857 
L 295.891545 72.868158 
L 296.06303 76.867952 
L 296.234515 74.084814 
L 296.406 75.184214 
L 296.577485 73.80918 
L 296.74897 78.63444 
L 296.920455 73.958694 
L 297.09194 76.727642 
L 297.263425 75.065544 
L 297.43491 78.615611 
L 297.606395 78.805196 
L 297.77788 72.609616 
L 297.949365 78.298214 
L 298.292335 74.933048 
L 298.46382 75.052778 
L 298.635305 70.494016 
L 298.80679 74.677861 
L 298.978275 70.791865 
L 299.14976 79.437124 
L 299.321245 73.548545 
L 299.49273 76.614398 
L 299.8357 75.389518 
L 300.17867 71.608763 
L 300.52164 78.59556 
L 300.86461 74.38917 
L 301.20758 79.572062 
L 301.379065 73.587044 
L 301.55055 74.779779 
L 301.722035 73.760234 
L 301.89352 75.141449 
L 302.065005 78.739245 
L 302.23649 75.732203 
L 302.407975 75.889031 
L 302.57946 73.770828 
L 302.750945 73.210337 
L 302.92243 72.074874 
L 303.093915 77.96502 
L 303.2654 73.494786 
L 303.436885 74.171725 
L 303.60837 78.345706 
L 303.95134 75.427325 
L 304.122825 77.620686 
L 304.29431 81.968986 
L 304.465795 74.261546 
L 304.63728 72.873619 
L 304.808765 77.89391 
L 304.98025 73.500035 
L 305.151735 73.04415 
L 305.32322 75.157556 
L 305.494705 74.820011 
L 305.66619 81.444171 
L 305.837675 74.818445 
L 306.00916 74.162104 
L 306.180645 75.519357 
L 306.35213 75.461906 
L 306.523615 78.506424 
L 306.6951 78.394106 
L 307.03807 77.578034 
L 307.209555 77.199102 
L 307.38104 77.726206 
L 307.552525 76.767276 
L 307.72401 70.414672 
L 307.895495 75.735713 
L 308.238465 75.125139 
L 308.40995 72.979205 
L 308.581435 74.556228 
L 308.75292 74.667151 
L 308.924405 79.670797 
L 309.09589 76.386606 
L 309.267375 77.659215 
L 309.43886 77.696134 
L 309.78183 75.071182 
L 309.953315 77.767913 
L 310.1248 73.930351 
L 310.296285 79.038837 
L 310.46777 77.717174 
L 310.639255 74.371145 
L 310.81074 74.523716 
L 311.15371 80.633805 
L 311.325195 75.21868 
L 311.49668 76.857126 
L 311.668165 73.365084 
L 312.011135 80.143424 
L 312.18262 75.55723 
L 312.354105 77.791219 
L 312.52559 76.365614 
L 312.697075 77.691313 
L 312.86856 76.512725 
L 313.040045 72.407152 
L 313.21153 77.337167 
L 313.383015 77.570985 
L 313.5545 75.692075 
L 313.725985 77.033297 
L 313.89747 75.183063 
L 314.068955 76.418322 
L 314.24044 75.245605 
L 314.411925 76.181811 
L 314.754895 73.890238 
L 314.92638 76.639603 
L 315.097865 75.208478 
L 315.26935 74.91476 
L 315.440835 77.597354 
L 315.61232 74.186091 
L 315.783805 74.526796 
L 315.95529 75.248374 
L 316.29826 75.365791 
L 316.469745 76.104034 
L 316.64123 77.486377 
L 316.812715 76.21609 
L 316.9842 77.667371 
L 317.155685 74.483597 
L 317.32717 77.193263 
L 317.498655 73.748855 
L 317.67014 75.32697 
L 317.841625 75.751557 
L 318.01311 83.9375 
L 318.184595 74.39057 
L 318.35608 77.340885 
L 318.527565 77.739428 
L 318.870535 73.001669 
L 319.04202 77.190935 
L 319.213505 76.772481 
L 319.38499 74.787089 
L 319.556475 76.473853 
L 319.72796 76.849051 
L 319.899445 78.189341 
L 320.242415 75.417018 
L 320.4139 76.702839 
L 320.585385 74.734091 
L 320.75687 75.604421 
L 320.928355 73.940906 
L 321.09984 78.80824 
L 321.271325 76.022914 
L 321.44281 78.189881 
L 321.614295 74.265875 
L 321.957265 76.979489 
L 322.300235 75.477224 
L 322.47172 73.04794 
L 322.643205 72.378186 
L 322.81469 76.13322 
L 322.986175 74.113244 
L 323.15766 77.772265 
L 323.329145 73.160575 
L 323.672115 76.773539 
L 323.8436 75.31862 
L 324.015085 76.449578 
L 324.18657 75.637335 
L 324.358055 77.939777 
L 324.52954 70.966325 
L 324.701025 75.497486 
L 324.87251 75.178741 
L 325.043995 72.075055 
L 325.386965 73.913148 
L 325.55845 74.689012 
L 325.729935 70.095683 
L 325.90142 76.381553 
L 326.072905 74.452861 
L 326.24439 76.839816 
L 326.415875 75.030761 
L 326.58736 76.172774 
L 326.758845 75.089608 
L 326.93033 77.405824 
L 327.2733 69.788972 
L 327.444785 76.361493 
L 327.61627 77.226336 
L 327.787755 76.092651 
L 327.95924 75.952422 
L 328.130725 70.159865 
L 328.30221 76.809714 
L 328.473695 74.149117 
L 328.64518 75.077726 
L 328.816665 75.278053 
L 328.98815 73.494336 
L 329.159635 78.623357 
L 329.502605 73.579375 
L 329.67409 81.72775 
L 330.01706 73.065079 
L 330.188545 75.223203 
L 330.36003 75.358607 
L 330.531515 76.049929 
L 330.703 74.672843 
L 330.874485 77.333946 
L 331.04597 72.291177 
L 331.217455 76.232427 
L 331.38894 75.031735 
L 331.560425 75.304926 
L 331.73191 72.845704 
L 331.903395 75.289553 
L 332.07488 72.888447 
L 332.246365 74.103412 
L 332.41785 73.941264 
L 332.589335 79.152953 
L 332.76082 74.995968 
L 332.932305 80.280089 
L 333.10379 75.449918 
L 333.275275 76.279162 
L 333.44676 73.292043 
L 333.618245 74.618227 
L 333.78973 80.426948 
L 333.961215 71.959756 
L 334.1327 71.393596 
L 334.47567 77.490857 
L 334.647155 72.112654 
L 334.81864 77.127861 
L 334.990125 70.357799 
L 335.333095 76.080436 
L 335.50458 73.6958 
L 335.676065 78.178292 
L 335.84755 72.489778 
L 336.019035 78.645511 
L 336.19052 75.507515 
L 336.362005 76.122886 
L 336.53349 71.142375 
L 336.704975 74.850858 
L 336.87646 75.504156 
L 337.21943 75.979052 
L 337.5624 77.934844 
L 337.733885 74.533804 
L 337.90537 81.970676 
L 338.076855 74.166747 
L 338.24834 73.708593 
L 338.419825 74.017906 
L 338.59131 78.108381 
L 338.762795 75.788203 
L 338.93428 77.348845 
L 339.105765 75.683804 
L 339.27725 77.541065 
L 339.448735 76.330496 
L 339.62022 71.807744 
L 339.96319 75.428197 
L 340.134675 74.310699 
L 340.30616 76.103032 
L 340.477645 72.338586 
L 340.820615 76.855324 
L 341.163585 72.393212 
L 341.33507 80.555365 
L 341.506555 74.674119 
L 341.67804 75.363943 
L 341.849525 73.943985 
L 342.02101 77.42496 
L 342.192495 76.096075 
L 342.36398 77.742093 
L 342.535465 77.122736 
L 342.70695 73.032533 
L 342.878435 74.501968 
L 343.04992 78.543681 
L 343.221405 76.695764 
L 343.39289 72.897335 
L 343.564375 74.991788 
L 343.73586 79.177294 
L 343.907345 78.221689 
L 344.07883 74.961711 
L 344.250315 75.718606 
L 344.4218 79.196984 
L 344.76477 72.263227 
L 344.936255 77.355388 
L 345.279225 73.970142 
L 345.45071 73.898691 
L 345.622195 74.572692 
L 345.79368 76.486362 
L 346.13665 74.905025 
L 346.308135 74.52823 
L 346.47962 80.855963 
L 346.651105 76.550751 
L 346.82259 75.047463 
L 346.994075 77.300003 
L 347.16556 72.664856 
L 347.337045 77.606339 
L 347.50853 78.82329 
L 347.680015 74.231831 
L 347.8515 74.617283 
L 348.022985 74.576056 
L 348.19447 77.107397 
L 348.365955 75.174299 
L 348.53744 76.893744 
L 348.708925 73.882853 
L 348.88041 76.719851 
L 349.051895 76.960868 
L 349.22338 74.297425 
L 349.394865 76.273744 
L 349.56635 76.706326 
L 349.737835 73.718665 
L 349.90932 77.024714 
L 350.080805 74.720554 
L 350.25229 78.86932 
L 350.423775 72.537641 
L 350.766745 76.84835 
L 350.93823 75.059264 
L 351.109715 76.438837 
L 351.2812 73.683028 
L 351.452685 79.19278 
L 351.62417 77.186509 
L 351.795655 73.843355 
L 351.96714 77.429416 
L 352.138625 74.781578 
L 352.31011 76.098394 
L 352.481595 78.347024 
L 352.65308 77.300578 
L 352.824565 77.875015 
L 352.99605 76.878375 
L 353.167535 73.826439 
L 353.510505 78.355868 
L 353.68199 80.072851 
L 353.853475 74.641071 
L 354.02496 77.421015 
L 354.196445 73.103033 
L 354.539415 76.373974 
L 354.7109 78.489524 
L 354.882385 71.011146 
L 355.05387 79.705681 
L 355.225355 74.850152 
L 355.39684 77.857741 
L 355.568325 76.719291 
L 355.73981 72.895628 
L 355.911295 73.745351 
L 356.08278 72.99625 
L 356.254265 78.729251 
L 356.42575 71.403748 
L 356.76872 78.509688 
L 356.940205 73.500015 
L 357.11169 75.929887 
L 357.283175 71.123137 
L 357.45466 76.280441 
L 357.626145 74.772343 
L 357.79763 71.260021 
L 357.969115 73.22154 
L 358.1406 78.304764 
L 358.312085 78.884057 
L 358.48357 74.811367 
L 358.655055 73.977285 
L 358.82654 77.359253 
L 358.998025 78.404262 
L 359.16951 77.054742 
L 359.340995 78.741323 
L 359.51248 73.421567 
L 359.683965 77.308278 
L 359.85545 77.689522 
L 360.19842 71.920978 
L 360.369905 80.57354 
L 360.54139 76.485241 
L 360.712875 79.721866 
L 361.055845 76.495985 
L 361.22733 77.74329 
L 361.398815 74.222554 
L 361.5703 75.189434 
L 361.741785 70.258669 
L 361.91327 76.413387 
L 362.084755 76.834497 
L 362.427725 73.980112 
L 362.59921 80.021803 
L 362.770695 71.272909 
L 363.113665 77.944263 
L 363.28515 76.407044 
L 363.456635 77.758406 
L 363.62812 74.168252 
L 363.799605 75.182211 
L 363.97109 78.272687 
L 364.142575 78.775302 
L 364.31406 76.968395 
L 364.485545 76.591431 
L 364.828515 77.239794 
L 365 77.125637 
L 365.171485 73.510101 
L 365.514455 77.479462 
L 365.68594 77.954525 
L 366.02891 76.789892 
L 366.200395 75.147027 
L 366.37188 75.91713 
L 366.543365 73.553119 
L 366.71485 77.617552 
L 366.886335 76.631745 
L 367.05782 77.501732 
L 367.229305 76.994406 
L 367.40079 74.677889 
L 367.572275 75.954115 
L 367.74376 72.603743 
L 368.08673 80.513551 
L 368.258215 77.633534 
L 368.4297 76.904409 
L 368.601185 74.492737 
L 368.77267 78.386318 
L 368.944155 76.028682 
L 369.11564 78.008289 
L 369.287125 74.508873 
L 369.45861 75.58518 
L 369.630095 77.435424 
L 369.80158 77.384887 
L 370.14455 76.53888 
L 370.316035 79.14666 
L 370.48752 76.026923 
L 370.659005 76.580525 
L 371.001975 74.388928 
L 371.17346 73.896679 
L 371.344945 73.014266 
L 371.51643 73.381488 
L 371.687915 79.069969 
L 372.20237 75.290536 
L 372.373855 79.266108 
L 372.54534 77.993422 
L 372.716825 79.906771 
L 372.88831 77.564139 
L 373.059795 80.898539 
L 373.23128 77.121201 
L 373.402765 76.695475 
L 373.57425 81.42786 
L 373.745735 76.46488 
L 373.91722 74.967893 
L 374.088705 77.404025 
L 374.26019 73.096388 
L 374.431675 79.157527 
L 374.60316 74.843886 
L 374.774645 77.363145 
L 374.94613 72.836458 
L 375.117615 76.395041 
L 375.2891 71.039245 
L 375.460585 77.162012 
L 375.63207 76.687021 
L 375.97504 74.289922 
L 376.146525 75.032177 
L 376.31801 77.557508 
L 376.489495 74.849459 
L 376.66098 76.222639 
L 376.832465 75.346383 
L 377.00395 77.404428 
L 377.34692 71.757534 
L 377.518405 76.809498 
L 377.68989 74.703321 
L 378.03286 78.620792 
L 378.204345 77.817044 
L 378.37583 78.158795 
L 378.547315 73.955286 
L 378.7188 75.939776 
L 378.890285 75.797579 
L 379.06177 74.479342 
L 379.233255 74.338037 
L 379.40474 76.732286 
L 379.576225 75.403576 
L 379.74771 78.948887 
L 380.09068 75.898058 
L 380.262165 75.634994 
L 380.43365 80.241186 
L 380.605135 74.540513 
L 380.77662 74.842342 
L 380.948105 77.435606 
L 381.11959 73.611299 
L 381.291075 73.416808 
L 381.46256 78.894523 
L 381.634045 70.651573 
L 382.1485 77.994802 
L 382.319985 76.171796 
L 382.49147 76.945206 
L 382.662955 78.817514 
L 382.83444 72.358414 
L 383.005925 75.710621 
L 383.17741 73.073672 
L 383.348895 74.32853 
L 383.52038 80.996861 
L 383.691865 71.821227 
L 383.86335 76.48595 
L 384.034835 77.363153 
L 384.20632 77.009171 
L 384.377805 75.032482 
L 384.720775 78.980092 
L 385.406715 72.24598 
L 385.5782 75.973697 
L 385.749685 74.535937 
L 385.92117 77.140569 
L 386.092655 74.589581 
L 386.26414 75.499877 
L 386.435625 77.908027 
L 386.60711 73.570253 
L 386.778595 77.425097 
L 386.95008 76.479435 
L 387.121565 77.9423 
L 387.29305 81.320513 
L 387.63602 75.520032 
L 387.807505 76.726338 
L 387.97899 74.251469 
L 388.32196 76.344804 
L 388.493445 76.375563 
L 388.66493 75.485083 
L 388.836415 76.926767 
L 389.0079 74.434628 
L 389.35087 77.641007 
L 389.522355 76.334861 
L 389.69384 78.947228 
L 389.865325 74.656591 
L 390.03681 74.317056 
L 390.208295 75.4508 
L 390.37978 78.669061 
L 390.551265 77.745546 
L 390.72275 71.529934 
L 390.894235 75.854317 
L 391.06572 77.315154 
L 391.237205 74.742093 
L 391.40869 77.929954 
L 391.580175 72.940088 
L 391.75166 81.156642 
L 391.923145 76.74109 
L 392.09463 75.210581 
L 392.266115 78.130146 
L 392.4376 76.566676 
L 392.609085 78.343705 
L 392.78057 76.264384 
L 392.952055 75.946552 
L 393.12354 74.850646 
L 393.295025 79.01583 
L 393.46651 74.654673 
L 393.637995 75.234839 
L 393.80948 73.512107 
L 393.980965 74.379918 
L 394.15245 77.848632 
L 394.49542 74.126508 
L 394.666905 76.716753 
L 394.83839 73.583863 
L 395.009875 78.572608 
L 395.18136 72.412842 
L 395.352845 74.940383 
L 395.52433 74.850634 
L 395.695815 73.943976 
L 395.8673 74.231731 
L 396.038785 76.210626 
L 396.21027 73.514914 
L 396.724725 75.716499 
L 396.89621 78.593555 
L 397.067695 76.678534 
L 397.23918 78.238498 
L 397.410665 76.710672 
L 397.58215 76.358319 
L 397.753635 79.388631 
L 398.096605 73.328964 
L 398.26809 75.166467 
L 398.439575 78.660494 
L 398.61106 77.388575 
L 398.95403 72.101938 
L 399.125515 77.220787 
L 399.297 71.966836 
L 399.468485 79.737241 
L 399.63997 75.594209 
L 399.811455 78.572816 
L 400.154425 73.931698 
L 400.32591 77.563132 
L 400.497395 74.440095 
L 400.66888 76.407292 
L 400.840365 73.14733 
L 401.01185 75.771122 
L 401.183335 73.597662 
L 401.526305 76.068846 
L 401.69779 81.217805 
L 401.869275 71.16111 
L 402.04076 73.649924 
L 402.212245 73.504762 
L 402.38373 78.060623 
L 402.555215 74.179025 
L 402.7267 74.540105 
L 402.898185 75.429057 
L 403.06967 74.933266 
L 403.241155 77.314588 
L 403.41264 73.302112 
L 403.584125 77.350539 
L 403.75561 77.79313 
L 403.927095 77.484824 
L 404.09858 77.4814 
L 404.270065 78.713886 
L 404.44155 74.971556 
L 404.613035 75.539897 
L 404.78452 78.988771 
L 404.956005 78.55871 
L 405.298975 72.243494 
L 405.47046 73.88218 
L 405.641945 77.770304 
L 405.81343 71.741127 
L 405.984915 77.357423 
L 406.1564 79.086007 
L 406.327885 76.243165 
L 406.49937 77.909462 
L 406.670855 75.582459 
L 406.84234 76.752789 
L 407.013825 75.434045 
L 407.18531 77.015731 
L 407.52828 72.277961 
L 407.699765 78.825067 
L 407.87125 74.628085 
L 408.042735 78.534161 
L 408.21422 73.755267 
L 408.385705 75.123835 
L 408.55719 80.441175 
L 408.728675 74.286578 
L 408.90016 79.221021 
L 409.24313 76.092548 
L 409.414615 78.868817 
L 409.5861 79.514988 
L 409.757585 74.888374 
L 409.92907 73.28438 
L 410.27204 78.087731 
L 410.61501 76.305067 
L 410.786495 68.769561 
L 410.95798 73.045713 
L 411.129465 72.615287 
L 411.30095 73.21594 
L 411.472435 76.28689 
L 411.64392 77.026476 
L 411.815405 76.844413 
L 411.98689 74.799726 
L 412.158375 75.987517 
L 412.32986 75.558542 
L 412.501345 74.786788 
L 412.844315 77.124683 
L 413.0158 77.121213 
L 413.35877 73.424139 
L 413.70174 78.105974 
L 413.873225 78.377487 
L 414.04471 77.13692 
L 414.216195 72.699899 
L 414.38768 77.270035 
L 414.559165 75.131486 
L 414.73065 76.974718 
L 414.902135 73.73647 
L 415.07362 76.579007 
L 415.245105 75.707987 
L 415.41659 71.930624 
L 415.588075 73.448894 
L 415.75956 71.756789 
L 416.274015 81.085169 
L 416.4455 75.497161 
L 416.616985 83.243635 
L 416.78847 76.913771 
L 416.959955 76.666121 
L 417.13144 76.086845 
L 417.302925 76.274606 
L 417.47441 78.268461 
L 417.645895 72.636766 
L 417.81738 74.447264 
L 417.988865 78.298037 
L 418.16035 76.260287 
L 418.331835 72.466077 
L 418.674805 79.376729 
L 418.84629 75.982135 
L 419.017775 74.826911 
L 419.18926 75.36747 
L 419.360745 73.297059 
L 419.53223 73.549116 
L 419.703715 77.481248 
L 419.8752 71.971648 
L 420.046685 80.641191 
L 420.21817 75.144303 
L 420.389655 75.656008 
L 420.56114 72.065549 
L 420.90411 79.285046 
L 421.075595 74.639163 
L 421.418565 75.839458 
L 421.59005 79.445802 
L 421.761535 77.325983 
L 421.93302 78.0239 
L 422.104505 72.923691 
L 422.27599 72.488045 
L 422.447475 77.51876 
L 422.61896 75.337511 
L 422.790445 75.995612 
L 422.96193 70.853225 
L 423.133415 78.385969 
L 423.3049 71.773155 
L 423.64787 77.85406 
L 423.819355 77.905845 
L 423.99084 76.943607 
L 424.162325 79.749119 
L 424.33381 75.069854 
L 424.67678 77.625626 
L 424.848265 77.344851 
L 425.01975 71.410031 
L 425.191235 75.448041 
L 425.36272 76.279918 
L 425.534205 72.486645 
L 425.70569 73.261703 
L 426.04866 78.241739 
L 426.220145 72.633633 
L 426.563115 75.508873 
L 426.7346 74.101621 
L 426.906085 77.84388 
L 427.07757 72.283092 
L 427.249055 78.802559 
L 427.42054 76.572067 
L 427.592025 72.003944 
L 427.76351 78.073315 
L 427.934995 71.310322 
L 428.10648 78.849114 
L 428.277965 73.723518 
L 428.44945 74.393552 
L 428.620935 72.839012 
L 428.79242 76.446881 
L 428.963905 73.76305 
L 429.13539 77.056382 
L 429.47836 78.663593 
L 429.649845 74.631154 
L 429.82133 76.973211 
L 429.992815 75.996913 
L 430.1643 75.95783 
L 430.335785 75.466221 
L 430.50727 79.987329 
L 430.678755 77.028638 
L 430.85024 76.132527 
L 431.021725 76.986317 
L 431.364695 69.873672 
L 431.707665 75.182801 
L 431.87915 75.671373 
L 432.050635 75.459631 
L 432.22212 73.165332 
L 432.393605 78.128204 
L 432.56509 74.509304 
L 432.90806 77.931882 
L 433.079545 73.831132 
L 433.25103 75.753505 
L 433.422515 72.875496 
L 433.594 76.09018 
L 433.765485 75.16188 
L 433.93697 75.358086 
L 434.108455 75.866467 
L 434.27994 77.188613 
L 434.451425 74.978237 
L 434.62291 76.854001 
L 434.794395 74.799872 
L 434.96588 77.324509 
L 435.137365 74.655263 
L 435.30885 78.160524 
L 435.480335 73.523104 
L 435.65182 77.281876 
L 435.823305 75.639262 
L 435.99479 75.679651 
L 436.166275 77.493517 
L 436.33776 74.759665 
L 436.68073 79.257724 
L 436.852215 73.4221 
L 437.0237 75.006386 
L 437.195185 75.046799 
L 437.36667 76.572806 
L 437.538155 72.254849 
L 437.70964 74.399007 
L 437.881125 74.142282 
L 438.05261 72.445812 
L 438.224095 76.840823 
L 438.39558 74.270133 
L 438.567065 77.109169 
L 438.73855 74.814621 
L 438.910035 74.158928 
L 439.08152 74.034986 
L 439.253005 75.875466 
L 439.42449 74.789556 
L 439.595975 77.106067 
L 439.76746 75.188497 
L 439.938945 75.022472 
L 440.11043 74.665184 
L 440.281915 75.695455 
L 440.4534 78.033786 
L 440.624885 73.024223 
L 440.79637 73.649967 
L 441.13934 78.719583 
L 441.310825 76.441268 
L 441.48231 76.993353 
L 441.653795 76.938393 
L 441.82528 73.927421 
L 442.339735 78.722592 
L 442.51122 75.188583 
L 442.682705 75.683965 
L 442.85419 77.056404 
L 443.025675 77.204909 
L 443.19716 76.879932 
L 443.54013 74.351425 
L 443.711615 77.265947 
L 443.8831 72.738038 
L 444.054585 75.181914 
L 444.22607 74.704256 
L 444.397555 75.430878 
L 444.56904 77.112185 
L 444.740525 75.56204 
L 444.91201 78.383575 
L 445.25498 77.462906 
L 445.426465 74.923541 
L 445.59795 76.961783 
L 445.769435 75.559789 
L 445.94092 75.386134 
L 446.112405 72.401046 
L 446.62686 79.694536 
L 446.798345 75.575009 
L 446.96983 75.657638 
L 447.141315 73.62217 
L 447.484285 77.749153 
L 447.65577 76.674543 
L 447.827255 74.033801 
L 447.99874 77.612865 
L 448.170225 74.091448 
L 448.34171 77.295641 
L 448.68468 78.63038 
L 449.02765 73.308103 
L 449.199135 78.334231 
L 449.71359 74.752065 
L 449.885075 76.54717 
L 450.05656 75.808972 
L 450.228045 74.468626 
L 450.571015 79.393092 
L 450.7425 76.359935 
L 450.913985 78.151777 
L 451.08547 75.632778 
L 451.256955 75.86913 
L 451.42844 73.62552 
L 451.599925 77.834063 
L 451.77141 76.776622 
L 451.942895 76.93654 
L 452.11438 75.411562 
L 452.45735 70.647638 
L 452.628835 76.991806 
L 452.80032 75.960623 
L 452.971805 72.297227 
L 453.314775 77.960627 
L 453.48626 74.084855 
L 453.657745 73.968678 
L 453.82923 77.676597 
L 454.000715 72.75308 
L 454.1722 73.725343 
L 454.343685 75.350384 
L 454.51517 73.603 
L 454.686655 75.632863 
L 454.85814 73.888681 
L 455.029625 78.321802 
L 455.20111 75.051491 
L 455.54408 77.375453 
L 455.715565 75.119353 
L 455.88705 75.752816 
L 456.058535 75.910966 
L 456.23002 78.260934 
L 456.401505 74.256335 
L 456.57299 73.216313 
L 456.744475 73.740505 
L 456.91596 75.666939 
L 457.087445 74.66927 
L 457.430415 78.065102 
L 457.6019 75.970198 
L 457.773385 75.615961 
L 457.94487 76.284919 
L 458.116355 79.600345 
L 458.28784 75.072263 
L 458.459325 79.287369 
L 458.63081 74.950719 
L 458.802295 78.0261 
L 458.97378 74.379471 
L 459.145265 76.447534 
L 459.31675 75.833439 
L 459.488235 72.663234 
L 459.65972 72.492505 
L 459.831205 73.602322 
L 460.00269 76.21881 
L 460.174175 74.536277 
L 460.34566 74.645079 
L 460.860115 78.955853 
L 461.0316 72.075388 
L 461.203085 72.658188 
L 461.37457 75.500116 
L 461.71754 77.091838 
L 461.889025 75.284881 
L 462.06051 75.087553 
L 462.231995 75.216797 
L 462.40348 74.146574 
L 462.574965 76.285425 
L 462.74645 76.086991 
L 462.917935 73.805715 
L 463.260905 78.020435 
L 463.43239 77.151913 
L 463.603875 72.990691 
L 463.77536 77.705429 
L 463.946845 76.430753 
L 464.11833 73.67831 
L 464.4613 74.499016 
L 464.632785 74.36211 
L 464.80427 73.948633 
L 465.14724 80.963955 
L 465.318725 76.779078 
L 465.49021 77.19231 
L 465.661695 72.045366 
L 465.83318 80.275457 
L 466.004665 73.4579 
L 466.17615 71.131335 
L 466.347635 76.5675 
L 466.51912 77.113634 
L 466.690605 76.980211 
L 466.86209 77.584105 
L 467.033575 74.772878 
L 467.20506 77.297999 
L 467.54803 74.608167 
L 467.719515 77.53983 
L 467.891 75.597695 
L 468.062485 80.074045 
L 468.23397 77.700943 
L 468.405455 79.141471 
L 468.57694 74.807655 
L 468.748425 76.358637 
L 468.91991 74.298712 
L 469.091395 78.988313 
L 469.26288 74.819426 
L 469.434365 77.968096 
L 469.777335 76.100595 
L 469.94882 78.363583 
L 470.120305 76.902753 
L 470.29179 71.380574 
L 470.463275 77.079269 
L 470.63476 75.641299 
L 470.806245 77.450797 
L 471.149215 73.814142 
L 471.3207 76.532102 
L 471.492185 75.770328 
L 471.66367 76.628704 
L 471.835155 78.194033 
L 472.00664 76.410894 
L 472.178125 77.743347 
L 472.521095 74.613363 
L 472.69258 79.972461 
L 472.864065 75.275577 
L 473.03555 76.836882 
L 473.207035 74.945317 
L 473.37852 69.674919 
L 473.550005 78.453836 
L 473.72149 76.836462 
L 473.892975 79.075424 
L 474.235945 76.536385 
L 474.578915 74.552642 
L 474.921885 79.810004 
L 475.09337 79.207669 
L 475.264855 75.340506 
L 475.43634 76.021615 
L 475.607825 75.457687 
L 475.77931 76.74681 
L 475.950795 76.477701 
L 476.12228 75.189535 
L 476.293765 72.748648 
L 476.636735 77.263033 
L 476.80822 78.339771 
L 476.979705 76.81924 
L 477.15119 79.02716 
L 477.49416 75.390885 
L 477.665645 71.510723 
L 477.83713 76.110275 
L 478.008615 77.697991 
L 478.52307 74.25406 
L 478.694555 76.210343 
L 478.86604 75.307426 
L 479.037525 78.767228 
L 479.20901 73.961629 
L 479.380495 76.415187 
L 479.55198 73.945396 
L 479.723465 74.619044 
L 479.89495 77.707828 
L 480.23792 73.974307 
L 480.409405 80.856583 
L 480.58089 79.92085 
L 480.752375 73.578613 
L 481.095345 79.326377 
L 481.26683 74.429444 
L 481.6098 76.886085 
L 481.781285 73.786256 
L 481.95277 77.625017 
L 482.29574 72.896119 
L 482.467225 76.700453 
L 482.63871 77.621509 
L 482.98168 74.973868 
L 483.153165 76.454371 
L 483.32465 76.014849 
L 483.496135 74.414958 
L 483.66762 74.372085 
L 483.839105 76.295279 
L 484.182075 73.089773 
L 484.35356 73.71594 
L 484.525045 80.550567 
L 484.868015 75.350357 
L 485.0395 78.974782 
L 485.210985 73.287418 
L 485.553955 72.242378 
L 486.06841 78.183131 
L 486.239895 74.869001 
L 486.582865 75.48116 
L 486.75435 78.770568 
L 487.09732 73.523764 
L 487.268805 76.388711 
L 487.44029 76.781883 
L 487.611775 72.950907 
L 487.954745 79.43055 
L 488.12623 76.270747 
L 488.297715 79.276026 
L 488.4692 79.877002 
L 488.640685 76.129259 
L 488.81217 77.49664 
L 488.983655 73.514321 
L 489.326625 80.577674 
L 489.49811 75.670263 
L 489.669595 78.456096 
L 489.84108 75.381869 
L 490.012565 75.975346 
L 490.18405 78.863736 
L 490.355535 78.965855 
L 490.52702 79.768608 
L 490.698505 74.574443 
L 490.86999 74.085073 
L 491.041475 76.62792 
L 491.21296 74.755224 
L 491.384445 76.168252 
L 491.55593 74.241985 
L 491.727415 70.678696 
L 492.070385 77.362688 
L 492.413355 75.085524 
L 492.58484 76.649311 
L 492.756325 74.816196 
L 492.92781 70.188233 
L 493.099295 74.350137 
L 493.27078 70.162984 
L 493.61375 75.422536 
L 493.785235 75.614109 
L 493.95672 73.446239 
L 494.128205 77.369222 
L 494.29969 74.704158 
L 494.471175 74.443915 
L 494.64266 77.680814 
L 494.814145 75.134085 
L 494.98563 76.525643 
L 495.157115 73.847218 
L 495.3286 78.753045 
L 495.500085 71.214039 
L 495.67157 75.324644 
L 495.843055 73.501215 
L 496.01454 73.805563 
L 496.186025 73.119506 
L 496.35751 73.325883 
L 496.528995 78.290732 
L 496.70048 78.630484 
L 496.871965 76.800118 
L 497.04345 77.22247 
L 497.214935 74.235618 
L 497.38642 73.635753 
L 497.557905 76.371559 
L 497.72939 77.1855 
L 497.900875 78.859117 
L 498.07236 74.147419 
L 498.243845 74.964199 
L 498.41533 77.723739 
L 498.586815 78.680663 
L 498.929785 77.276272 
L 499.10127 75.36856 
L 499.272755 75.114673 
L 499.44424 75.18831 
L 499.78721 72.321604 
L 499.958695 78.306804 
L 500.13018 78.589691 
L 500.301665 74.454011 
L 500.47315 75.998249 
L 500.644635 75.251822 
L 500.81612 77.289873 
L 500.987605 76.542822 
L 501.15909 73.985841 
L 501.330575 82.262115 
L 501.50206 78.962612 
L 501.673545 70.190056 
L 501.84503 73.5864 
L 502.016515 74.546682 
L 502.188 72.153893 
L 502.359485 75.913615 
L 502.53097 75.498535 
L 502.702455 76.065277 
L 502.87394 80.158706 
L 503.045425 75.555492 
L 503.21691 79.461915 
L 503.388395 73.98408 
L 503.55988 77.661289 
L 503.731365 78.460665 
L 503.90285 71.692839 
L 504.074335 75.627106 
L 504.24582 76.361144 
L 504.417305 76.395201 
L 504.58879 75.672247 
L 504.760275 74.363842 
L 504.93176 77.274503 
L 505.103245 74.690203 
L 505.446215 80.876797 
L 505.6177 72.993577 
L 505.789185 76.173293 
L 505.96067 75.083832 
L 506.132155 75.446287 
L 506.30364 76.086025 
L 506.64661 73.87413 
L 506.98958 79.396197 
L 507.161065 73.594277 
L 507.33255 78.041645 
L 507.504035 76.153978 
L 507.67552 78.633014 
L 507.847005 76.043718 
L 508.01849 76.981735 
L 508.189975 79.638346 
L 508.36146 77.195417 
L 508.532945 71.819763 
L 508.875915 76.134982 
L 509.0474 74.011121 
L 509.218885 80.320541 
L 509.39037 74.885552 
L 509.561855 74.353561 
L 509.73334 72.366925 
L 509.904825 72.311073 
L 510.07631 76.839821 
L 510.247795 74.790966 
L 510.41928 81.021486 
L 510.590765 75.196252 
L 510.76225 78.52125 
L 510.933735 78.384793 
L 511.10522 80.141347 
L 511.276705 74.089382 
L 511.44819 74.268758 
L 511.619675 79.018186 
L 511.962645 76.708031 
L 512.305615 76.697097 
L 512.648585 74.442138 
L 512.82007 73.508448 
L 512.991555 74.666025 
L 513.16304 74.724915 
L 513.334525 71.872441 
L 513.50601 76.481104 
L 513.677495 74.925845 
L 513.84898 75.573736 
L 514.020465 74.53364 
L 514.19195 76.050037 
L 514.363435 76.29333 
L 514.53492 73.67462 
L 514.706405 73.376266 
L 514.87789 73.930256 
L 515.049375 75.744444 
L 515.22086 75.35328 
L 515.392345 72.109108 
L 515.735315 76.695236 
L 516.078285 71.692274 
L 516.24977 75.613256 
L 516.421255 76.357156 
L 516.59274 74.538117 
L 516.764225 76.596909 
L 516.93571 79.999722 
L 517.107195 75.177189 
L 517.27868 73.777979 
L 517.450165 73.526371 
L 517.62165 78.952048 
L 517.793135 77.736279 
L 517.96462 73.623825 
L 518.136105 75.572443 
L 518.30759 74.270443 
L 518.479075 77.911648 
L 518.65056 75.420138 
L 518.822045 76.614779 
L 518.99353 71.571474 
L 519.165015 76.441405 
L 519.3365 72.883342 
L 519.507985 78.963455 
L 519.67947 74.405349 
L 519.850955 75.493513 
L 520.02244 75.304991 
L 520.193925 76.027129 
L 520.536895 73.807601 
L 520.70838 75.721551 
L 520.879865 73.02913 
L 521.222835 77.197052 
L 521.39432 75.515203 
L 521.565805 76.139916 
L 521.73729 77.683982 
L 521.908775 76.162311 
L 522.08026 75.930081 
L 522.251745 74.87068 
L 522.42323 79.001331 
L 522.594715 75.820969 
L 522.7662 76.102057 
L 522.937685 75.334779 
L 523.10917 76.207952 
L 523.280655 73.010334 
L 523.45214 72.026642 
L 523.79511 77.695258 
L 523.966595 77.735477 
L 524.309565 74.388572 
L 524.652535 80.346093 
L 524.82402 75.606996 
L 524.995505 79.417202 
L 525.16699 76.672467 
L 525.338475 77.35536 
L 525.50996 74.173144 
L 525.681445 74.226995 
L 525.85293 77.263799 
L 526.024415 78.111841 
L 526.1959 72.63704 
L 526.367385 77.226361 
L 526.53887 72.131811 
L 526.710355 75.051741 
L 526.88184 72.564326 
L 527.22481 78.175465 
L 527.739265 71.385561 
L 527.91075 73.5939 
L 528.082235 79.743182 
L 528.25372 77.11847 
L 528.425205 77.204939 
L 528.59669 74.519284 
L 528.768175 75.46148 
L 528.93966 77.849467 
L 529.111145 72.491407 
L 529.28263 73.970141 
L 529.454115 71.685681 
L 529.797085 77.293627 
L 529.96857 74.162476 
L 530.140055 77.147905 
L 530.31154 72.917032 
L 530.483025 72.592943 
L 530.65451 74.561819 
L 530.825995 74.249692 
L 530.99748 77.590577 
L 531.168965 78.069893 
L 531.34045 76.606128 
L 531.511935 77.142746 
L 531.68342 80.049244 
L 531.854905 72.412836 
L 532.197875 78.082976 
L 532.36936 78.214987 
L 532.540845 75.413595 
L 532.71233 80.198164 
L 532.883815 74.098292 
L 533.0553 74.130686 
L 533.226785 75.923292 
L 533.39827 72.999504 
L 533.569755 77.147373 
L 533.74124 76.298063 
L 533.912725 72.257874 
L 534.255695 79.369283 
L 534.42718 75.438018 
L 534.598665 76.828356 
L 534.77015 74.934335 
L 534.941635 77.42492 
L 535.11312 77.235598 
L 535.284605 75.7616 
L 535.45609 78.723192 
L 535.627575 72.861076 
L 535.970545 77.431435 
L 536.14203 80.498752 
L 536.313515 76.294351 
L 536.485 76.841727 
L 536.656485 75.427481 
L 536.82797 75.761677 
L 536.999455 73.80598 
L 537.17094 76.842687 
L 537.342425 76.376141 
L 537.51391 72.991756 
L 537.85688 77.102615 
L 538.028365 78.587509 
L 538.19985 74.826886 
L 538.371335 77.222015 
L 538.54282 74.411289 
L 538.714305 73.632248 
L 539.057275 78.524794 
L 539.22876 79.280745 
L 539.400245 75.330861 
L 539.57173 77.813626 
L 539.743215 75.688784 
L 540.086185 75.192699 
L 540.25767 73.449908 
L 540.429155 77.578013 
L 540.60064 72.187071 
L 540.772125 77.101068 
L 540.94361 75.879299 
L 541.28658 77.635257 
L 541.458065 74.186391 
L 541.801035 76.544946 
L 541.97252 74.238503 
L 542.144005 78.950975 
L 542.31549 74.602046 
L 542.486975 76.771764 
L 542.65846 75.681568 
L 542.829945 76.002081 
L 543.00143 73.418367 
L 543.3444 78.203112 
L 543.515885 77.084238 
L 543.68737 78.142814 
L 544.03034 73.843906 
L 544.201825 73.980285 
L 544.37331 77.67922 
L 544.544795 78.782252 
L 544.71628 73.498848 
L 544.887765 77.842119 
L 545.05925 72.96957 
L 545.40222 77.00475 
L 545.573705 73.582574 
L 545.916675 76.267186 
L 546.08816 73.674546 
L 546.259645 78.10634 
L 546.43113 79.308221 
L 546.602615 77.349081 
L 546.945585 76.250924 
L 547.288555 78.168928 
L 547.46004 72.566331 
L 547.631525 74.322775 
L 547.80301 77.348536 
L 547.974495 77.064336 
L 548.14598 77.678269 
L 548.317465 73.741677 
L 548.48895 75.217327 
L 548.660435 74.330191 
L 548.83192 75.842578 
L 549.003405 73.501947 
L 549.17489 75.064615 
L 549.346375 72.606775 
L 549.51786 79.193208 
L 549.86083 75.313256 
L 550.032315 75.356825 
L 550.2038 75.637748 
L 550.375285 73.248036 
L 550.54677 76.264198 
L 550.718255 75.34025 
L 550.88974 78.165918 
L 551.061225 77.153864 
L 551.23271 74.217725 
L 551.404195 76.055144 
L 551.57568 71.00155 
L 551.747165 76.060181 
L 551.91865 74.611605 
L 552.090135 75.290046 
L 552.26162 77.810851 
L 552.433105 76.120768 
L 552.60459 76.412521 
L 552.94756 79.819925 
L 553.119045 72.820254 
L 553.29053 78.432126 
L 553.462015 79.093099 
L 553.6335 77.880418 
L 553.804985 75.629808 
L 553.97647 75.856531 
L 554.147955 77.675675 
L 554.31944 77.700339 
L 554.66241 75.326007 
L 554.833895 76.921901 
L 555.00538 72.01917 
L 555.34835 78.694995 
L 555.519835 73.563285 
L 555.862805 73.489819 
L 556.03429 74.31654 
L 556.205775 76.912395 
L 556.37726 75.462739 
L 556.548745 77.388825 
L 556.891715 77.758579 
L 557.0632 73.78159 
L 557.234685 76.80055 
L 557.40617 75.558176 
L 557.577655 76.313625 
L 557.74914 74.453485 
L 557.74914 74.453485 
" clip-path="url(#p64c7dd7ea7)" style="fill: none; stroke: #1f77b4; stroke-linecap: square"/>
   </g>
   <g id="line2d_14">
    <path d="M 179.7962 173.94 
L 179.7962 7.2 
" clip-path="url(#p64c7dd7ea7)" style="fill: none; stroke-dasharray: 3.7,1.6; stroke-dashoffset: 0; stroke: #000000"/>
   </g>
   <g id="patch_4">
    <path d="M 43.465625 173.94 
L 43.465625 7.2 
" style="fill: none; stroke: #000000; stroke-width: 0.8; stroke-linejoin: miter; stroke-linecap: square"/>
   </g>
   <g id="patch_5">
    <path d="M 557.920625 173.94 
L 557.920625 7.2 
" style="fill: none; stroke: #000000; stroke-width: 0.8; stroke-linejoin: miter; stroke-linecap: square"/>
   </g>
   <g id="patch_6">
    <path d="M 43.465625 173.94 
L 557.920625 173.94 
" style="fill: none; stroke: #000000; stroke-width: 0.8; stroke-linejoin: miter; stroke-linecap: square"/>
   </g>
   <g id="patch_7">
    <path d="M 43.465625 7.2 
L 557.920625 7.2 
" style="fill: none; stroke: #000000; stroke-width: 0.8; stroke-linejoin: miter; stroke-linecap: square"/>
   </g>
  </g>
 </g>
 <defs>
  <clipPath id="p64c7dd7ea7">
   <rect x="43.465625" y="7.2" width="514.455" height="166.74"/>
  </clipPath>
 </defs>
</svg>
